<svg width="1366" height="625" xmlns="http://www.w3.org/2000/svg" xml:space="preserve" version="1.1">
 <desc>JavaScript chart by amCharts 3.21.15</desc>

 <desc>This map was created using Pixel Map Generator by amCharts and is licensed under the Creative Commons Attribution 4.0 International License. You may use this map the way you see fit as long as proper attribution to the name of amCharts is given in the form of link to http://pixelmap.amcharts.com/ To view a copy of this license, visit http://creativecommons.org/licenses/by/4.0/ If you would like to use this map without any attribution, you can acquire a commercial license for the JavaScript Maps - a tool that was used to produce this map. To do so, visit amCharts Online Store: http://www.amcharts.com/online-store/</desc>
 <g>
  <title>background</title>
  <rect fill="none" id="canvas_background" height="507" width="1108" y="-1" x="-1"/>
 </g>
 <g>
  <title>Layer 1</title>
  <g stroke="null" id="svg_1">
   <path stroke="#000000" id="svg_2" svgUid="2" class="amcharts-bg" fill="#505050" d="m-360.00074,-131.00026l2117.001529,0l0,877.000464l-2117.001529,0l0,-877.000464z" cs="100,100"/>
  </g>
  <path stroke="#505050" id="svg_7" svgUid="2" aria-label="Central Macedonia  " role="menuitem" class="amcharts-map-area amcharts-map-area-GR-B" stroke-width="1.012704" fill="#818181" d="m558.624535,184.139069l2.928284,1.302878l7.208989,8.834752l9.078858,3.970675l5.856569,1.302878l2.704841,4.566277l4.433587,0.012408l0.588009,1.811621l-2.704841,0.806543l-10.219595,-1.240836l-11.336812,-4.83926l-8.749573,1.476595l1.646425,-4.715177l-7.538274,-9.479987l1.176018,-2.618164l-0.882013,-6.774965l0.999615,-0.07445l2.66956,4.504235l2.140352,1.153977zm-7.785238,-123.227424l3.657415,-0.533559l2.034511,1.699945l2.399076,-0.297801l1.658185,1.240836l2.528438,0.099267l0,0l1.364181,5.571354l6.797383,1.675129l-0.823212,4.888894l2.6578,3.846592l-0.070561,2.159055l2.316755,0.359842l4.468868,4.330518l5.103917,1.600678l7.220749,4.46701l3.222289,-2.928373l4.704071,2.580939l0.070561,3.213765l7.467713,4.938527l0.246964,4.131984l-1.281859,2.580939l0.68209,1.687537l-3.092927,-0.421884l0.235204,2.618164l-2.387316,0.07445l-6.668021,7.047949l-4.974555,1.265653l-0.082321,2.705022l0,0l-2.928284,-0.459109l-7.479473,2.903556l-2.269714,4.417376l-0.223443,3.7101l4.033741,1.538637l3.822058,3.995492l0.588009,2.221096l3.057646,1.178794l1.31714,2.19628l4.245424,-0.136492l3.175248,2.456855l-1.764027,1.377328l-5.068637,0.1489l-0.68209,1.240836l1.199538,5.199103l3.234049,3.685283l5.856569,3.201357l3.528053,0.434293l2.869483,-1.017486l0,0l1.387701,4.727585l-0.65857,2.531305l0,0l-6.032971,-4.293293l-7.26779,-1.278061l-5.327361,3.238582l-4.033741,-1.575862l-0.552728,2.047379l-1.505303,-0.086859l-0.67033,2.829106l1.658185,4.504235l2.763642,2.841514l0.176403,-0.880994l1.728746,0.843768l1.599384,3.747325l2.740122,-0.235759l1.575864,1.377328l7.561795,2.171463l7.350111,4.901302l-1.223059,0.645235l0.070561,1.575862l2.834203,3.064865l1.070176,1.637904l0.64681,2.87874l-2.563719,2.159055l1.35242,1.43937l-0.423366,1.36492l-0.211683,0.818952l-4.915754,1.141569l-0.799692,-2.816698l-1.811067,0.471518l-0.070561,-2.097013l-1.399461,-1.315286l-1.31714,0.012408l-3.30461,-2.742248l-0.964335,1.73717l-5.480243,-10.832498l-11.066328,-10.460248l-9.419903,-1.029894l-3.880859,-2.357588l-8.161564,-1.985338l-3.563334,3.548791l-0.917294,4.342926l-0.952574,0.012408l-2.834203,-3.747325l-12.795074,-3.734916l-3.528053,-2.369997l-7.150188,-2.506489l-0.717371,-2.034971l-2.822443,-2.19628l-4.092542,-1.327695l-3.669176,0.769318l0.870253,-2.394813l-3.551574,-3.424707l-1.364181,-3.313032l-3.245809,-1.017486l-0.129362,-2.320363l8.973016,-0.843768l3.833818,-3.834183l-4.104302,-2.95319l0.952574,-1.650312l-0.564489,-3.052457l-4.692311,-1.637904l-4.468868,2.518897l1.98747,0.459109l0.211683,1.774395l-1.799307,1.898479l-7.091387,1.625495l0.070561,5.037794l-1.646425,0.508743l-1.105457,-1.650312l-0.599769,-0.955444l-1.434742,-0.062042l-2.693081,1.278061l2.834203,3.126907l-2.822443,0.124084l-1.846348,0.173717l-2.504918,1.66272l1.940429,2.109421l2.575479,6.228997l3.010606,1.811621l-3.810298,7.854492l-0.294004,6.948682l-2.693081,6.415122l5.362641,12.842653l6.820903,3.945859l0,0l1.528823,1.067119l-1.705226,1.538637l-1.387701,-1.861254l-2.540198,-0.632826l-1.622905,1.340103l-5.985931,0.943035l-2.61076,-2.072196l-1.422982,-4.069942l-4.962795,-3.015231l-1.611144,0.620418l-1.176018,-1.402145l-1.505303,0.943035l-2.987085,-2.866331l1.270099,-6.899048l-1.916909,0.943035l0.164642,-2.829106l-2.763642,-2.258322l-2.834203,0.75691l-3.139968,5.893971l-1.869868,0.75691l-1.117217,-4.305701l-1.528823,0.161309l1.775787,-2.95319l-0.67033,-1.054711l-7.432433,-0.111675l0,0l-0.576249,0.024817l0,0l-0.917294,-1.029894l0.65857,-0.955444l4.457108,-2.320363l1.31714,-6.377897l-2.904764,-0.310209l-2.798922,-2.022563l-0.141122,-1.637904l1.716986,-1.861254l-2.281475,0.186125l-2.963565,-2.481672l0.470407,-4.802035l-3.069407,-0.955444l-3.528053,0.434293l0.047041,-1.129161l-3.892619,-3.064865l-4.504148,-0.856177l-0.717371,-2.754656l-2.775402,-3.10209l1.29362,-2.432039l-2.64604,-2.034971l-0.717371,-2.965598l-0.082321,-1.848846l1.752267,-1.054711l-0.341045,-2.705022l-3.786777,-1.129161l-1.30538,-1.36492l-2.022751,1.042302l-1.023136,-2.903556l-2.834203,-1.687537l1.164258,-3.089682l-5.30384,-0.744502l0.235204,-3.288215l-3.010606,-3.635649l5.092157,-1.51382l4.092542,-3.015231l-2.01099,-0.781727l-1.752267,-2.320363l0,0l1.128977,-1.240836l-0.552728,-3.10209l3.516293,-2.034971l2.340275,-4.268476l2.504918,-0.880994l-0.834973,-4.268476l4.903994,-3.523974l4.280705,-0.471518l2.375556,-2.705022l5.821288,3.7101l1.587624,-0.471518l1.658185,-2.841514l3.457492,-1.240836l4.174863,0.60801l3.363411,1.761987l1.31714,-0.508743l0.858493,2.95319l1.764027,-1.377328l3.763257,-0.297801l1.916909,1.898479l11.360332,-1.178794l2.575479,1.240836l5.233279,-6.638473l4.386546,4.491826l1.799307,-0.943035l0.823212,-1.414553l-0.870253,-14.269614l2.951805,-3.089682l18.722204,0.781727l4.856954,1.985338l4.421827,0.099267l5.386162,-1.116752l1.658185,-2.369997l-0.188163,-2.667797l3.786777,-2.41963l3.163488,0.049633l2.022751,3.362666l4.668791,-3.648058l6.197614,0.297801z" cs="100,100"/>
  <path id="svg_11" svgUid="2" aria-label="Mount Athos  " role="menuitem" class="amcharts-map-area amcharts-map-area-GR-69" stroke-width="1.012704" stroke="#505050" fill="#818181" d="m214.890485,271.201525l0.552975,-2.01441l-1.175072,-3.752332l0,0l-0.967707,-3.79183l-0.770216,-0.138244l0.99733,-1.066452l2.399518,4.13744l2.636507,2.439016l5.144645,1.115825l1.017079,-0.444355l2.656256,1.224445l0.740592,1.895915l3.475844,0.770216l1.79717,1.570055l1.500933,3.179608l7.376295,4.937279l1.629302,3.367224l-6.24072,2.142779l-2.23165,-3.702959l-4.502798,-2.804374l-0.187617,-1.609553l-4.749662,-4.858282l-8.531618,-1.007205l-2.567385,-1.589804z" cs="100,100"/>
  <path transform="rotate(11.028827667236328 636.1247558593748,320.21105957031244) " stroke="#505050" id="svg_12" svgUid="2" cursor="pointer" aria-label="North Aegean  " role="menuitem" class="amcharts-map-area amcharts-map-area-GR-K" stroke-width="1.012704" fill="#818181" d="m680.4046,419.710369l1.354024,1.762381l-0.48358,1.171338l-1.160592,-0.118208l-0.462088,-1.192831l-2.568348,0.343879l3.320583,-1.966559zm4.61013,-4.78207l1.794619,1.182085l-0.139701,1.805366l1.321786,-0.010746l-1.386263,2.826257l-2.041783,0.870444l1.740888,2.181484l-0.56955,2.074021l-2.901481,-3.868641l-0.247163,-2.611333l0.773728,-0.225671l1.117607,1.955813l1.62268,-1.257308l-0.548057,-2.213722l-1.482979,-0.311641l0.945668,-2.396408zm-11.724131,-2.643571l-2.557601,4.663861l-6.931315,5.115203l-7.812505,1.182085l-3.965357,3.567747l-6.017886,0.365372l-0.462088,-1.525964l1.955813,-3.986849l4.975502,-5.17968l4.975502,-0.214924l3.900879,1.074622l6.942061,-4.513414l4.996994,-0.548057zm28.670927,-10.638762l6.920569,0.494326l2.708049,2.2782l3.632224,0.623281l3.127151,2.063275l0.827459,-0.65552l-2.288946,-2.740287l2.364169,0.741489l-0.494326,-1.149846l1.010145,-0.279402l0.848952,1.558203l5.082964,-0.118208l-2.804765,2.288946l1.461487,1.106861l-0.333133,0.827459l2.052529,0.064477l0.698505,1.020891l-2.321184,1.063876l-4.373713,-0.247163l-1.93432,1.633426l-2.944466,0.376118l-2.117006,1.665665l0.075224,1.880589l-1.493725,0.429849l-4.663861,-0.429849l-4.223266,-4.685354l-2.665064,-1.182085l-5.716991,0.612535l-1.246562,1.945067l-2.374916,0.526565l-2.579094,-4.803562l1.912828,-2.611333l3.07342,-0.773728l2.407154,-2.170737l6.372511,-1.354024zm-44.790264,-59.620053l0.934922,1.805366l-1.160592,-0.193432l-0.526565,-2.10626l0.752236,0.494326zm-7.597581,-2.288946l6.544451,1.665665l-0.08597,0.999399l-1.407755,0.666266l-1.53671,-1.085369l-1.902082,0.118208l-1.611934,-2.364169zm-50.603971,-0.623281l0.558804,1.676411l-2.374916,-0.161193l0.945668,-1.676411l0.870444,0.161193zm36.322239,-4.61013l2.751033,1.278801l1.493725,-0.354625l2.074021,3.116405l3.15939,0.118208l0.558804,-0.96716l1.923574,1.1391l0.451341,1.375517l-0.247163,3.374314l-1.848351,0.601789l-0.128955,1.031638l1.407755,0.053731l1.096115,1.515218l-0.88119,4.448937l1.429248,5.609529l1.568949,0.934922l0.182686,1.53671l-3.868641,3.374314l1.461487,3.266852l-0.999399,2.041783l-4.448937,0.859698l-1.397009,4.416698l-1.579695,-1.397009l-1.998798,-0.268656l-1.654919,-2.374916l-1.826858,0.204178l-0.193432,-1.182085l-3.030435,-0.741489l-0.494326,-2.471632l-1.62268,0.064477l0.558804,-2.546855l2.912227,-2.170737l3.557,0.354625l0.225671,-2.794018l1.504471,-1.085369l-0.472834,-2.654317l-2.98745,-2.58984l-1.966559,-4.803562l-6.394004,-2.729541l-3.07342,-4.502668l1.568949,-2.901481l11.229805,-2.181484zm-32.636284,-0.247163l3.460284,1.568949l-0.236417,4.739085l-3.137898,-0.88119l-0.558804,-1.62268l-3.019689,-2.557601l3.492523,-1.246562zm49.282185,-65.143613l0.924175,0.279402l-1.020891,1.633426l0.580296,0.687758l5.394605,1.160592l-2.740287,4.900278l7.823251,4.255505l2.579094,3.761179l3.127151,1.05313l-0.429849,2.245961l1.354024,0.225671l1.268054,3.567747l4.728339,4.309236l0.053731,3.051928l-3.911626,-0.365372l-3.793417,-3.051928l1.418502,-1.149846l-2.869242,-3.965357l-1.740888,-0.752236l-2.460885,0.934922l0.623281,2.181484l6.80236,5.168934l1.397009,2.826257l-1.730142,1.439994l-8.930113,0.698505l-5.609529,-1.192831l-7.54385,-3.33133l-3.696701,-0.053731l-1.010145,0.988653l-4.29849,-4.728339l-2.858496,-1.042384l1.278801,-1.773127l2.396408,0.515819l2.235215,-1.05313l1.235816,-2.159991l6.662659,-2.493124l0.719997,-2.374916l-2.697302,-1.676411l-4.631623,-0.354625l-2.407154,0.848952l-3.148644,7.791013l-1.235816,-0.634027l-1.22507,2.19223l-5.115203,-1.547456l-4.266251,0.096716l-1.063876,-1.773127l-5.577291,-2.138499l-0.472834,-1.364771l-3.030435,-1.482979l1.461487,0.17194l-0.698505,-6.23281l3.342076,-2.374916l-0.161193,-0.977906l1.407755,-0.032239l0.505073,1.364771l5.168934,0.08597l1.568949,-1.268054l3.277598,-0.107462l7.651312,-2.557601l0.838206,-0.988653l-1.439994,-2.858496l1.214323,-0.709251l9.886527,0.526565l1.751635,-1.407755l1.1391,1.010145zm-102.895099,-14.905013l3.342076,2.170737l-4.577892,5.512813l-1.590441,-5.566544l1.311039,-2.933719l1.515218,0.816713zm26.027356,-38.79387l0.96716,2.546855l-3.653716,3.008943l0.333133,2.955212l-2.159991,0.010746l0.075224,1.70865l0.988653,0.053731l-2.095514,1.085369l1.439994,1.62268l-0.977906,0.515819l0.386864,1.332532l2.439393,2.074021l-1.45074,0.859698l0.462088,1.62268l-4.191028,-0.934922l-1.160592,-1.22507l0.268656,-1.235816l-2.267453,-0.687758l-1.547456,-1.794619l1.407755,-1.246562l-0.687758,-0.709251l0.988653,-1.805366l-1.902082,-1.407755l-1.697903,0.161193l-2.879988,2.2782l0.956414,0.634027l-1.214323,2.321184l2.224468,0.730743l0.193432,1.805366l2.353423,2.052529l-7.533103,-0.623281l1.343278,-3.675209l-1.912828,1.05313l-1.407755,-1.472233l-5.276396,1.493725l1.22507,-1.579695l-1.407755,-0.494326l1.096115,-5.136695l-2.052529,-1.268054l-1.268054,-4.6961l4.706846,-0.182686l2.632825,-1.472233l1.074622,1.515218l1.472233,0.010746l4.416698,-1.407755l1.375517,1.482979l1.955813,-0.096716l-0.354625,2.2782l2.009544,0.709251l-1.031638,0.65552l1.289547,0.601789l1.633426,-2.2782l1.05313,-0.247163l0.279402,-0.612535l2.245961,-2.181484l-0.300894,-1.418502l2.579094,1.096115l2.965958,-2.557601l-0.408357,2.170737z" cs="100,100"/>
  <path stroke="#505050" transform="rotate(-3.103081226348877 491.3357238769576,372.11431884765625) " id="svg_15" svgUid="2" cursor="pointer" aria-label="Peloponnese  " role="menuitem" class="amcharts-map-area amcharts-map-area-GR-J" stroke-width="1.012704" fill="#818181" d="m533.882231,442.585808l1.753403,4.954246l-1.988759,-1.92992l-2.730131,1.44744l-0.282427,-2.435936l3.247914,-2.03583zm-103.427245,-22.0411l1.329762,0.247124l-0.341266,4.189339l-2.741899,-2.294722l0.506016,-3.059629l1.247387,0.917889zm-5.424958,-3.777466l1.23562,0.353034l-0.317731,1.694564l-1.541583,0.670765l-0.247124,2.024063l-0.623694,-4.354088l0.623694,-1.082638l0.870818,0.694301zm-15.815931,-24.300519l-0.27066,1.600422l0,-1.470976l-1.247387,-0.776675l1.44744,-0.811979l0.070607,1.459208zm127.868977,-21.476245l4.354088,2.047598l0.047071,1.765171l-2.165276,0.458944l-2.000527,-1.223852l-2.177044,-2.659524l1.941688,-0.388338zm18.828489,-6.189866l0.706068,1.482744l-2.212347,1.000263l-2.30649,0.117678l-1.671028,-1.153245l3.294986,-1.329762l0.976728,1.106174l1.212084,-1.223852zm17.357513,-2.094669l1.706332,0.553087l-6.260473,2.106437l0.37657,2.271187l-4.742426,0.094142l-3.965751,2.247651l-0.294195,-0.800211l-2.612453,0.200053l7.766752,-4.907175l4.424695,-1.753403l1.647493,0.800211l1.953456,-0.811979zm-57.838765,-65.734963l5.130763,2.388865l1.059103,-0.835514l1.482744,1.012031l5.20137,-0.835514l0,0l0.141214,2.941951l1.23562,0.564855l-1.518047,2.847809l5.448494,2.000527l1.282691,1.812242l0,0l-3.471503,2.883112l-10.02617,1.141477l-5.189602,-4.177571l0.85905,-2.588917l-5.401423,-3.259682l-3.024326,-0.706068l1.176781,-0.741372l-3.424431,0.317731l2.624221,-2.353561l6.413454,-2.4124zm-49.989639,-5.848599l3.459735,1.07087l6.331079,-0.470712l4.565909,2.68306l8.449285,2.694828l7.802055,3.942215l6.16633,6.072188l5.554404,2.941951l3.636252,0.564855l4.813033,-1.918152l5.20137,4.177571l-1.529815,2.612453l1.588654,3.012558l8.57873,-0.094142l2.859577,1.423904l3.37736,2.68306l0.470712,2.435936l-2.118205,1.92992l-1.906385,-0.094142l-0.564855,2.459471l4.918943,1.518047l-1.482744,3.436199l1.988759,3.330289l-1.023799,1.729867l3.953983,2.471239l0,0l-2.118205,3.953983l1.106174,2.635988l10.720471,2.753667l1.082638,2.435936l2.577149,-0.200053l0.494248,1.129709l4.671819,0.305963l1.55335,-1.176781l2.530078,0.694301l-1.788706,4.71889l0,0l-1.07087,0.647229l-5.495565,-1.176781l-3.600949,1.082638l-2.624221,-0.141214l-0.470712,2.094669l-2.989023,0.776675l0.870818,1.176781l3.824537,1.541583l-6.966541,0.494248l-0.96496,1.694564l2.03583,2.847809l-2.506543,0.529551l-3.742162,-2.600685l-1.600422,-1.741635l2.271187,0.600158l-1.34153,-1.529815l-4.848336,-0.976728l0.400105,-2.188812l-1.07087,-1.388601l3.142004,0.10591l0.48248,-2.953719l1.941688,1.188548l0.85905,-0.48248l-2.224115,-3.306753l-5.47203,0l-1.165013,-0.647229l0.847282,-0.694301l-0.988496,-1.412137l-3.212611,1.906385l-3.247914,-5.377887l-6.531132,-1.400369l-3.400896,1.882849l-2.883112,-1.423904l-0.058839,-1.541583l-4.189339,-4.212874l-4.660051,2.30649l2.224115,4.530605l-0.600158,2.836041l2.071134,2.094669l0.211821,2.071134l2.165276,1.600422l-1.200316,2.836041l4.106964,3.036094l4.518837,6.425222l-0.317731,1.035567l2.188812,1.023799l-0.447177,1.400369l1.800474,0.894353l3.695091,5.083692l-1.117942,4.212874l0.741372,2.400632l1.918152,0.941424l0.706068,-1.012031l2.106437,0.011768l0.811979,2.541846l2.03583,0.682533l0.141214,1.141477l-1.565118,0.141214l3.75393,4.283481l0.658997,3.695091l-1.094406,1.012031l1.576886,0.447177l0.411873,2.718363l4.224642,7.178362l-0.447177,1.082638l2.647756,1.859313l1.906385,4.02459l1.859313,1.259155l-1.988759,1.294459l0.541319,2.753667l-2.577149,-1.482744l-0.882585,1.435672l-1.459208,0.058839l1.529815,9.520155l4.330553,4.495302l6.81356,3.836305l-1.55335,3.612716l3.047862,1.282691l0.423641,1.565118l2.435936,0.576622l0.694301,1.741635l-4.765961,0l-1.082638,1.176781l-3.85984,-1.023799l-2.30649,-3.130236l0.211821,-2.435936l-2.824273,-2.271187l-5.801528,0.517783l-1.588654,-3.012558l-1.506279,-0.682533l-0.200053,-2.106437l-6.284008,-4.295249l0.929657,-0.011768l0.011768,-1.741635l-3.447967,-3.506806l-1.482744,-0.223588l-0.58839,3.024326l-1.44744,-2.541846l1.082638,-2.965487l-3.930447,-7.766752l-13.544744,-0.706068l-4.495302,2.694828l1.247387,4.02459l-4.23641,2.459471l0.823746,0.847282l-0.729604,1.247387l2.447704,1.165013l0.447177,2.024063l-3.224379,-1.588654l-1.23562,0.75314l2.930184,4.02459l-1.435672,1.306226l-1.329762,-1.612189l-1.55335,0.506016l0.576622,7.907965l3.071397,3.930447l0.294195,3.977518l-1.529815,0.953192l1.965224,2.847809l-1.753403,0.494248l-2.4124,-5.048389l-5.260209,-2.671292l-0.600158,0.894353l-1.965224,-0.576622l-2.059366,-3.177308l-0.176517,-1.44744l3.436199,-1.306226l-0.729604,-3.200843l-1.223852,-0.164749l1.035567,-1.435672l-2.03583,-0.847282l0.917889,-1.400369l-1.365065,-2.059366l1.659261,-0.353034l-2.059366,-1.988759l2.03583,-2.706595l-2.824273,-0.082375l-1.518047,-1.506279l-4.742426,-9.590762l-3.495038,-2.353561l-3.189075,-5.071924l-2.224115,-1.129709l-2.318258,1.494511l-4.106964,-2.294722l1.412137,-2.212347l-0.58839,-7.307807l-8.767015,-0.882585l-9.155353,4.165803l0.541319,10.955827l1.988759,5.071924l2.553614,1.435672l-2.459471,1.23562l-0.011768,2.106437l-4.307017,3.624484l-1.518047,-2.930184l-3.012558,-2.4124l-0.835514,-2.494775l-1.282691,-0.37657l-3.789233,1.92992l-0.85905,-1.259155l-4.142268,-1.200316l-2.89488,-6.91947l2.059366,-5.189602l-2.459471,-1.259155l-2.024063,0.611926l0.27066,-1.329762l-2.247651,-3.612716l-6.16633,-5.154299l0.294195,-3.071397l-1.882849,-5.166067l0.635462,-4.530605l6.895934,-5.530869l1.600422,-3.577413l-2.318258,-8.143322l0,0l1.282691,-1.035567l12.921051,0.164749l3.412664,-1.117942l-1.247387,-4.189339l8.47282,-4.789497l-4.695354,-4.177571l-2.20058,-0.611926l-3.577413,-4.530605l-3.236147,-0.223588l-3.306753,1.470976l-1.012031,-0.717836l0.58839,-8.661105l-2.047598,-5.083692l-0.447177,-4.98955l1.129709,-2.000527l5.801528,-4.189339l1.023799,2.365329l2.906648,2.024063l1.671028,-0.223588l3.612716,2.271187l5.978045,1.494511l3.37736,-3.565645l1.82401,-0.223588l0.823746,1.188548l3.37736,0.976728l2.753667,-2.671292l4.34232,-1.223852l-3.906912,-4.71889l1.753403,-2.377097l-0.870818,-3.447967l4.189339,-1.023799l0.694301,-2.047598l1.671028,-0.164749l2.824273,-3.553877l0.647229,-5.354352l-0.953192,-5.519101l0,0l-0.058839,-0.058839z" cs="100,100"/>
  <path transform="rotate(-31.203771591186523 704.0985107421875,273.533172607422) " id="svg_16" svgUid="2" cursor="pointer" aria-label="Ionian Islands  " role="menuitem" class="amcharts-map-area amcharts-map-area-GR-F" stroke-width="1.0127" stroke="#505050" fill="#818181" d="m748.010649,339.50509l4.088067,4.789161l4.404053,0.592473l6.053104,2.606883l0.039498,2.350145l6.823319,3.614088l-0.098746,1.77742l-6.359215,-2.350145l-2.300772,0.908459l-1.579929,2.083532l-0.266613,1.184947l1.589804,1.10595l0.10862,1.194821l-1.77742,0.740592l-1.886041,-0.859087l-0.266613,-1.194821l-2.369894,-1.1257l-1.1257,-1.846542l-4.858282,-2.745127l0.167867,-1.362689l-1.984786,-1.046703l0.414731,-1.214571l-2.211901,-0.523352l-1.747797,-1.915664l-0.701094,-3.633837l1.10595,-2.172403l3.772081,-2.932744l0.967707,1.974912zm-15.147572,-43.882535l1.412062,0.56285l1.45156,4.660791l1.145449,0.306111l1.866291,5.983982l-1.787295,1.807044l2.132904,3.179608l1.402187,0.572724l2.063783,-2.142779l-0.128369,1.421936l1.550306,-0.118495l1.362689,2.883371l8.265005,8.630363l-1.461435,4.522547l-1.619427,-0.938083l-1.520682,0.631972l-3.051238,-0.691219l-6.220971,-3.702959l-3.090737,1.273818l-0.197491,0.918334l-3.910325,-0.928208l-1.895915,-1.45156l0.444355,-1.076327l-1.698424,-1.866291l0.355484,-1.056578l-1.056578,-1.56018l2.636507,2.063783l0.434481,-0.385108l-5.490254,-8.60074l-1.402187,0.947958l1.500933,3.268479l0.631972,5.105146l-3.949823,0.987456l-0.572724,-1.382438l-2.715503,-1.007205l0.661595,-6.467835l1.263943,0.069122l0.760341,-1.352814l0.069122,-5.954358l0.938083,1.56018l2.024284,-1.639177l0.710968,2.350145l1.550306,0.10862l0.622097,1.175072l3.673335,-2.547636l0.730717,-1.589804l-0.740592,-1.194821l0.641846,-0.602348l-1.570055,-6.47771l1.77742,-0.256739zm5.845738,-2.300772l2.073657,0.99733l-0.770216,2.300772l1.945288,-0.177742l-0.059247,0.967707l1.510807,1.076327l-1.836668,5.421132l1.846542,-0.651721l0.197491,-1.036829l0.552975,-0.404857l1.491058,0.404857l1.026954,4.562046l1.757671,0.720843l-2.982116,1.461435l-2.320521,-1.56018l-4.492924,-9.262335l-2.044033,-1.915664l0.098746,-1.1257l2.132904,0.681344l-0.128369,-2.458765zm7.563911,-13.419524l0.641846,-0.21724l0,0.947958l1.283693,-0.335735l-0.128369,1.293567l-1.520682,0.849212l-1.155323,-0.365359l-0.533226,1.550306l-1.471309,-1.076327l0.078996,-2.202026l1.728048,0.720843l1.076327,-1.165198zm-7.623159,-13.863879l1.836668,0.32586l-0.720843,1.194821l1.510807,2.024284l-0.157993,3.475844l1.23432,2.527887l-0.99733,1.90579l1.402187,5.727243l-0.701094,0.750466l-1.45156,-1.352814l0.552975,1.6688l-1.767546,1.214571l-1.293567,-0.622097l-0.78009,2.439016l-0.651721,-1.757671l-1.254069,0.207366l-1.639177,-2.597009l-3.130235,5.500129l-0.157993,-9.321583l2.241525,-7.771277l2.843873,-4.078192l1.807044,0.088871l1.273818,-1.550306zm-35.143551,-23.758186l2.429141,2.083532l-2.715503,-0.740592l-0.592473,-0.760341l0.878836,-0.582599zm-7.129431,-6.69495l2.656256,1.293567l3.051238,3.969572l-2.281023,-0.118495l-2.764876,-1.728048l-1.34294,-1.876166l-0.118495,-1.45156l0.799839,-0.088871zm-24.33091,-44.840367l7.36642,3.406722l-1.461435,3.179608l-3.860952,1.194821l-2.142779,1.866291l0.365359,1.491058l1.540431,0.928208l-1.323191,0.375233l0.592473,0.918334l6.053104,1.807044l-1.096076,4.394178l2.034159,6.487584l0.710968,0.99733l4.384304,1.086201l1.441685,1.895915l2.439016,-0.750466l1.066452,-1.491058l4.186812,6.428337l-0.543101,1.45156l-8.028015,-2.893245l-3.031489,-1.984786l-3.386973,-0.483853l-2.893245,-1.866291l-1.886041,-3.22898l-0.513477,-3.939949l-1.589804,-2.142779l-6.527083,-3.930074l-1.688549,-2.310647l0.34561,-1.589804l-3.880701,-0.473979l0.355484,-2.537761l-1.23432,-0.720843l-0.760341,0.898585l-1.145449,-3.456095l1.728048,-3.495593l2.972242,0.799839l2.330396,-0.730717l3.219106,0.631972l3.860952,-2.211901zm-31.766452,-3.100611l2.211901,-0.236989l-1.372564,1.807044l-2.34027,-0.187617l0.098746,-2.063783l1.402187,0.681344z" cs="100,100"/>
  <path transform="rotate(-2.931119680404663 776.2188720703141,471.9116516113278) " id="svg_18" svgUid="2" cursor="pointer" aria-label="South Aegean  " role="menuitem" class="amcharts-map-area amcharts-map-area-GR-L" stroke-width="1.0127" stroke="#505050" fill="#818181" d="m801.798954,568.129355l0.819589,-0.088871l-0.691219,1.787295l-2.893246,1.23432l-1.570055,2.330395l-1.826793,0.12837l-1.352814,1.767545l-3.021615,-1.550305l3.584465,-4.818784l2.113155,0.404857l4.838533,-1.194822zm10.960759,-30.936989l0.928209,-0.019749l0.394982,1.372563l-1.21457,3.130235l1.036828,3.475844l-1.579929,2.251399l0.335735,1.273818l-1.945288,2.024285l0.375233,2.518012l-0.799839,0.622097l5.539627,5.233516l-1.145449,1.421936l0.543101,1.421936l2.824123,1.293567l-0.65172,1.747797l-1.846543,-0.681344l-0.622097,1.471309l-1.283692,0.009874l-1.224446,2.912995l1.333066,0.21724l-2.152654,1.935413l0.56285,-0.839337l-1.036829,-1.392313l-1.530556,0.098746l-2.44889,-1.510807l2.360019,-3.317852l-1.283693,-1.925539l0.049373,-2.88337l-2.55751,-1.560181l-1.372564,-2.251399l3.623963,-3.604213l-0.34561,-3.386974l2.448891,-2.90312l-0.799839,-6.122225l1.688549,0.088871l1.797169,-2.12303zm0.157993,-5.776617l0.740592,0.108621l0.296237,5.658121l-3.762207,-2.389643l1.175073,-0.207366l0.641846,-2.952492l0.908459,-0.217241zm164.292892,-20.331714l-0.207366,1.244194l1.145449,0.543101l-2.814249,1.609553l0.513477,-2.369894l1.362689,-1.026954zm-141.818398,-6.201222l1.579929,0.385107l0.483853,1.303442l-2.912994,1.570055l-0.10862,-0.819589l-1.915665,-0.187616l-2.498263,0.928208l-0.21724,-2.547636l5.589,-0.631971zm8.14651,-2.853747l-0.99733,3.110485l-0.701094,-1.066452l0.957832,-0.839337l-1.728048,0.592473l-0.029623,-0.710968l0.928208,-1.135574l1.570055,0.049373zm-74.868897,-6.132101l1.718173,1.313316l-0.750466,1.45156l-0.730718,-0.315985l-0.967706,-0.533227l-0.651721,-1.510807l1.382438,-0.404857zm-64.164876,-3.021614l6.645577,3.732582l-5.411257,0.710969l-3.011741,-0.710969l-0.918333,-1.194821l2.695754,-2.537761zm172.439402,-3.9202l1.007205,0.868961l-0.385108,2.68588l1.491058,1.313316l-2.281023,2.853747l0.631972,2.241525l-2.320521,3.298102l0.355484,2.241525l-1.678675,1.797169l-0.296237,3.24873l-2.202026,0.227115l-1.639177,3.357349l-0.009874,2.508138l2.281023,0.306111l-1.412062,2.310647l1.026954,1.619427l-4.57192,-1.807044l-4.779286,2.389643l-4.828659,9.153715l-4.13744,2.922869l-3.238855,0.977581l1.224446,-1.175072l-2.745127,-1.728048l-1.431811,-2.034158l1.688549,-5.648247l-0.750466,-6.36909l-0.740592,-0.878836l-2.537762,-0.227115l-0.049372,-1.797169l-2.320521,-1.589804l5.213766,-2.833998l1.816919,-6.457961l2.439016,-0.78009l3.367224,-4.058443l14.604471,-6.655452l4.700289,-0.128369l1.974912,-2.774751l0.533226,0.622097zm-202.003828,0.859087l-0.789965,0.513477l0.691219,1.856416l-2.10328,-0.799839l0.533226,-2.962367l1.6688,1.392313zm4.80891,-1.649052l4.729913,4.334931l0.296236,3.485719l-2.794499,2.23165l-6.536958,-2.004535l0.740592,-0.691219l3.446221,0.32586l1.115825,-2.458764l-1.77742,-2.883371l0.059247,-1.787295l-3.35735,-0.335735l-0.375233,-1.1257l1.293567,-0.770215l2.379769,0.582599l0.78009,1.096075zm135.903538,-1.579929l2.893245,3.643712l-0.069122,1.649051l1.283693,-0.503602l1.461434,1.283692l0.552976,-1.135574l0.99733,0.740592l-3.831328,2.468639l-1.589804,-2.073657l-0.641846,0.760341l-1.086202,-3.061113l-2.656256,1.530557l-0.187616,-0.898585l-1.392313,-0.286362l-0.019749,-3.386973l2.271148,1.017079l0.552975,-1.619428l1.461435,-0.128369zm35.1633,-3.841203l0.819588,0.572725l-1.362689,0.365358l0.543101,-0.938083zm-49.915889,-6.931939l1.175072,-0.059248l2.172403,2.606884l-1.165198,2.221775l-5.13477,-1.135574l0.177742,-3.080862l2.774751,-0.552975zm46.607912,-1.737922l-1.244194,1.589803l1.619427,0.503603l2.23165,-1.303442l-0.947957,1.362689l1.500933,-0.32586l0.355484,0.681344l0.029623,1.6688l-1.21457,0.414732l1.333065,0.414731l-0.967707,0.770216l1.254069,1.431811l-2.12303,1.007205l-1.204696,-0.355484l1.273818,-1.491059l-1.866291,-0.967706l-1.974912,0.552975l0.957832,-1.79717l-3.159858,0.138244l-0.335735,-1.175072l0.365359,-0.651721l0.977581,0.661595l0.5431,-2.093406l2.597009,-1.036828zm-101.619074,-0.187617l4.532422,2.853747l1.708299,2.083532l-1.876166,0.009874l-1.935413,0.582599l-3.821454,-0.43448l-0.710968,1.017079l0.572724,1.639177l-1.204696,0.345609l2.211901,2.350145l-2.942618,0.256739l-1.619428,-1.135575l-0.957832,0.296237l-1.135574,-2.537761l-1.204696,-0.513477l0.701093,-0.483854l0,-1.876165l0.552976,-0.938083l1.45156,0.236989l2.636507,1.945288l2.597008,-1.895915l1.56018,0.868961l-2.695754,-4.048569l1.579929,-0.622097zm102.873143,-1.550306l0.355484,1.412062l-2.024284,0l-0.078997,-0.868961l1.747797,-0.543101zm-210.67369,-0.069121l3.021615,2.241524l2.725378,0.622097l1.34294,1.925539l-0.770216,0.740592l-2.162528,-0.335735l-1.974911,-2.616758l-2.330396,-0.098746l-1.945288,-2.172402l2.093406,-0.306111zm160.066582,-0.888711l0.227114,0.602348l-1.402187,0.157993l-0.375233,2.202027l-0.987456,-2.241525l1.165198,-0.049373l0.582599,-1.224445l0.789965,0.552975zm-139.448505,-3.100611l1.115825,0.246864l-1.757671,2.922869l-4.680541,3.061113l-1.461434,-0.029624l1.797169,-4.35468l2.922869,-1.737922l2.063783,-0.10862zm-52.443776,-4.473174l-0.098746,1.046703l3.169733,1.293567l2.646382,-2.034159l2.537761,0.809714l-0.829463,1.244194l1.56018,3.12036l-0.355484,1.510807l-0.750466,1.007205l-0.829463,-0.394982l-2.942618,1.333065l-2.053908,-0.957832l-0.582599,0.829463l-7.840399,1.076327l0.513477,-4.641042l-0.918334,-0.819589l1.599679,-2.735252l1.481183,1.550305l1.599679,-0.464104l0.789964,2.755002l1.649051,0l0.819589,0.88871l2.12303,-0.740592l-0.918334,-1.846542l-1.500933,0.207366l-2.350145,-2.409392l0.128369,-1.500933l1.352815,-0.128369zm13.547893,-1.165198l2.557511,0.612222l0.138243,2.498263l-2.991991,-0.592473l-1.026954,-2.024284l1.323191,-0.493728zm48.108845,-0.10862l1.876166,1.787295l-0.306111,0.938083l2.616758,0.592473l3.149984,2.616758l-1.392313,1.372563l1.165198,1.925539l-0.375233,1.431811l-1.362689,-0.543101l-0.592474,1.362689l-5.164393,-5.628498l-2.379769,-0.009874l-0.582599,-4.236186l0.730718,-1.283692l2.616757,-0.32586zm-74.977517,-1.066453l0.868962,0.839338l-0.67147,1.836667l-1.570055,-1.017079l-0.375233,-1.471309l1.747796,-0.187617zm21.812899,-3.12036l1.026954,0.99733l1.135574,-0.65172l1.096076,0.938083l-1.599679,3.673335l-2.44889,0.523352l-1.895915,-3.752332l2.68588,-1.728048zm64.076005,-1.570055l0.43448,2.922869l-1.589804,0.572725l-2.577259,-0.602348l2.824123,-3.24873l0.90846,0.355484zm3.327726,-2.132904l1.184947,3.01174l-2.922869,-1.678675l1.737922,-1.333065zm8.511868,-1.184947l1.57993,0.483853l0.957832,2.063783l-5.253265,-0.355484l0.306111,-1.303442l2.409392,-0.88871zm115.344709,0.78009l3.633838,0.424606l1.471309,2.439016l-12.580187,4.088067l-3.416597,3.772081l-5.065648,-0.740592l-3.939948,1.214571l-0.760341,0.819588l1.254069,1.816918l-1.175073,0.997331l0.868961,2.547636l-1.500933,-0.296237l-2.330395,-2.202026l-0.78009,-4.670666l5.24339,-0.631972l4.542296,-5.983982l6.15185,-3.041364l4.759537,-0.533226l2.774751,-1.6688l0.849211,1.649051zm-90.569443,-3.238855l6.092602,3.258604l-2.68588,-0.335735l-4.532422,1.333066l-7.247925,7.484914l-2.666131,0.12837l-1.639176,1.491058l-3.959698,-1.165198l-0.56285,-1.135574l1.184947,0.582599l1.678675,-1.955163l4.413927,0.306112l-0.157993,-1.362689l-0.681344,-0.661596l0.286362,-1.135574l6.734448,-2.577259l2.01441,-1.47131l-1.649051,-0.513477l0.21724,-0.691219l3.159859,-1.579929zm-27.510518,-0.908459l0.612223,1.076327l-2.034159,0.444355l-0.177742,-1.402187l1.599678,-0.118495zm106.339112,-0.701094l0.750467,0.720843l0.839337,-0.740592l1.333065,0.513477l-1.342939,1.313316l1.935413,1.293567l-3.080862,-0.256738l-2.152654,-2.636507l1.718173,-0.207366zm-150.478385,-1.086201l2.991991,0.730717l-2.853747,0.99733l-1.23432,-1.046703l1.096076,-0.681344zm134.343358,-3.436346l1.096076,0.789964l-0.365359,1.254069l-2.518012,-1.718173l1.787295,-0.32586zm-31.420843,0.394982l2.567385,1.115825l-2.537761,-0.572724l-1.194822,0.404857l0.543101,0.533226l-1.362689,-0.197491l-0.493728,-1.362689l2.478514,0.078996zm-128.329752,-2.330396l4.91753,1.589804l4.591669,5.065648l-3.623963,4.107816l-4.11769,-5.983982l1.352814,-1.036828l-1.678675,-0.355484l0.503603,-0.701094l-0.740592,-1.313316l-1.402187,-0.315986l0.197491,-1.056578zm30.660502,-0.5431l0.898584,0.32586l-1.412061,5.796366l1.115825,2.429141l-4.404053,-3.544966l0.691219,-0.118495l-0.602348,-1.886041l3.712834,-3.001865zm127.381794,-2.103281l6.773947,2.202026l0.631972,0.770216l-1.510808,-0.306111l2.498264,1.945287l0.118494,1.046704l2.01441,-0.819589l1.412062,1.431811l-1.204696,2.814249l1.797169,1.01708l-4.769411,-0.434481l0.029624,2.063783l-2.863622,-0.059248l-1.056578,-1.579929l-1.194821,-0.167867l1.184947,-1.658926l-0.770216,-1.313316l0.681345,-2.715504l2.034158,0.404857l-2.221775,-2.172403l-1.836668,0.473979l0.148119,-1.254069l-2.883371,-1.540431l0.987455,-0.148118zm-75.372499,-4.216436l-0.829463,0.43448l1.728048,1.096076l-0.572724,1.757672l-2.271149,-0.217241l-1.816918,-2.597008l1.441685,0.839337l0.898585,-1.658926l1.421936,0.34561zm-42.707462,-1.629302l0.750466,0.513477l-1.589803,1.362689l0.829462,0.572724l2.873497,-0.394982l-0.286362,-2.172403l2.192151,0.631972l-2.053908,4.986651l1.79717,2.389643l-1.708299,3.24873l-3.930074,2.508138l-3.031489,-0.651721l-0.928208,-1.096076l-0.859087,0.533226l-1.6688,-2.024284l0.128369,-3.57459l3.159859,-2.01441l-1.826794,-0.404857l1.599679,-2.063782l4.552171,-2.350145zm21.378417,-3.831329l4.068318,4.226311l1.056578,2.261274l-0.207366,2.261274l-0.306111,1.036828l-1.244194,9.133966l-2.90312,0.207366l-3.79183,2.982116l-1.925539,-1.23432l-0.335735,-2.764876l-2.784625,-0.67147l0.177742,-1.441685l-2.290898,-2.350145l0.849212,-1.254069l-2.261274,-2.567385l-1.224445,-0.197491l0.582599,-1.283692l1.945288,0.157993l-0.276488,-1.461435l2.695755,-2.044033l3.377098,-1.096076l1.816919,-3.070988l2.982116,-0.829463zm89.344999,-0.138243l3.436346,1.026954l-1.10595,1.945287l2.784625,0.582599l-0.99733,0.888711l2.409392,2.034158l0.088871,1.57993l-3.189483,-0.049373l-0.987455,-0.947958l-0.572725,-0.10862l-1.382438,-1.718173l-0.819588,-1.293567l-0.306111,-0.987456l-2.320521,-0.770215l0.701093,-1.6688l1.698424,0.256738l-0.582599,-0.720843l1.145449,-0.049372zm-162.377228,-0.34561l2.527887,0.878836l-0.296237,2.587134l0.849212,0.32586l0.217241,2.024285l-1.500933,-1.165198l0.315986,2.053908l-1.461435,0.819588l-0.67147,-0.207366l0.523352,-0.967706l-2.409392,0.069122l-0.059248,-1.135575l-3.149984,1.23432l1.184947,-5.055773l1.293567,-1.165198l1.155324,0.355484l-0.148119,-0.750467l1.629302,0.098746zm180.882149,-7.771277l-0.157993,1.105951l1.214571,0.88871l-1.076327,0.414731l-0.78009,-1.649051l0.799839,-0.760341zm-25.89109,-1.77742l2.606883,1.718173l2.044033,-0.197491l0.069122,2.518012l-1.441685,-0.276488l-0.286362,-1.481183l-0.977581,0.582598l-2.290898,-0.878835l-0.612222,-1.34294l0.947957,0.10862l-0.059247,-0.750466zm-11.622355,-4.009071l3.653587,3.080862l-3.426472,-0.878835l-0.651721,0.740591l-0.019749,1.431811l1.728048,1.540431l-0.928209,0.839338l1.224446,1.816918l-1.086202,0.059248l-1.244194,-0.622097l0.819588,-1.165198l-1.974911,0.256738l0.207365,-5.253264l-0.770215,-1.550306l1.441685,0.730717l1.026954,-1.026954zm11.020007,-1.45156l2.498263,1.925539l-0.957832,0.88871l-0.306112,-1.046703l-1.935413,-1.017079l-0.256738,-1.757672l0.957832,1.007205zm-106.121872,-3.189482l1.530556,1.500933l0.128369,2.172403l1.115825,-0.651721l0.23699,0.661595l-0.207366,1.313316l-0.878836,-0.740591l-1.342939,1.402187l0.454229,-1.935414l-1.026954,-0.523351l-1.530556,-2.597009l1.461434,0.543101l0.059248,-1.145449zm122.928369,-2.814249l0.859087,0.799839l-0.730718,1.500933l-0.977581,-0.99733l-0.839337,1.076327l-1.086202,-2.162529l-1.086201,-0.236989l3.860952,0.019749zm-178.196269,-0.43448l-0.503602,3.021614l1.224445,0.138244l-0.049373,0.938083l1.90579,0.078997l1.43181,2.458764l-0.740591,0.641847l-0.325861,-0.849212l-0.849212,0.138244l-0.444355,3.920199l-2.7945,2.972242l-2.172402,0.582599l-0.167868,-2.498263l1.886041,-2.616758l-0.967707,-0.898585l0.306111,-2.784625l-2.113155,0.256738l-0.227115,-0.908459l2.083532,-3.179608l2.518012,-1.412061zm63.434159,-1.45156l1.036828,0.345609l1.204697,1.333065l0.631971,-1.392312l1.224445,0.069122l0.651721,1.175072l1.313316,-0.167867l0.10862,0.878835l2.211901,-0.276487l0.148119,2.290897l-2.518012,0.266613l-1.362689,2.23165l-0.997331,-0.720843l-2.429141,1.491059l-2.093406,-1.471309l-0.701094,0.177742l-0.967706,-0.90846l0.365358,-0.67147l1.293567,1.026954l0.227115,-1.6688l-1.876166,-2.764876l2.527887,-1.244194zm-32.467546,-1.145449l3.258604,0.957832l1.214571,1.283693l0.681344,2.221775l-0.770215,1.90579l1.184947,0.167867l1.678674,2.300772l-6.290093,2.972242l0.177742,-2.350145l-2.12303,-0.315986l1.333066,-1.915664l-1.1257,-0.552975l2.468639,-1.34294l-0.454229,-3.673335l-1.895915,-1.392313l0.661595,-0.266613zm-11.563107,-9.222837l0.878836,3.219106l-4.325057,-1.204696l1.23432,-1.856417l2.211901,-0.157993zm17.448343,-3.268479l0.809714,-0.118494l2.12303,0.612222l0.918334,-0.582599l1.026954,2.261274l4.018945,-0.394982l2.34027,0.789964l2.439016,0.148119l5.213766,2.290897l-0.65172,5.687745l-3.100612,1.056578l-3.584464,-2.083532l-1.807044,0.167868l-1.135574,-2.34027l-2.932744,-1.066453l-6.991187,-5.11502l-0.078996,-1.01708l1.392312,-0.296237zm-45.185976,-0.740591l0.770216,-0.059248l2.221775,0.78009l1.579929,2.290898l-2.972241,5.598874l-5.036025,4.028819l-0.296237,-4.33493l-1.145448,-0.355484l0.622097,-1.352815l-0.750467,-0.681344l1.421937,-3.969573l1.481183,0.069122l0.444356,-1.797169l1.658925,-0.21724zm-14.5156,-4.37443l0.266613,1.520682l-2.379768,5.954359l-0.444355,-2.883371l1.619427,-5.766742l0.938083,1.175072zm42.193986,-19.936732l0.32586,2.162529l2.814249,0.671469l1.096076,3.969573l8.324252,0.928208l0.296237,2.12303l-1.23432,2.202026l3.515343,2.182278l-1.491059,3.436346l3.367225,-0.039498l-2.695755,5.055773l0.859087,1.747797l-3.939949,-2.745127l-2.024284,-3.712834l-2.784625,-0.770215l-2.833998,-3.456096l-1.421937,0.286363l0.078997,-1.244195l-2.695755,-3.268478l-3.969572,0.157993l-2.350144,-6.981313l3.79183,-2.389643l2.972242,-0.315986z" cs="100,100"/>
  <path stroke="#505050" transform="rotate(16.918846130371094 515.5462036132815,231.75080871582017) " id="svg_19" cursor="pointer" svgUid="2" aria-label="Thessaly  " role="menuitem" class="amcharts-map-area amcharts-map-area-GR-E" stroke-width="1.012704" fill="#818181" d="m622.985049,272.14378l-0.063283,2.035904l1.001982,0.831416l-0.917605,0.628892l-1.339492,-2.888639l1.318398,-0.607574zm-49.782706,-9.113603l3.891911,1.748106l-0.590642,1.524264l-1.687549,0.671529l-0.896511,2.792707l-1.350039,-1.18317l-1.255115,0.447686l-1.750832,-0.991304l-0.938699,0.618233l-0.442982,-1.513604l3.839175,-1.769425l-0.210944,-1.460308l1.392228,-0.884712zm10.4839,-0.25582l3.807533,3.346984l5.748215,2.206451l0.864869,2.195792l0.812133,-0.895372l3.702061,0.65021l-1.560983,2.856662l-3.185249,1.609537l-1.90904,-1.748106l-2.911023,0.010659l-0.706661,-2.771388l-5.526724,-6.224964l0.864869,-1.236465zm27.327752,-1.545582l0.537906,1.70547l0.812133,-0.298457l-0.042189,4.018513l-2.183267,0.095933l-1.381681,-1.470968l2.795004,-1.055259l-1.466058,-2.131837l0.453529,-1.737447l0.474623,0.874053zm-2.352022,-4.924544l0.464076,1.097896l2.014512,0.724825l-3.343457,6.907152l-4.092307,4.082468l-2.573513,-0.26648l-0.07383,-1.215147l3.417287,-1.939972l-1.212926,-2.195792l2.911023,-2.35568l2.489135,-4.83927zm8.026407,-6.757923l2.09889,1.662833l0.010547,3.410939l-1.698097,1.18317l-1.582078,-0.852735l1.16019,-0.991304l-1.951229,-0.596914l0.495718,-2.547545l1.466058,-1.268443zm19.111496,-0.021318l0,2.814025l-0.769944,0.053296l-0.126566,-2.163815l0.896511,-0.703506zm-11.802298,-3.208415l0.727756,0.938008l-1.940682,2.846002l-0.07383,-0.746143l-1.603172,-0.085273l1.508247,-0.969986l-0.284774,-1.43899l1.666455,-0.543618zm-160.464849,-65.873765l6.66582,0.106592l0.590642,0.895372l-1.582078,2.536886l1.360587,-0.12791l1.001982,3.698737l1.677002,-0.65021l2.826645,-5.063113l2.531324,-0.65021l2.489135,1.950631l-0.158208,2.419635l1.729738,-0.810098l-1.139096,5.926507l2.678985,2.472931l1.350039,-0.820757l1.065266,1.215147l1.434417,-0.543618l4.450911,2.600841l1.286756,3.506872l2.341475,1.780084l5.368516,-0.810098l1.466058,-1.151192l2.257097,0.543618l1.255115,1.598878l1.529342,-1.321739l-1.360587,-0.91669l0,0l2.974306,1.737447l0.495718,3.240392l2.341475,3.741374l9.228786,5.649368l4.936082,13.281345l3.586042,5.851893l3.860269,2.014586l1.42387,-0.223843l1.434417,1.886676l2.130531,0.053296l3.691514,2.302384l1.972323,3.315007l6.085725,5.254978l1.740285,2.888639l5.357969,3.975876l1.487153,3.954558l2.58406,2.121178l3.121966,4.796633l-0.801586,2.313043l-2.003965,1.652174l-6.866216,1.268443l-0.210944,0.756802l1.4977,0.543618l-1.455511,1.31108l-1.255115,-0.724825l-4.693497,1.673492l-3.638778,-0.074614l-1.76138,-0.969986l0.917605,-3.634782l1.803568,-0.234502l0.885963,-1.449649l0.369151,1.907994l0.896511,0.149229l-1.729738,3.208415l1.08636,-0.245161l4.798968,-2.249088l0.052736,-2.707433l2.383663,1.076578l0.021094,-3.442917l-2.362569,-1.726788l-2.594607,-5.36157l-3.480571,-2.718092l-7.562331,-0.91669l-2.499682,-2.973913l-4.714591,-0.78878l-0.26368,0.906031l1.244568,0.500982l-0.843775,2.067882l1.729738,1.545582l-9.028389,1.918653l0.548454,5.169705l3.311816,5.510799l1.624266,-1.662833l-0.854322,-1.353717l1.518794,-0.234502l-0.042189,1.69481l0.980888,-0.191865l0.980888,1.215147l1.212926,3.656101l1.413323,-0.021318l-0.738303,-1.577559l3.913005,2.771388l0.242585,1.929313l1.402775,0.746143l-0.759397,1.129874l0.780492,1.502945l-2.51023,0.330435l0.189849,2.217111l5.09429,-2.654137l2.415305,-0.12791l-0.506265,1.971949l-1.930135,-0.117251l-0.601189,0.927349l0,0l-6.022442,2.973913l-3.522759,-0.596914l-1.98287,-2.408976l-8.047501,0.554278l-0.896511,-1.534923l-2.773909,0.031978l-2.025059,-1.417672l0,-1.151192l-1.487153,-0.511641l-4.672402,1.31108l-1.096907,-0.682188l-7.00333,0.042637l0.527359,-1.577559l-1.413323,-4.199719l0.717208,-1.353717l-4.366534,-0.874053l-0.928152,-3.901262l-2.373116,-0.863394l-1.592625,-2.526227l-7.804916,-0.778121l-2.035606,-3.059186l-1.170737,0.031978l0.031642,2.270406l-1.402775,0.874053l-2.573513,5.212342l-2.257097,1.236465l0.727756,3.229733l-3.174702,2.046564l-2.963759,-0.277139l-1.90904,1.865357l1.118001,2.206451l-0.580095,0.437027l-6.528707,1.876017l-2.446947,-6.587377l-4.535289,-1.982608l-1.4977,-2.302384l-1.57153,-0.191865l-1.793021,2.899298l-2.151625,1.097896l-3.617684,-0.820757l-0.611737,-2.35568l0.896511,-2.856662l-3.25908,-0.724825l-1.118001,-2.22777l1.023077,-1.215147l-1.845757,-1.918653l-3.775892,-0.234502l-1.212926,1.119214l-2.193814,0.074614l-2.035606,2.078541l-3.385646,-1.726788l-3.06923,2.792707l-1.212926,-0.159888l0.189849,1.343057l-3.290721,2.057223l0,0l-0.105472,-0.063955l0,0l-1.972323,-1.055259l0,0l-1.518794,-1.0446l-0.348057,-1.534923l1.054718,-2.110519l3.375099,-2.515568l0.685567,-2.654137l-1.582078,-0.639551l-0.189849,-2.09986l-2.594607,-2.558204l-4.925535,0.149229l-3.237985,-1.716129l-0.759397,-3.219074l-5.516177,-4.135764l-0.421887,-0.799439l1.539889,-0.500982l-0.253132,-1.598878l-2.647343,-0.159888l1.402775,-2.387658l-2.088342,-6.768583l-2.373116,-0.671529l-0.179302,-2.579523l-2.763362,-2.462272l2.594607,-1.876017l0.316416,-1.364376l2.51023,-0.063955l2.816098,2.142496l1.044171,-0.39439l0.348057,-0.874053l-2.499682,-2.707433l-0.632831,-5.48948l1.845757,-0.138569l0.295321,-3.911921l2.468041,-0.373071l0,0l1.392228,-0.959327l2.721173,2.696774l2.531324,0.383731l2.65789,-1.662833l0.179302,-1.790743l-1.297304,-0.181206l1.128549,-1.662833l2.383663,-0.447686l1.803568,0.959327l7.351387,-0.469004l3.185249,3.485554l2.647343,-1.588219l2.204361,1.321739l3.164155,-1.108555l4.334892,1.96129l3.06923,-1.375035l6.085725,1.492286l0.506265,-1.161851l-1.371134,-4.999158l-3.480571,-3.197756l2.468041,-0.692847l0.400793,-1.609537l2.58406,-0.607574l3.111419,-4.348948l-0.421887,-1.407012l1.824663,-0.149229l5.157573,-6.811219l-0.854322,-2.270406l0.474623,-0.596914l1.444964,0.756802l-0.506265,-1.929313l0,0l0.253132,-0.138569z" cs="100,100"/>
  <path stroke="#505050" transform="rotate(-13.782248497009277 358.9000244140621,262.9058532714843) " id="svg_9" svgUid="2" aria-label="Epirus  " role="menuitem" class="amcharts-map-area amcharts-map-area-GR-D" stroke-width="1.012704" fill="#818181" d="m351.182607,153.139479l13.483052,2.250495l6.930727,5.616279l11.889782,14.45893l-1.553439,2.071252l2.927635,0.318654l1.254701,5.915017l-6.173923,3.266205l4.998886,4.819643l3.883597,7.269297l5.75569,-1.832261l4.660316,1.712766l-1.055542,8.842652l-5.954849,0.876299l7.926521,7.149802l3.903513,11.132978l9.997773,2.967466l1.852177,-3.266205l6.791316,-1.573355l6.253587,1.852177l3.306036,3.206457l0,0l-4.660316,0.716972l-0.537729,7.309129l-3.485279,0.258906l1.194953,10.256679l4.700148,5.058634l-0.657224,1.633102l-1.951756,0.736888l-5.317541,-4.003092l-4.73998,0.139411l-0.617392,2.529317l-4.879391,3.505195l5.217961,4.600569l0.33857,4.819643l4.500989,1.254701l3.943345,12.666501l-2.668728,4.461158l4.998886,0.298738l0.477981,2.967466l-2.887803,0.936046l0.796635,1.493691l10.39609,7.747278l1.453859,6.014596l6.134092,3.206457l9.300717,-0.278822l4.899307,4.759896l0.33857,3.923429l3.007298,1.214869l-1.294532,4.959055l-6.392998,4.700148l-1.991588,3.963261l0.657224,2.867887l2.847971,1.951756l0,0l-13.244062,9.440128l-5.636195,-2.210663l-2.748392,1.633102l-2.668728,-2.489485l-2.091168,1.892009l-7.946437,0.936046l-2.489485,3.086962l1.951756,2.230579l-3.3857,1.155121l3.505195,4.879391l0,0l-5.596363,0.756804l-3.784018,3.465363l2.051336,2.927635l-6.273503,-1.812345l-2.150915,1.254701l-3.485279,-4.779812l-2.648812,0.298738l-4.202251,-4.042924l-0.179243,-3.465363l-1.951756,-0.477981l-2.409822,1.593271l0.816551,2.788223l-3.525111,0.179243l1.613186,2.947551l-2.170831,0.597476l-0.258906,-4.560737l-2.489485,0.697056l-1.075458,-2.847971l-2.011504,1.414028l-1.712766,-1.453859l3.72427,-2.608981l-4.879391,-4.859475l-2.350074,2.071252l3.04713,0.836467l-2.071252,1.35428l-0.916131,0.816551l0.298738,1.294532l-0.159327,4.720064l-3.72427,5.934933l-2.170831,0l13.841538,8.822736l-10.49567,-1.931841l0.517813,3.266205l-4.281915,0.059748l-4.700148,-7.249381l1.832261,-2.828055l-1.772514,-4.899307l-6.552325,-6.253587l-13.044903,-8.12568l-6.950643,-7.846858l-8.882483,-4.839559l-0.896215,-9.201138l-1.971672,1.035626l-3.126793,-1.911925l-1.01571,1.334364l-5.536615,-1.852177l-0.995794,1.194953l-6.592157,-0.936046l-8.145596,-6.651905l-1.812345,-8.245175l-2.788223,-2.768308l-4.481073,-0.736888l0.955962,-1.135205l-4.261999,-5.775606l8.424418,-0.238991l-9.240969,-6.950643l1.832261,-0.896215l4.162419,1.792429l0.517813,-3.525111l-4.261999,-1.931841l-8.225259,0.975878l-2.569149,-1.69285l6.134092,0.577561l-4.899307,-2.509401l-4.162419,1.115289l3.684438,-3.784018l-0.458065,-6.392998l2.529317,-2.130999l-0.438149,-2.728476l-6.512493,-1.991588l-4.182335,-3.445448l-1.573355,1.414028l-6.213755,-4.859475l-4.779812,0.796635l-2.350074,-2.210663l2.748392,-1.433944l8.683325,2.927635l5.735774,4.182335l8.70324,1.573355l5.038718,-0.477981l-1.414028,-2.70856l1.493691,-3.007298l4.819643,2.170831l-0.199159,-3.803933l7.090054,-5.636195l-4.759896,-5.138298l1.712766,-2.867887l-2.828055,-3.624691l1.852177,-1.772514l11.332137,4.899307l3.963261,-4.899307l-0.159327,-3.843765l-8.603661,-10.814324l-3.664522,-2.190747l0.577561,-3.584859l-5.357372,-6.910811l11.212642,-0.756804l1.513607,-8.80282l5.198045,-3.604775l5.397204,1.573355l2.808139,-3.04713l5.456952,2.887803l3.266205,-0.079664l3.883597,-0.736888l3.146709,-3.306036l7.129886,-0.716972l-0.796635,-4.919223l2.03142,-3.803933l-2.847971,-2.170831l-0.019916,-3.784018l3.72427,-1.573355l2.051336,-4.003092l-2.947551,-8.006185l3.106878,-5.516699l3.604775,-1.553439l-1.01571,-2.290326l2.270411,-2.051336z" cs="100,100"/>
  <path stroke="#505050" transform="rotate(169.8549346923828 565.5902099609375,508.2565612792968) " id="svg_13" svgUid="2" cursor="pointer" aria-label="Attica  " role="menuitem" class="amcharts-map-area amcharts-map-area-GR-I" stroke-width="1.012704" fill="#818181" d="m563.303613,593.953944l0.372238,-0.715958l1.616577,0.752209l1.223068,4.223243l-3.094894,-2.301939l-2.010086,-3.65229l1.893097,1.694735zm-30.555431,-35.68006l3.052352,4.241369l4.902908,2.129747l4.711471,3.280717l-0.659393,1.71286l-2.818374,0.135941l0.329697,6.271425l-3.818099,-1.078468l-0.616852,1.015028l-1.180527,-1.35035l-2.733291,-0.444075l-2.892822,-2.990709l0.499863,-0.915338l-1.403869,-1.359413l1.776108,-1.241597l-1.12735,-1.35035l0.521133,-1.332225l-2.754562,-2.446943l1.733566,-4.051051l2.478042,-0.226569zm27.992306,-84.057038l0.212707,1.885053l0.542404,-0.444075l2.680114,1.259723l-1.765472,1.232534l-3.201248,-0.335322l-2.605667,-0.761271l0.021271,-0.670644l3.711746,-0.498451l-0.404144,-1.332225l0.808288,-0.335322zm-8.295592,-5.908915l2.541855,1.984743l-1.542129,3.643227l-0.755112,0.634393l3.467132,1.87599l-2.488678,0.52564l7.349044,2.347253l0.148895,0.743146l3.254425,1.377539l0.595581,1.323162l-1.850555,1.078468l-5.434676,0.815648l0,0l1.648483,-3.643227l-2.297241,-0.516577l-1.403869,0.897213l-4.222244,-0.235632l-0.457321,-0.870024l-2.329147,0.154067l-0.967819,-1.87599l-9.688826,-2.111622l-0.999725,-2.048182l1.914367,-3.036022l0,0l3.445861,0.851899l2.265335,2.048182l4.96672,1.71286l2.467407,-1.431915l-3.116165,-3.443846l-2.286606,-0.779397l1.350693,-1.450041l4.424316,-0.570953zm-3.296966,-5.057016l1.116714,0.036251l0.701935,1.223472l-2.201523,1.440978l-1.26561,-0.199381l0.57431,-2.184124l1.074173,-0.317196zm9.784545,-4.413561l5.870727,0.616267l-0.627487,1.377539l-1.382599,0.217506l-0.265884,3.543537l-3.201248,1.305036l-2.509948,-1.024091l1.28688,-0.734083l-0.393509,-0.761271l-2.499313,-1.323162l-1.648483,-2.410692l5.370864,-0.806585zm-2.27597,-16.367333l3.201248,1.051279l-0.106354,1.033154l0.191437,0.507514l-0.13826,0.580016l1.765472,0.326259l-0.446686,0.534702l-0.265884,0.398761l0.744476,1.069405l-0.861465,1.005966l-1.499588,-0.145004l0.329697,1.232534l-2.041992,-0.280945l-0.244614,0.969715l-2.967269,0.924401l-3.350143,-1.486292l-0.063812,-2.474132l4.743377,0.416887l2.031357,-2.836642l-5.658019,0.815648l-0.57431,-0.416887l2.403595,-0.996903l-2.669479,-0.607204l4.222244,0l-0.467956,-1.060342l1.722931,-0.561891zm14.496016,-23.844104l2.669479,-0.253757l1.510223,1.214409l1.542129,-0.480326l2.041992,1.205346l9.401671,1.957555l9.890898,6.062982l-0.946548,1.241597l1.871826,1.422852l-6.82791,3.924172l2.052627,2.782265l0.233978,2.474132l2.807739,2.927269l-1.467682,0.770334l0.98909,2.736952l-1.180527,1.25066l2.41423,0.199381l1.350693,1.450041l-2.722656,0.915338l1.499588,1.386601l1.308151,-0.407824l1.201797,1.314099l-0.457321,2.528508l3.148071,1.839739l0.329697,1.141907l-0.701935,1.631296l0.659393,0.969715l-1.925003,0.770334l1.935638,3.625101l-1.371963,0.290008l-1.382599,2.084433l-7.221419,-1.522543l-0.042541,-3.534474l-2.616302,0.135941l-1.212433,-3.842607l-1.233703,-0.081565l-1.70166,-1.821613l-4.094619,-1.549731l-1.095444,1.522543l-0.723205,0.208443l-0.797653,-1.160032l-0.43605,0.16313l-1.318786,-0.217506l0.818924,-1.486292l-2.382324,-1.015028l0.733841,-0.761271l-1.882461,-0.815648l-1.063537,-2.419755l-3.073623,-1.7763l0.467956,-0.743146l-3.062988,0.072502l-1.074173,0.906275l-0.787018,-0.534702l-0.13826,-0.36251l-1.223068,-0.634393l0.170166,-0.969715l-4.200973,0.172192l-0.41478,-1.314099l1.318786,-0.860962l0.71257,-0.353447l1.297516,-0.88815l-0.595581,-1.821613l-1.669754,-0.806585l-2.424865,0.833773l-1.627212,-0.879087l-2.339782,1.404727l-2.722656,0.054377l-2.371689,2.619136l-1.967544,0.561891l2.584396,0.761271l-13.315489,-0.489389l-4.424316,1.694735l0,0l-1.159256,-1.395664l-4.934814,-1.540668l1.371963,-2.202249l-1.116714,-0.425949l-0.116989,-2.265688l0,0l6.859817,-2.736952l-0.085083,-1.268785l-2.82901,-0.598142l-0.521133,-1.259723l3.658569,-0.52564l-3.286331,-1.187221l-4.349868,-0.072502l0,0l6.96617,-1.576919l5.073074,0.344385l0.723205,-0.98784l-1.052902,-2.918207l2.148346,-1.622233l4.381774,-0.516577l1.233703,1.141907l-0.287155,1.386601l-1.457046,0.380636l0.627487,1.141907l5.966445,0.453138l1.669754,3.516348l2.914093,0.416887l1.063537,1.25066l3.413955,-0.326259l0.872101,-1.295974l3.520309,-1.042217l0.744476,-2.247563l-1.169891,-5.111393l1.648483,-3.271654l1.722931,-0.326259l-0.074448,-1.060342l0,0l3.137435,0.326259z" cs="100,100"/>
  <path stroke="#505050" id="svg_6" svgUid="2" aria-label="East Macedonia and Thrace  " role="menuitem" class="amcharts-map-area amcharts-map-area-GR-A" stroke-width="1.012704" fill="#818181" d="m660.295631,153.800172l3.291588,1.16699l2.20346,2.790629l0.197223,4.414267l-4.2369,2.765259l-2.019838,-0.177585l-6.127523,-8.029399l1.196941,0.367856l2.441488,-3.285331l3.05356,0l0,-0.012685zm-46.286261,-28.89569l1.815814,1.7378l0.986116,-0.849873l1.264949,2.917475l2.380281,1.991494l-1.18334,1.458738l0.224426,1.319206l1.054124,0.355171l0.190422,1.877332l-0.884104,1.243098l1.400965,4.782123l-0.244829,1.902701l-0.700483,-1.154305l-0.911308,1.851963l-2.223862,0.773765l-2.053842,2.410088l-0.299235,-1.420684l-1.822615,-1.154305l0.08841,-1.407999l-0.972515,-1.395314l-2.903943,0.088793l-1.094929,-4.109835l1.543782,-9.944785l1.122132,-0.152216l2.781528,-3.741979l0.442052,0.621549zm65.954181,-93.917334l0.693682,-0.723026l3.046759,2.942845l3.284788,-0.101477l1.033722,1.420684l5.393036,2.600358l0.122414,1.775855l2.189858,3.158484l3.060361,1.243098l0.652877,8.333832l1.78181,10.084317l0.856901,0.684972l0.598471,3.33607l0.034004,3.71661l-1.462173,2.245187l-3.686035,-1.230413l-1.244547,3.33607l-1.006519,0.545441l-0.061207,1.687062l-1.081328,0.317117l-1.339758,2.638412l-2.189858,0.355171l-0.748088,-1.014774l-0.884104,0.697657l0.571267,6.748247l-0.707283,1.027459l1.700201,3.133115l-1.339758,3.133115l1.455372,0.329802l-0.754889,3.602448l0.958913,3.158484l2.060643,2.105656l-0.25843,2.118341l-1.414567,1.395314l1.917826,3.919565l-2.495894,1.902701l-0.754889,-0.418594l0.523662,3.665871l-0.795694,0.101477l-1.115332,1.192359l-1.074527,1.496792l-0.353642,3.69124l-2.407484,1.851963l-0.999718,3.932249l0.054406,2.879421l-2.244265,1.484107l-1.802213,-0.253694l-1.244547,-6.570662l1.775009,-2.384719l-0.748088,-0.938666l-1.482575,0.114162l-0.700483,1.991494l-2.325874,-3.044322l-2.149054,-0.710342l-8.501003,0.215639l-6.828006,-2.33398l-1.78181,0.887927l-4.937383,-3.792718l-3.618027,-1.255783l-1.707001,-2.942845l-2.149054,-0.494702l-1.645794,2.169079l-0.788893,-1.319206l-3.604425,-0.443964l-2.230663,-1.496792l0.25843,-3.259961l1.258148,-1.078197l-1.570985,-1.179675l-0.598471,0.887927l-3.30519,0.025369l-2.189858,4.046411l-0.285634,3.095061l-1.761408,-0.152216l-3.271186,2.131025l-3.060361,6.253545l-2.040241,-1.128936l-3.291588,0.355171l-1.632193,-1.712431l-1.44177,1.255783l-3.720039,-9.209074l-2.604707,-0.710342l-1.727404,0.684972l-0.068008,0.925981l-1.999436,-0.076108l-0.557666,1.38263l-0.918108,-0.494702l-0.571267,2.410088l-1.598189,0.951351l-1.142535,2.257872l1.128933,1.890017l-0.149618,1.484107l0.550865,1.864647l-2.638711,1.598269l-8.480601,8.777795l-1.938229,0.355171l-2.196659,-1.116251l-6.69879,-4.997762l0,0l0.047606,-2.777944l2.876739,-1.281152l3.856055,-7.21758l1.380563,-0.063423l-0.129215,-2.676466l1.788611,0.418594l-0.401247,-1.712431l0.754889,-2.638412l-0.149618,-4.211312l-4.318509,-5.07387l-0.040805,-3.272646l-2.720321,-2.651097l-1.86342,3.018953l-4.182493,-4.579168l-2.951548,-1.649008l-2.577504,-4.414267l-1.339758,-0.355171l0.040805,-2.219818l-1.530181,-3.919565l0.476056,-4.997762l-3.930864,-1.712431l-0.782092,-5.695419l0,0l0.795694,-0.317117l1.108531,-3.057007l4.461326,1.369945l1.285352,-4.046411l4.202896,-1.35726l0.809295,-3.018953l3.114767,4.236681l1.877021,-2.942845l0.489658,1.331891l1.108531,0.152216l1.033722,-1.433368l-0.992917,-5.657365l1.754607,-2.638412l1.61179,1.623638l1.156136,-0.241009l1.339758,2.181764l0.958913,-3.589763l0.952112,0.215639l1.332957,-2.435458l2.142253,3.52634l0.306036,2.676466l1.516579,-1.509476l1.346559,0.925981l0.720885,-1.940755l0.952112,-0.304432l2.312273,1.775855l0.863702,-2.980899l2.28507,-1.649008l1.434969,1.76317l0.659678,4.756753l0.816096,2.676466l1.203742,1.154305l1.088128,3.982988l2.183058,0.748396l1.108531,-0.773765l2.230663,0.900612l1.054124,3.437547l3.005955,3.488286l0.51006,-0.862558l-0.231227,-4.553798l2.665915,0.938666l1.843017,-1.623638l1.414567,2.118341l5.461044,2.156395l2.278269,3.031637l0.952112,-0.482018l5.284223,5.784212l0.809295,3.33607l2.502695,1.179675l0.646076,-1.040143l1.734205,0.431279l1.387364,-1.851963l2.781528,-0.482018l2.081046,-2.257872l2.693118,1.040143l1.122132,-3.995673l2.563902,1.319206l2.03344,-0.989405l2.502695,2.257872l0.408048,-2.625728l2.727122,-0.355171l1.924627,-2.54962l2.407484,1.839278l0.686881,2.308611l1.01332,-0.215639l4.270904,-1.788539l0.278833,-1.750485l1.264949,-0.710342l4.440924,-0.532756l1.040523,-3.615132l-0.272032,-2.917475l0.442052,-1.154305l1.428168,-0.304432l-2.570703,-4.515744l1.176539,-3.818087l-0.659678,-3.488286l-1.428168,-0.253694l-0.129215,-4.972393l-0.999718,-2.752574l-0.795694,0.925981l-1.176539,-0.367856l-1.312555,-2.295926l-0.741287,-3.818087l0.25843,-2.131025l1.931428,-0.304432l0.292435,-1.585584l1.924627,-1.940755l2.359878,1.471422z" cs="100,100"/>
  <path stroke="#505050" transform="rotate(-146.86717224121094 281.4430236816406,148.49938964843753) " id="svg_33" svgUid="2" cursor="pointer" aria-label="Attica  " role="menuitem" class="amcharts-map-area amcharts-map-area-GR-I" stroke-width="1.012704" fill="#818181" d="m279.156432,234.196776l0.372238,-0.715957l1.616577,0.752208l1.223068,4.223243l-3.094894,-2.301939l-2.010086,-3.65229l1.893097,1.694735zm-30.555431,-35.68006l3.052353,4.241369l4.902907,2.129747l4.711471,3.280716l-0.659393,1.712861l-2.818374,0.135941l0.329696,6.271425l-3.818099,-1.078467l-0.616852,1.015028l-1.180526,-1.35035l-2.733292,-0.444075l-2.892822,-2.990709l0.499863,-0.915338l-1.403869,-1.359413l1.776107,-1.241597l-1.12735,-1.35035l0.521134,-1.332225l-2.754562,-2.446943l1.733566,-4.051051l2.478042,-0.226569zm27.992306,-84.057038l0.212707,1.885053l0.542404,-0.444075l2.680115,1.259723l-1.765472,1.232534l-3.201248,-0.335322l-2.605667,-0.761271l0.021271,-0.670644l3.711746,-0.498451l-0.404145,-1.332225l0.808289,-0.335322zm-8.295592,-5.908915l2.541854,1.984743l-1.542129,3.643227l-0.755112,0.634392l3.467132,1.87599l-2.488677,0.52564l7.349044,2.347253l0.148895,0.743146l3.254424,1.377539l0.595581,1.323162l-1.850555,1.078467l-5.434676,0.815648l0,0l1.648483,-3.643227l-2.297241,-0.516577l-1.403869,0.897213l-4.222244,-0.235632l-0.457321,-0.870024l-2.329147,0.154067l-0.967819,-1.87599l-9.688827,-2.111622l-0.999725,-2.048182l1.914368,-3.036023l0,0l3.445861,0.851899l2.265335,2.048183l4.96672,1.71286l2.467407,-1.431915l-3.116165,-3.443846l-2.286606,-0.779397l1.350693,-1.450041l4.424316,-0.570953zm-3.296966,-5.057017l1.116714,0.036251l0.701935,1.223472l-2.201523,1.440978l-1.265609,-0.199381l0.57431,-2.184123l1.074173,-0.317197zm9.784544,-4.41356l5.870727,0.616267l-0.627487,1.377538l-1.382599,0.217506l-0.265884,3.543537l-3.201248,1.305036l-2.509948,-1.024091l1.28688,-0.734083l-0.393509,-0.761271l-2.499313,-1.323162l-1.648483,-2.410692l5.370864,-0.806585zm-2.27597,-16.367333l3.201248,1.051279l-0.106354,1.033154l0.191437,0.507514l-0.13826,0.580017l1.765472,0.326259l-0.446686,0.534702l-0.265884,0.398761l0.744476,1.069405l-0.861465,1.005966l-1.499588,-0.145004l0.329697,1.232534l-2.041992,-0.280945l-0.244614,0.969714l-2.967269,0.924401l-3.350143,-1.486291l-0.063813,-2.474132l4.743377,0.416887l2.031357,-2.836642l-5.658019,0.815648l-0.57431,-0.416887l2.403594,-0.996903l-2.669479,-0.607204l4.222244,0l-0.467957,-1.060342l1.722931,-0.561891zm14.496016,-23.844104l2.669479,-0.253757l1.510223,1.214408l1.542129,-0.480325l2.041992,1.205346l9.401671,1.957554l9.890898,6.062983l-0.946548,1.241597l1.871826,1.422852l-6.827911,3.924172l2.052628,2.782266l0.233978,2.474131l2.807739,2.92727l-1.467682,0.770334l0.98909,2.736951l-1.180527,1.25066l2.41423,0.199381l1.350693,1.45004l-2.722656,0.915338l1.499588,1.386602l1.308151,-0.407824l1.201797,1.314099l-0.457321,2.528508l3.148071,1.839739l0.329697,1.141907l-0.701935,1.631296l0.659393,0.969714l-1.925003,0.770334l1.935639,3.625102l-1.371964,0.290008l-1.382598,2.084433l-7.22142,-1.522543l-0.042541,-3.534473l-2.616302,0.135941l-1.212433,-3.842607l-1.233703,-0.081565l-1.70166,-1.821614l-4.09462,-1.549731l-1.095443,1.522543l-0.723206,0.208443l-0.797653,-1.160032l-0.43605,0.163129l-1.318787,-0.217506l0.818924,-1.486291l-2.382324,-1.015029l0.733841,-0.761271l-1.882461,-0.815648l-1.063538,-2.419755l-3.073623,-1.776299l0.467957,-0.743146l-3.062988,0.072502l-1.074173,0.906275l-0.787018,-0.534702l-0.13826,-0.36251l-1.223068,-0.634393l0.170166,-0.969715l-4.200973,0.172192l-0.414779,-1.314099l1.318786,-0.860961l0.71257,-0.353448l1.297516,-0.88815l-0.595581,-1.821613l-1.669754,-0.806585l-2.424865,0.833773l-1.627212,-0.879087l-2.339783,1.404727l-2.722656,0.054377l-2.371688,2.619135l-1.967545,0.561891l2.584396,0.761271l-13.315488,-0.489388l-4.424316,1.694734l0,0l-1.159256,-1.395664l-4.934814,-1.540668l1.371963,-2.202249l-1.116714,-0.425949l-0.116989,-2.265689l0,0l6.859817,-2.736951l-0.085083,-1.268786l-2.82901,-0.598141l-0.521133,-1.259723l3.658568,-0.52564l-3.28633,-1.18722l-4.349868,-0.072502l0,0l6.96617,-1.576919l5.073074,0.344384l0.723205,-0.98784l-1.052902,-2.918207l2.148346,-1.622232l4.381774,-0.516577l1.233703,1.141907l-0.287155,1.386601l-1.457046,0.380635l0.627487,1.141907l5.966445,0.453138l1.669754,3.516348l2.914093,0.416887l1.063537,1.25066l3.413955,-0.326259l0.872101,-1.295974l3.520309,-1.042216l0.744476,-2.247563l-1.169891,-5.111393l1.648483,-3.271654l1.722931,-0.326259l-0.074448,-1.060343l0,0l3.137436,0.32626z" cs="100,100"/>
  <path transform="rotate(15.370373725891113 383.24526977539097,145.26913452148443) " stroke="#505050" id="svg_8" svgUid="2" aria-label="West Macedonia  " role="menuitem" class="amcharts-map-area amcharts-map-area-GR-C" stroke-width="1.012704" fill="#818181" d="m401.611357,62.96121l6.316874,2.31933l4.035257,-1.055955l0,0l2.809595,3.526136l3.205578,1.206806l-6.54315,4.582091l-8.164795,2.300473l4.846079,5.506051l-0.377127,4.99693l8.485353,1.13138l-1.847921,4.695229l4.525522,2.583319l1.659358,4.412384l3.24329,-1.602789l2.074197,2.093054l6.071741,1.697071l0.56569,4.129538l-2.809595,1.621645l0.113138,2.771882l1.150237,4.525522l4.261533,3.111296l-2.093054,3.65813l4.43124,4.732941l1.150237,4.186107l7.240835,1.282231l6.241448,4.695229l-0.075425,1.697071l5.675758,-0.659972l4.902648,1.470795l-0.754254,7.278547l4.751798,3.771268l3.65813,-0.301701l-2.734169,2.847307l0.226276,2.507893l4.487809,3.073583l4.657516,0.471408l-2.093054,9.692159l-7.165409,3.507279l-1.055955,1.470795l1.470795,1.54622l0,0l0.226276,-0.018856l0,0l0.905104,3.431854l-2.583319,-1.357656l-0.848535,1.074811l1.527364,3.997544l-9.239607,12.068058l-3.24329,0.263989l0.754254,2.507893l-5.56262,7.67453l-4.619803,1.074811l-0.716541,2.847307l-4.412384,1.244518l6.222592,5.656902l2.470181,8.824767l-0.905104,2.036485l-10.880108,-2.621031l-5.468339,2.432468l-7.768812,-3.488423l-5.656902,1.961059l-3.922119,-2.338186l-4.732941,2.809595l-5.694615,-6.166023l-13.161725,0.848535l-3.205578,-1.715927l-4.261533,0.77311l-2.036485,2.979302l2.338186,0.282845l-0.339414,3.167865l-4.714085,2.960445l-4.544378,-0.697685l-4.864936,-4.732941l-2.489037,1.659358l0,0l-3.130152,-3.017014l-5.939747,-1.772496l-6.448868,1.508507l-1.734783,3.09244l-9.447026,-2.809595l-3.695843,-10.540694l-7.485967,-6.75057l5.619189,-0.848535l0.999386,-8.372215l-4.412384,-1.621645l-5.449482,1.734783l-3.676986,-6.90142l-4.732941,-4.544378l5.845465,-3.111296l-1.206806,-5.581477l-2.753026,-0.301701l1.470795,-1.961059l-11.276091,-13.689703l-6.54315,-5.317488l-12.765742,-2.130766l0,0l1.206806,-5.128924l-1.678214,-6.467725l4.506665,-1.979916l2.036485,-5.920891l4.091826,1.301087l4.468953,-0.735397l2.941589,1.998772l3.544992,-1.018242l0.942817,-7.561392l3.563848,-2.093054l0.754254,-2.941589l4.600947,-0.697685l-0.075425,-16.009033l-10.861252,-10.634976l-0.56569,-3.695843l-3.582705,-1.206806l3.262147,-3.224434l-1.319944,-9.409314l22.589895,-0.150851l6.656288,-4.129538l6.976846,3.733555l12.746886,-2.809595l6.807139,-5.694615l6.373443,1.451938l8.051657,-0.56569l6.316874,6.618575l3.356428,-0.037713l5.128924,-4.657516l4.393527,-0.150851l-0.263989,-4.22382l1.451938,-2.017628l3.224434,0.075425z" cs="100,100"/>
  <text stroke="#505050" transform="rotate(0.7951269149780273 389.80816650390125,194.37673950195244) " font-style="normal" font-weight="bold" xml:space="preserve" text-anchor="start" font-family="'League Gothic', sans-serif" font-size="24" id="svg_34" y="203.406902" x="342.02711" stroke-opacity="null" stroke-width="0" fill="#fcf9f9"></text>
  <text stroke="#505050" transform="matrix(0.6194817423820496,0,0,0.6194817423820496,205.1885248227045,112.80582659039646) " font-weight="bold" xml:space="preserve" text-anchor="start" font-family="'League Gothic', sans-serif" font-size="24" id="svg_35" y="323.076934" x="529.564188" stroke-opacity="null" stroke-width="0" fill="#f9f2f2"></text>
  <text stroke="#505050" transform="matrix(0.5919668674468994,0,0,0.5919668674468994,203.91455799341202,151.18902664631605) " font-weight="bold" xml:space="preserve" text-anchor="start" font-family="'League Gothic', sans-serif" font-size="24" id="svg_36" y="320.596941" x="515.942327" stroke-opacity="null" stroke-width="0" fill="#f9f2f2"></text>
  <text font-weight="bold" xml:space="preserve" text-anchor="start" font-family="'League Gothic', sans-serif" font-size="24" id="svg_37" y="540.907542" x="633.694333" stroke-opacity="null" stroke-width="0" stroke="#505050" fill="#f9f2f2"></text>
  <text font-weight="bold" xml:space="preserve" text-anchor="start" font-family="'League Gothic', sans-serif" font-size="24" id="svg_38" y="54.962168" x="342.24941" stroke-opacity="null" stroke-width="0" stroke="#505050" fill="#f9f2f2"></text>
  <path stroke="#505050" id="svg_39" d="m1091.394241,584.654144l19.932809,0l6.159391,-18.983833l6.159395,18.983833l19.932805,0l-16.125951,11.73252l6.15971,18.983833l-16.125958,-11.732839l-16.125955,11.732839l6.159712,-18.983833l-16.125957,-11.73252z" stroke-opacity="null" stroke-width="1.012704" fill="#f9f2f2"/>
  <text stroke="#505050" transform="matrix(0.8074840465524034,0,0,2.009665464410112,242.51992686270236,-541.1797919292194) " xml:space="preserve" text-anchor="start" font-family="'League Gothic', sans-serif" font-size="24" id="svg_40" y="571.328828" x="1117.001128" fill-opacity="null" stroke-opacity="null" stroke-width="0" fill="#f9f2f2"></text>
 </g>
</svg>