<svg width="1366" height="625" xmlns="http://www.w3.org/2000/svg" style="vector-effect: non-scaling-stroke;" stroke="null">
 <desc style="vector-effect: non-scaling-stroke;" stroke="null">JavaScript chart by amCharts 3.21.15</desc>

 <desc style="vector-effect: non-scaling-stroke;" stroke="null">This map was created using Pixel Map Generator by amCharts and is licensed under the Creative Commons Attribution 4.0 International License. You may use this map the way you see fit as long as proper attribution to the name of amCharts is given in the form of link to http://pixelmap.amcharts.com/ To view a copy of this license, visit http://creativecommons.org/licenses/by/4.0/ If you would like to use this map without any attribution, you can acquire a commercial license for the JavaScript Maps - a tool that was used to produce this map. To do so, visit amCharts Online Store: http://www.amcharts.com/online-store/</desc>
 <g stroke="null">
  <title stroke="null">background</title>
  <rect stroke="null" fill="none" id="canvas_background" height="402" width="582" y="-1" x="-1"/>
 </g>
 <g stroke="null">
  <title stroke="null">Layer 1</title>
  <g stroke="null" id="svg_1">
   <path stroke="#000000" id="svg_2" class="amcharts-bg" fill="#505050" d="m0.5,0.5l1365,0l0,624l-1365,0l0,-624z"/>
  </g>
  <g stroke="null" id="svg_34">
   <path stroke="#505050" id="svg_6" class="amcharts-map-area amcharts-map-area-DE-HB" fill="#818181" stroke-width="2.000607" d="m506.332492,369.949434l0.111589,-0.485864l0,0l2.484761,-3.605558l1.013256,1.275298l1.892951,-1.342513l3.62737,-8.278602l2.602116,-0.626291l-0.080714,-3.814992l2.221798,-0.979278l0.119542,1.684197l1.835635,-1.261213l3.110645,1.553205l1.35131,2.644963l-2.713878,2.217614l0.588954,2.275135l-2.85707,1.278769l0.063771,2.53481l-9.6186,1.069471l-3.58979,3.738622l0,0l0,0l0,0l-2.253451,0.125615l0,0l0.089806,-0.00339zm-23.763433,-10.2097l1.856393,-5.82938l1.607442,2.578629l5.303881,1.258892l-0.291695,2.630296l-2.6695,-0.130767l0,0l-0.76427,-1.322312l-5.042251,0.814642z"/>
   <path stroke="#505050" id="svg_7" class="amcharts-map-area amcharts-map-area-DE-HH" fill="#818181" stroke-width="2.000607" d="m660.020945,250.281733l1.792211,-5.130127l2.849684,3.09852l3.076285,-4.504035l3.165552,0.415266l0.878939,-2.382986l2.911484,0.217216l0.686671,-2.906859l3.852223,-1.252186l1.050606,1.009415l-2.149279,3.143241l3.405887,3.015467l-1.002539,3.290181l-2.101213,0.862475l0.487536,3.469065l2.156146,0.121385l5.040163,4.912911l-0.775938,1.054136l0,0l-3.041951,2.542703l-2.81535,0l-5.362899,-4.587088l-2.938951,3.226294l-3.041951,0.159718l-0.52187,-2.881304l-1.833411,1.788836l-2.389614,-2.267989l-1.435142,-6.184263l-1.943278,-0.229993z"/>
   <path stroke="#505050" id="svg_19" class="amcharts-map-area amcharts-map-area-DE-BY" fill="#818181" stroke-width="2.000607" d="m812.46906,386.713456l4.772173,0.729058l-1.372248,1.748228l1.670205,1.633752l-3.305479,2.222752l-0.301831,3.700135l-7.665124,5.115793l1.321021,1.615394l-3.449675,2.670334l1.347742,1.450895l-1.905912,2.702568l-8.579472,3.360449l-0.872538,4.311987l4.084811,-0.923986l0.753411,3.936069l2.576608,-0.963221l2.309357,-5.561188l2.079451,-0.83676l5.284235,2.45064l1.193958,3.35937l-3.176469,2.928217l3.099589,3.657891l-2.542674,2.465904l-3.898377,0.96622l-0.211415,3.925955l8.093442,-1.688706l9.560025,-4.767524l0.231096,1.495169l4.443368,0.422236l0.186152,3.043323l-5.764674,1.680714l-1.804087,1.47258l1.333304,0.985549l-4.208771,2.942276l6.741072,6.995415l-2.001996,2.381232l3.994922,2.172323l0,0l-2.251318,2.986973l-3.238741,0.947954l-1.307417,4.984203l0,0l-3.09543,2.543427l-2.764317,-0.78275l-5.340207,6.451879l-5.147073,1.252893l-1.873325,3.4311l-1.671898,0.088264l-3.775608,9.730111l-3.902021,0.956049l-0.466534,2.70908l-12.019278,1.568799l-4.45369,-0.929223l-3.277355,5.489091l-5.578175,2.227871l0.50363,1.007349l-6.406841,3.368226l-0.558905,2.185582l-7.201764,3.061986l-2.110234,4.416841l-3.67288,2.153541l1.655547,5.391673l-2.303818,3.929603l-11.981119,9.777724l-0.233818,4.129074l-4.103991,5.280283l-5.359151,2.281382l-2.643556,4.309524l3.098186,0.227053l-0.901348,3.886218l-5.135678,3.383357l1.251385,1.978884l-8.154527,6.645294l-5.106381,0.171042l-0.869019,1.877803l-6.997648,1.984707l-9.125399,-0.076147l3.504491,-9.397726l-3.368149,-1.35254l-10.323704,3.698409l-9.666413,-0.364327l-9.125299,-8.178279l-13.630085,-4.734034l-4.252355,1.678309l-7.50292,6.790569l-0.837579,2.629697l-6.738487,4.806783l-11.146415,0.498682l1.266156,3.534336l-2.172036,3.102021l-15.897758,4.45013l-2.741578,-0.613017l4.922413,-9.29172l1.853478,-1.255015l2.972951,0.541605l2.318862,-3.223477l2.046317,0.133361l-2.126792,-5.750751l-3.525237,0.201361l-1.526615,-2.322113l4.876913,-3.893149l-3.417862,-5.529229l5.03925,-1.925782l-4.430206,-1.660628l-6.995091,3.957673l-0.728097,-6.814152l-5.336589,-4.084436l-1.410201,-7.097691l-7.045615,0.177199l-1.758181,-4.482725l-3.819291,-0.433501l-1.765966,2.004036l-0.615631,-2.860775l-4.936273,-0.762079l-0.677647,-1.386837l2.943264,0.007128l-0.09655,-1.704034l-4.006191,-1.858433l-1.470737,-4.55701l6.047268,-3.681239l-0.650721,-2.188331l3.007092,0.690039l1.551596,-1.646076l-3.081374,-2.889783l2.251808,-7.342312l-3.079159,0.144841l-0.463547,-1.612725l0.838996,-2.785132l2.64833,-0.019189l-0.563007,-1.35905l-11.541435,5.506043l-4.543166,0.175843l-7.250059,-1.270138l-4.601313,-3.997825l9.59854,-1.20653l0.214916,-2.056612l-3.969553,-1.676465l7.716396,-2.953711l1.264431,-3.855626l4.666859,-2.779315l-2.553112,-2.637201l0.894055,-2.472051l3.58091,-1.799264l-5.654614,-0.34981l-0.440863,-4.816934l0,0l4.810571,-0.306067l2.053456,3.447383l6.428347,1.340729l-0.797573,4.388416l3.493384,1.037988l-3.160748,2.945537l3.664907,0.666687l6.446312,-2.779873l1.535473,-2.54117l2.649807,1.764809l3.836985,-3.555029l20.329862,-5.148512l12.814966,-7.184478l6.688222,-5.850311l7.300671,-0.1825l2.292662,1.697661l-0.838726,2.65306l5.071966,0.52985l1.809539,2.128949l7.069712,-2.102332l3.796501,-3.827427l3.222006,-0.649319l-2.943551,4.428471l4.151674,0.245571l-0.031583,1.107278l-2.889486,0.036725l3.083267,1.965282l3.925651,-4.26388l9.530663,-2.060132l3.46553,-2.360422l1.316503,0.77926l7.817692,-6.788574l-0.122858,-3.530778l4.219021,-1.505703l0.281782,-1.60431l4.361726,-0.151009l2.722575,-5.496913l4.658692,-2.191111l2.324379,0.882975l7.55986,-4.53297l2.01723,1.274172l3.499476,-3.726758l5.416837,-0.92492l2.397874,-2.976357l-5.606507,0.315781l-1.124123,-2.925345l7.895881,-3.276221l-3.678334,-0.730733l0.272742,-1.842069l5.303609,0.326367l9.129606,-5.915861l-4.284396,-0.748875l2.959871,-2.018608l-3.991082,-0.647384l1.097488,-1.426014l7.508838,-1.806343l-1.678164,-2.399796l-3.25561,0.953997l2.985111,-3.24985l-3.885599,-5.453474l-2.697183,0.254735l0.102349,2.809396l-2.21784,0.23794l2.536591,0.147078l-1.218809,1.618665l-5.642004,1.54496l-0.38176,-3.615907l-6.867346,0.090382l-1.862633,-4.296117l0,0l3.064391,-2.417547l11.000469,-0.985772l1.014428,-1.843824l2.255084,0.184808l0.245346,-1.706018l4.537302,-1.786128l-0.788373,-1.536525l10.932333,-4.57632l1.661437,0.546667l3.66647,-2.065174l0.034352,-1.92307l3.889604,-0.618795l4.313334,2.901744l-2.534575,2.090031l5.606234,0.533545l0.251054,5.349712l-3.182342,3.469695l1.760956,2.232423l12.14864,-4.79401l1.222424,5.564051l3.044482,-1.46364l4.320288,1.83198l9.88653,-2.979467l-0.171475,5.179751l6.662483,1.888034l4.439864,-0.729852z"/>
   <path stroke="#505050" id="svg_14" class="amcharts-map-area amcharts-map-area-DE-BW" fill="#818181" stroke-width="2.000607" d="m825.314323,330.287183l-1.41744,-1.439671l3.976412,-1.840667l-2.558972,3.280337zm34.530883,161.216252l-9.921862,4.598335l-2.191795,8.056677l-7.920446,2.480381l1.354925,5.792886l3.077051,0.538263l1.199119,-3.086886l-0.261821,2.486874l6.088756,-1.691229l-0.393037,3.043711l-13.106727,7.638199l-5.971171,-1.704705l0.930146,3.307519l-5.756529,3.323743l-1.269742,-7.8603l-2.689181,-0.499349l-2.800138,5.0814l-3.315612,-2.3681l-3.106076,5.487901l-9.561535,-7.4861l2.555239,-6.447431l-3.873604,0.70746l-2.866944,4.766822l-4.293493,-7.509172l-6.703429,2.976307l-1.27746,6.446286l-5.563799,-1.173876l-0.104768,-5.890039l-6.803923,-2.042461l3.44971,-3.095097l-7.130175,-6.40478l2.717675,-3.230996l-3.094035,-4.278438l-10.881106,-0.14856l1.19779,-5.067967l-3.358191,0.563878l-1.770811,-4.142183l-7.650191,2.118676l-11.884817,-5.445292l2.127097,-1.985721l-3.863895,-2.779351l-1.110504,-10.106768l-7.812362,-2.245657l5.31101,-4.740684l-0.929892,3.39274l2.371103,-0.589894l1.982453,-5.033238l8.513509,1.001808l-0.26226,-3.448112l-6.9171,-2.33705l-2.060809,-7.176138l5.218853,-3.327539l2.912762,-6.287524l5.423298,-0.492189l4.458334,-3.657173l2.156233,-8.522058l-10.265724,-4.622262l-11.015918,-11.117141l-3.993464,-21.137269l-6.319632,-2.545416l4.727727,-4.116583l-4.938912,-0.39341l-3.738311,-6.061016l2.71623,-4.70189l5.242583,2.087265l3.456327,-4.706818l9.176598,-1.510782l5.137075,-8.334756l8.141121,-4.360896l1.024016,-5.503237l0,0l42.100127,-5.933963l13.304915,-8.645745l9.34915,4.281376l2.187916,-2.737874l-3.105984,-2.742904l5.472366,-0.601621l2.688947,5.443799l1.863975,-1.607485l4.41242,2.170249l0.476177,-4.031138l2.193795,2.763116l4.05466,-0.89337l-1.570721,-1.795454l6.420956,-3.855257l2.53286,-10.008698l-6.32812,-0.491418l-8.387767,6.723506l-2.553491,-1.205286l2.085177,-5.783829l5.445201,1.185729l3.574862,-4.463576l-3.046646,-0.914338l7.308247,-4.188475l14.974259,-1.389245l6.411343,-8.599241l10.387575,-5.750573l5.214121,1.765986l5.168663,-2.167929l7.699776,-8.448009l5.282212,0.392656l-3.660794,1.999012l0.690387,2.910496l7.168239,-4.098722l9.426365,5.896222l-1.466828,3.99685l4.267585,11.660247l-1.713268,9.39072l6.017196,3.215262l2.385414,7.03629l-2.423232,18.015638l-2.94783,3.653886l3.19643,4.93084l0.554727,22.981755l-5.818599,13.484419l-7.128849,7.348553l-4.925191,17.631827l0,0l-4.688267,14.831946l2.296062,11.773862l-5.129858,7.968671l3.850888,1.185892l-0.387657,10.712973l5.30746,-0.824874l6.158279,10.178592l0,0l-3.91752,1.658337l-8.743138,-2.874723l-3.127108,3.907707l3.936522,4.925926l-6.701915,4.192116l-3.765795,-6.794753l-9.338322,2.953886l-1.828282,-2.361392l-4.553606,3.021306l0.371766,-3.603541l3.825641,-1.520654l-0.23237,-5.452462l-4.094661,0.321983l-5.285033,8.055139l1.570236,3.963731l-12.461812,6.614775l5.63223,2.194089l-1.848005,1.96358z"/>
   <path stroke="#505050" id="svg_16" class="amcharts-map-area amcharts-map-area-DE-MV" fill="#818181" stroke-width="2.000607" d="m750.530207,314.892373l2.878931,4.883985l6.845358,3.833221l9.719508,9.30623l-2.145328,0.872096l1.136536,3.26833l-8.620858,-1.120679l-4.967241,1.725978l-0.41781,-2.138698l-1.003685,2.077979l-4.178424,-0.816398l5.801265,-3.617961l-1.032167,-5.618096l2.727399,0.20895l-0.565415,3.731318l1.371768,-1.787986l2.728785,1.554375l0.564958,-2.885721l-3.397226,-5.774512l-2.995145,-0.171177l0.556912,3.308568l-0.12047,-1.31583l-3.237587,2.149116l0.065898,-3.300754l-4.47872,1.65335l2.547561,-5.973666l-2.871573,-3.7239l3.08677,-0.328116zm-53.240466,-22.205307l1.179559,1.010103l-2.645171,-0.266907l1.465612,-0.743197zm-8.257456,-4.335277l1.442949,2.080296l17.401849,1.868873l0.387269,1.2908l-6.195484,0.846791l-8.072836,-1.784674l-5.335928,3.857519l8.680182,-2.616191l-1.720306,2.703827l1.330002,-1.85515l1.590192,2.09123l2.657914,-1.583566l0.979422,3.705103l5.898683,-4.405107l5.378868,-1.182906l-0.394352,2.686983l3.15136,2.264823l0.144695,6.026255l3.625899,1.121306l-1.82203,1.030637l2.182836,-0.747591l4.87545,2.553016l1.543546,3.663715l2.190015,0.309981l-2.762036,1.306769l5.009855,-0.620931l-1.888742,1.92897l1.454077,-0.692803l2.504289,4.997102l1.608139,0.170675l-0.298678,-2.693605l11.118184,-2.287793l-0.721696,1.323758l4.85406,3.890343l-3.242923,4.634362l7.872469,7.945462l-4.66463,2.792676l-0.529179,2.298999l13.573297,8.09335l8.164674,0.023357l-2.798387,2.950487l3.135665,1.321933l4.712893,24.783597l0,0l-4.755944,0.97932l-3.025427,3.279567l-8.068203,-0.797761l6.821625,-6.130329l1.039367,-4.657065l-16.02695,-0.760981l-1.510932,-5.781776l-3.887134,-4.004319l-1.133341,2.98445l1.735542,2.12765l-4.894866,-0.088035l-4.692105,4.526742l-3.793994,0.512629l-1.808817,5.259772l-1.989846,1.71646l-2.318805,-0.569391l-1.771585,3.289398l-5.061915,-2.560457l-3.74802,4.090755l-3.827063,-2.609692l-7.562473,5.088742l-3.027693,-0.782192l1.176314,-1.674375l-9.729563,0.167932l-0.47798,-2.4827l-3.535139,-0.454717l-0.970988,-1.929933l-10.715789,-0.507499l-2.323241,-3.657554l-6.506708,-2.097591l-1.202954,-2.478882l-3.103852,1.08279l-5.942534,-2.664292l-1.547646,4.785883l-8.298492,2.932819l-3.123642,-0.539472l0.926562,2.00351l-4.328784,0.159005l-3.011981,-2.043065l-5.912158,1.963308l-1.353889,5.639496l-5.408201,-1.465072l-1.544446,1.909694l-6.158905,-1.219725l0,0l-4.042667,-1.280382l0.854533,-2.902654l-5.125037,-2.654833l-4.434958,-8.484564l-3.35011,-1.267389l-4.305014,2.672038l-6.370819,-4.976738l-5.185682,0.050526l0,0l2.327733,-5.951554l9.793748,-3.340687l0.178162,-4.182892l4.338263,0.552797l2.445886,-5.12918l-1.182625,-3.592068l-3.574361,-0.451224l-4.279935,-3.751613l1.274746,-8.246329l5.636402,-3.181763l1.383138,1.941322l2.722358,-0.457679l-3.480435,-1.296286l0.683699,-2.281118l0,0l6.933316,-2.912481l7.012817,-0.10062l3.776421,2.452181l-0.348197,3.324634l3.980916,-1.350784l5.802844,4.755183l1.538476,-4.767345l-1.917994,0.434131l0.156479,-2.73668l-0.853359,2.467113l-2.111751,-0.419482l0.077922,-2.518293l5.265348,-1.018366l-0.29749,3.796059l1.786709,-4.332501l2.693203,0.039847l2.831915,-3.716753l-0.981381,-0.950542l-3.900125,3.515705l-0.079127,-1.767607l7.928957,-4.88215l8.215512,1.122609l13.923324,-1.656661l3.275895,-3.504405l7.716845,-3.494924l10.646571,-12.201322zm31.03317,-6.138891l-4.745898,9.763095l2.397775,-9.098249l2.348124,-0.664847zm14.510879,-4.636798l-3.03223,3.266249l1.858508,4.039451l10.605516,0.313528l2.068826,1.627084l-5.725288,7.736444l1.688946,3.174821l2.895884,0.458495l4.334965,4.479611l-3.116678,4.823113l-0.276539,-1.942425l-2.767746,-0.295228l3.025573,-1.812515l-4.694077,0.356098l3.876842,-2.152894l-3.52925,1.249794l-1.414251,-1.732225l-4.087061,0.471646l-7.774209,4.477233l0.143784,1.63147l0.445906,-1.177675l2.567805,0.888978l-1.439378,2.173749l-4.855807,-2.397806l1.507459,0.477107l0.775275,-2.255098l-3.359346,1.480226l-3.2864,-1.390783l-0.165972,-1.857338l-2.726078,0.822561l2.303274,-1.110212l-3.314461,-2.481937l0.842411,-2.63449l6.632547,-0.436362l-2.182263,-3.352395l-3.067486,0.278298l1.566684,-2.209139l-2.86345,0.363919l2.609557,-2.926073l2.804846,0.740018l-1.587975,2.495841l3.702272,-2.0057l-2.06354,-0.544028l0.269607,-1.741709l-3.021526,-0.025791l-1.079499,-2.777216l4.98194,-0.245032l2.741592,3.060805l-0.148123,-2.727269l2.977835,-1.69434l-0.955115,2.158461l1.871138,-0.642612l1.479558,4.73522l1.782269,1.708304l2.631728,-0.496441l0.854241,-5.836759l-3.326291,0.720331l-3.416609,-4.674069l-6.517903,3.404584l2.47894,-5.889074l-6.542589,5.625735l4.707328,-6.620469l9.304084,-1.154067z"/>
   <path stroke="#505050" id="svg_20" class="amcharts-map-area amcharts-map-area-DE-SN" fill="#818181" stroke-width="2.000607" d="m501.473809,454.024847l-0.84911,-4.845024l3.348851,-6.419342l1.238808,-6.453853l1.76439,0.162232l3.069436,-9.76481l2.711201,-1.090304l3.237229,-4.542777l6.395165,1.601674l1.446433,-1.595085l0.81595,1.630489l5.262346,-0.053327l-1.0308,0.819295l4.313053,-2.46643l1.813467,2.37698l3.475058,-1.46786l1.36288,4.651098l2.174067,-1.55761l1.434322,2.654589l0,0l1.450213,5.219255l-1.363364,1.428239l0.386706,4.015172l-4.226379,6.057392l0.105384,2.750801l1.18737,1.557238l3.456318,-2.693105l1.254682,1.59908l1.584645,-1.601226l1.48384,7.84272l6.672212,3.913267l6.728481,0.4601l0.392529,2.185869l4.34552,-3.924355l0.182988,-2.515617l1.678611,0.73581l3.73757,-3.777319l4.516452,5.646555l2.962039,-1.806564l6.680227,0.061307l0.404803,2.774954l2.020963,0.756353l2.042596,-2.780684l0.466667,1.564855l0,0l-1.711718,3.886508l4.535498,7.07183l-3.509109,9.054542l-0.403829,5.661986l-8.569056,12.348368l-14.042422,14.536915l-4.05299,-5.149304l3.372405,-4.483804l-2.968735,-0.387084l3.258351,-4.065883l-1.802894,-3.920759l0.906875,-1.597219l-1.050653,1.425696l-2.629791,-0.926226l-1.992091,-4.048269l-3.556955,3.933869l1.877268,1.151189l-1.443354,1.813151l1.9686,2.537499l-1.582033,2.410361l-3.714823,-1.591365l-8.467721,2.738122l-5.931745,-1.387602l-1.686055,3.23303l-1.820794,0.517582l-10.637398,-3.455626l-2.258123,4.405641l-2.938536,1.535107l-1.29251,-4.53278l-3.814544,3.955528l-1.857722,-1.957619l-4.502666,5.136984l-4.68943,-2.867781l-2.371203,3.924603l-3.721779,1.927995l-1.965189,-5.683856l-1.216792,1.759388l0.142711,-1.419692l-2.352362,0.22794l-2.032754,1.911125l-0.359788,-1.803128l-5.473849,-1.068015l-10.593379,7.609468l-2.09716,4.660673l-1.275085,-0.967968l1.568393,-2.866874l-0.79724,-2.470649l1.285533,-1.425349l-1.564801,-0.928992l1.155037,-3.547383l-2.641431,-0.973662l0,0l-2.626094,-4.014143l1.423598,-2.422617l-0.629777,-3.220092l0,0l-0.016929,-2.090476l1.797395,0.461823l1.589577,-1.96521l-1.171789,-4.822459l7.139896,-4.473557l-1.116395,6.373221l1.555047,-1.341132l2.507684,1.206887l1.349451,-3.725418l0.682732,1.697414l1.123204,-1.54781l1.629425,1.519155l2.714196,-1.438597l-0.62419,-2.900839l1.553165,-2.824486l-1.166185,-0.655575l3.389661,-2.051709l0.100914,-3.10614l2.982438,1.268366l1.833366,-1.652284l1.63915,1.723874l3.000665,-2.828356l5.958815,0.884732l1.181283,-5.866208l-2.327343,-2.891002l1.42072,-3.148602l-3.645834,-5.188107l-2.061831,0.081103z"/>
   <path stroke="#505050" id="svg_8" class="amcharts-map-area amcharts-map-area-DE-HE" fill="#818181" stroke-width="2.000607" d="m599.819894,370.085431l19.06289,-8.630497l9.336848,1.521755l-6.705991,2.670208l3.198647,1.842517l-4.791131,1.428639l-0.184023,4.828332l8.084316,0.804405l2.388819,4.336775l-6.28111,5.02354l0.672638,3.825436l-4.157663,1.595516l4.147957,0.238308l20.512003,-5.223475l2.319572,-5.597649l-2.815497,3.270236l-5.85331,-1.716646l9.355294,-7.088533l-1.288079,-1.733761l8.975555,-0.707371l-3.393237,-2.840211l5.296457,-3.035466l4.61191,2.132712l0,0l8.622425,5.231693l9.105949,-4.034714l3.641149,3.653848l19.679552,-5.737859l-0.925669,8.196887l-5.232559,-1.57461l-4.333359,3.681528l6.845574,-1.080021l-1.124089,6.574118l7.90699,-1.4771l1.074028,2.344973l-17.810969,8.564364l-0.752065,3.718758l6.232329,0.68656l-11.91884,6.363062l4.440918,-1.165744l-0.707068,2.859674l3.702955,-3.348345l6.839341,0.637068l-1.488909,5.820331l-7.360759,5.179139l-0.439457,19.19282l9.347068,-3.646074l-2.274671,-2.796271l10.527641,-5.786702l5.099817,2.468164l-4.322173,3.456339l4.511238,7.576761l0,0l-0.411047,5.373031l-9.775942,11.578178l-15.800345,5.862938l3.242512,10.368653l-8.204909,8.223948l2.675242,2.549397l-17.812757,8.272663l7.46238,11.406194l-7.905716,5.102807l-8.75185,-0.379059l-16.574522,6.656397l-4.986546,8.499232l-4.902929,-1.095425l-11.485124,9.474765l-0.423355,4.731395l5.883651,-2.217863l4.15056,2.713768l-2.670702,2.976647l7.520503,9.955157l5.188282,-2.917383l2.773711,4.265138l5.091241,-1.665884l-1.9143,3.383656l5.054978,-0.748567l-3.543819,14.28181l5.592016,1.453291l0,0l-2.752011,2.694304l7.691711,0.984496l-18.045758,10.576122l1.833852,3.993852l-8.141784,10.323554l-5.7671,1.416203l0.172635,-6.00342l5.499679,-2.679678l0.84599,-4.111713l-6.656859,4.536614l-2.346123,-2.153556l-13.355341,5.698091l-4.651692,-6.574753l-9.774201,6.393788l5.065953,4.460664l-4.738988,5.153711l-11.988702,-0.937495l-5.641,2.856533l0,0l-11.240978,-5.364672l9.855618,-12.246004l-6.179267,2.50506l-6.927544,-2.044547l-12.530638,-9.407207l-17.172388,2.729979l-29.111874,21.445771l-15.502681,-0.925582l5.761997,-5.666985l-0.344642,-4.29642l9.322092,-2.253808l-1.475059,-3.540048l-6.148876,0.629295l1.284714,-4.284062l6.850687,-7.081284l5.679712,-0.639923l-1.917969,-4.734583l7.910515,-2.95244l-0.275029,-3.872231l-9.483888,-2.961816l-11.789313,2.210566l3.179553,-6.058813l-4.68862,-5.082313l3.757759,-5.341115l7.36382,-1.26173l2.702828,-3.202105l-6.89587,-10.54665l0,0l2.490721,-6.375007l-5.930992,-2.77419l10.254353,-14.843323l10.642912,-3.379372l8.300828,-10.342273l-2.193054,-3.830861l6.10731,-8.780385l-6.306231,-3.177772l21.917665,-14.376732l-3.750449,-0.985241l4.504717,-9.893307l-7.632668,-2.968986l-12.299853,9.118517l-5.393187,-0.447317l4.166403,-8.371981l6.132181,-7.455441l25.440122,-14.372084l-0.684589,-3.725262l-8.310776,-1.534969l11.992849,-10.006408l8.732802,-2.046179l2.655016,4.033287l12.199083,-7.791955l10.857437,-19.635377l-4.708339,-0.097731l10.730356,-8.931606z"/>
   <path stroke="#505050" id="svg_13" class="amcharts-map-area amcharts-map-area-DE-TH" fill="#818181" stroke-width="2.000607" d="m693.361887,341.940136l14.224416,3.175714l0.348983,2.00034l-2.228916,-0.99992l-0.704263,1.66488l3.618763,3.356084l2.154036,9.012951l21.373059,2.686483l4.839455,2.635487l4.568033,6.705058l-7.698301,4.754237l6.560767,2.706403l0.32354,6.612829l12.051609,0.575851l5.385056,5.569807l8.700467,-0.068036l7.629525,7.140057l10.944153,0.472575l1.76591,2.840062l5.502006,-5.354918l-2.557587,-1.543888l2.546562,-3.533022l0,0l3.619771,-0.596468l10.574486,3.970766l-0.073069,3.326186l6.42082,2.138063l2.482165,5.827404l-11.337467,0.668945l-3.146194,3.422807l-4.277733,-1.211503l-1.981627,2.019837l-6.320789,-0.443348l2.251396,2.95329l-4.449103,2.788852l2.5965,0.323816l-0.563405,3.05408l3.386004,2.576893l-3.722431,2.040573l-4.100095,-1.020989l-0.794778,1.742248l-2.54847,-1.427783l0.505813,3.851916l-5.424558,-0.505137l-1.728024,1.65635l-2.995002,-6.288947l-9.25257,6.017535l5.868593,4.250094l-1.301143,2.253313l-3.572416,0.018014l1.666789,1.966206l0,0l-6.675885,1.767545l-2.758473,-2.435095l-17.12259,1.495789l-2.168648,-4.197788l-2.686396,0.473586l-1.30143,-1.89376l1.162347,-4.700668l-5.486663,-1.231305l-3.917648,2.856267l-2.795345,-0.509246l1.555953,8.679698l-2.812238,6.300015l-6.755272,-1.897837l1.085743,-3.10277l-2.521099,-2.843399l-8.649485,0.490706l-2.881516,-3.484131l-6.762732,-0.681827l-8.086724,2.526771l-0.013824,1.798554l8.132867,4.065586l-0.146588,2.195694l-7.462452,-1.24121l-1.293249,3.211665l-6.961975,-2.523235l0.218674,-7.379509l-3.392404,-2.512734l-3.515324,0.2757l-2.232651,-3.556197l-3.78561,0.183939l-3.522554,-7.53673l-6.293418,-1.858964l-1.54832,-3.257539l-4.067403,0.415019l-2.094893,-1.720923l-4.69233,2.944582l0,0l0.365313,-6.774503l3.046194,-0.55289l-1.519455,-3.650645l-6.585514,-0.383359l0.140382,2.742702l-5.37423,-1.320886l6.281327,-12.440908l4.963634,-0.476808l2.516694,-3.233613l-2.884908,-3.138882l-2.732493,0.728178l1.22547,-1.598487l-2.373805,-0.999974l7.39608,0.557815l-2.595257,-2.929994l1.518058,-2.145278l10.753075,1.454276l0.258473,-1.968541l-4.036839,-2.173835l2.590944,-3.874182l-3.431937,-2.012696l3.122614,-0.696461l1.862569,3.116094l3.015712,-5.019764l-10.700594,-4.055343l-0.485318,-3.849872l-5.388581,-0.96953l-2.233449,-6.868153l0,0l8.186412,-3.733581l1.296708,1.526103l5.68168,-0.412378l3.552381,-3.655877l1.92692,1.32978l4.43156,-1.264259l5.332994,-6.358141l4.143439,0.067748l5.33765,3.347561l5.863513,-1.301405l3.157092,1.862883l-0.723055,-4.579161l4.217362,-1.19203z"/>
   <path stroke="#505050" id="svg_11" class="amcharts-map-area amcharts-map-area-DE-SL" fill="#818181" stroke-width="2.000607" d="m554.671866,336.75663l16.939455,21.04489l-12.418775,45.517039l2.496565,9.649189l24.650092,12.878341l-2.003537,7.292356l26.337621,-5.923578l7.142764,-9.3928l11.663331,0.158636l9.012897,9.867081l16.453332,-8.413442l8.570943,-15.099935l21.064761,0.490499l0,0l6.84701,-11.147551l-6.968544,-13.889533l-10.384542,-3.074308l7.760363,-8.243635l-18.381379,4.709282l-11.86912,-8.425887l-1.300151,-10.143936l13.312835,-5.598277l-6.545283,-9.185924l-28.934881,3.09684l-19.415719,-4.833428l-2.823391,5.230117l-10.810259,-3.134326l-4.617622,3.345088l-16.751985,-8.376113l-1.298687,-6.97302l-17.728096,8.576334z"/>
   <path stroke="#505050" id="svg_10" class="amcharts-map-area amcharts-map-area-DE-RP" fill="#818181" stroke-width="2.000607" d="m460.886362,418.79699l-0.387587,-4.261165l3.636627,2.572056l10.056361,-5.731515l3.24201,2.068096l1.834482,-2.15491l2.837538,1.573037l6.677203,-3.177737l-5.578499,-6.070967l3.744769,-2.121732l4.698195,1.447269l2.835872,-1.715948l-2.166062,-3.334169l3.419115,-1.223858l-0.435694,-1.636646l4.820833,-1.418144l3.580301,-3.573155l2.744588,0.675875l1.481816,-2.077904l2.452387,0.20017l3.219566,-3.934135l1.209558,1.367911l8.612077,-3.091294l1.661059,-5.613294l15.389386,-5.038718l5.100847,-3.972871l-1.365044,-2.276516l7.00721,-3.249373l-3.035718,-4.126063l3.751431,-2.497551l4.36141,-0.074937l-0.921193,3.231917l10.684315,-0.102568l1.020316,4.406681l6.388828,3.633499l6.249001,-0.692943l0,0l2.788645,8.183079l-2.077405,1.634699l-4.658487,-0.471834l-3.007552,2.859656l2.176308,4.185272l-2.751371,3.435815l7.483707,0.629614l5.384178,3.635207l-0.35195,2.604602l-5.218643,0.547265l0.53391,3.464879l-3.548371,-0.583888l-5.126594,3.460288l-1.358074,2.600094l3.832959,0.674024l0.424195,2.597952l-5.985427,-0.163956l-0.366434,2.896922l-4.273116,2.719659l9.326632,3.357531l20.625162,-8.997604l10.835069,1.24049l6.376648,8.429294l3.948853,2.576856l4.103195,-0.558695l-7.651532,6.336893l6.132906,5.532521l0,0l3.376934,7.787613l4.898282,-0.182462l-2.541538,7.65375l3.1801,1.150447l-6.204433,5.324281l-0.371875,8.630005l-7.195764,10.279882l0,0l-22.893882,-0.424838l-4.522244,2.627685l-5.670854,-0.70466l-8.408368,3.345041l-11.251601,-0.675626l-3.490551,-3.722828l-4.152435,1.259754l0.245649,-1.285984l-5.401014,2.908148l0,0l-6.40412,-3.597047l6.131832,-5.024755l0.02158,-4.857113l-8.255355,0.708793l-3.481388,-2.017936l3.287682,-3.444723l-4.273969,-6.01899l-3.582203,2.05038l-14.521172,-1.345277l-6.236474,1.806132l-22.384437,12.782665l-16.943447,1.914068l0,0l-1.907732,-0.88075l3.868412,-7.15404l5.455508,-4.798831l-0.418248,-5.501369l-7.08389,1.613005l-5.531089,-1.276162l-2.662329,1.438461l-7.289056,-2.231794l-1.512357,-2.89817l-3.361036,0.560098l-6.3162,-5.397167l0.639319,-7.248943l3.372184,-1.724856l-1.81122,-2.998055l7.001631,-3.727341l1.434247,-3.793392l3.896369,0.133748l2.845832,-1.875884z"/>
   <path stroke="#505050" id="svg_21" class="amcharts-map-area amcharts-map-area-DE-ST" fill="#818181" stroke-width="2.000607" d="m495.488753,300.530391l0.354057,-1.701064l1.588843,1.115704l0.877908,-2.051138l2.26043,-0.101003l-0.163495,-2.22482l3.729031,-3.529878l2.702837,1.275609l4.11983,-5.46381l0.633047,-6.411154l2.690191,0.733387l-0.784336,-3.397372l1.597524,-1.315082l4.019532,0.119037l4.951224,4.200164l6.23777,0.493303l-0.497535,2.576173l5.909686,2.98471l0.438101,-1.976949l2.347286,0.916057l-0.936416,-2.898153l4.02008,-2.823884l3.385798,3.658677l4.888374,-0.061335l5.351308,4.458431l2.212487,-1.694826l2.821757,4.47745l12.639572,-6.062726l-0.528965,-2.19259l3.845394,-1.599368l1.149795,-2.96609l-1.177267,-3.050485l4.564111,-3.57697l0.498727,-2.82705l2.209468,0.335703l1.350707,-4.433855l2.503538,0.066374l0.893191,-3.044261l1.806787,0.737045l0.685632,-4.248834l11.073267,1.234181l2.821846,6.9468l0,0l-2.396753,2.636471l1.507738,2.167736l-4.238025,3.202543l1.468827,3.799705l-2.128313,3.012556l2.416734,4.50481l-0.789271,-1.001335l0.226089,6.464707l-1.474309,1.539253l1.517784,1.259157l-1.260141,8.402311l4.292957,2.499376l1.095394,2.982474l9.097028,0.581902l-0.090086,2.226531l5.985933,-0.588372l6.025107,2.022093l4.433916,-2.63321l0,0l2.86782,2.39543l1.64457,-1.379712l4.171578,4.716375l-2.711902,0.595156l-1.58687,7.1399l-7.157995,3.605105l-0.867257,5.765544l-5.523387,2.437707l-1.796724,7.851223l-5.910492,-1.118607l-3.104402,3.791944l-3.403642,-6.047296l-6.445025,1.668822l-2.857848,2.668283l-4.666105,13.58829l-8.238361,-0.392105l-3.367992,1.716089l-1.404277,-0.801061l1.126168,-1.272039l-1.814663,-0.172362l-4.338579,8.763777l0,0l-12.496866,1.957164l-2.373811,-0.873889l-1.791508,-3.840579l-3.534976,0.602836l-0.761215,-1.969032l-4.161772,2.795076l-1.174378,-6.674628l2.941409,-11.249565l-3.284036,0.02606l-0.714344,-4.86195l-2.317612,-1.395139l-2.246591,1.447554l-1.052989,-3.6156l-8.621283,2.032349l-0.998877,-4.48922l-7.396418,4.185695l-2.010896,-1.122246l0.693767,-2.681495l-5.629743,1.529559l-3.18782,-2.736974l0.191383,2.649655l-8.168278,1.667872l-0.223478,1.317326l-8.86414,-1.27903l1.510446,-7.450312l-3.029142,-3.90894l6.108318,-12.215767l-1.719437,-9.173608l-4.217895,-1.600762l1.030159,-1.832478l-1.894326,-2.515209z"/>
   <path stroke="#505050" id="svg_12" class="amcharts-map-area amcharts-map-area-DE-SH" fill="#818181" stroke-width="2.000607" d="m472.960075,115.322138l2.297062,3.256877l-1.896298,2.219993l-2.609853,-5.702857l2.209089,0.225987zm161.937987,-11.312661l9.198023,3.908252l5.249031,14.808818l-7.634066,-2.911249l-4.37908,2.844782l-2.091793,-6.58022l-4.017415,0.664669l1.544408,2.12694l-2.453458,-1.994006l1.28049,-9.704163l3.303859,-3.163823zm-161.400377,-0.385508l-0.889501,5.689564l-1.143644,-6.979021l2.033144,1.289457zm13.313185,-3.536037l-0.16617,8.308359l-5.268581,1.502151l-1.798551,-5.995312l7.233302,-3.815198zm-9.334869,-3.044183l1.241391,2.964422l-4.095613,-2.711848l2.854222,-0.252574zm-10.732656,-8.853387l0.918825,3.602504l-2.365485,0.598202l-4.349756,-8.241892l4.369305,-6.846087l-1.339138,3.629091l2.766249,7.258182zm8.875457,-17.081985l3.82192,1.542031l-1.221842,9.704163l-10.468738,-3.216996l1.769227,-6.686567l6.099433,-1.342631zm-5.444526,-43.336398l1.730128,0.797602l-4.330206,0.186107l2.7467,4.360227l-5.434751,6.925848l1.084995,10.076377l3.499354,3.084063l10.820628,-1.395804l2.140666,-3.522744l19.412618,1.276164l17.956183,7.630397l0.869951,5.928845l2.795573,1.289457l3.088815,0.186107l4.095613,-6.114952l1.691029,7.816504l11.016123,-12.894572l-0.459412,6.73974l11.759003,5.011602l3.753497,6.394113l3.274535,-1.515445l-0.009775,-4.945135l3.196337,2.605501l5.014438,13.665588l-2.433908,-0.11964l2.297062,2.499154l-0.478962,17.307973l-3.909893,6.965728l-8.161901,4.25388l2.02337,3.815198l16.196731,-5.343936l4.642998,4.267173l-4.173811,20.937064l3.206112,-2.352927l2.619628,-12.535651l6.070109,-3.15053l17.154655,10.422005l6.451323,8.560933l5.366328,-1.129937l8.787484,-10.076377l5.874614,2.007299l5.434751,-4.346933l0.821077,3.748731l-4.271558,2.804902l2.228639,22.505682l-13.870345,16.271089l-3.802371,-3.084063l-3.606876,8.348239l2.072243,7.191715l5.317454,0.94383l2.072243,5.064775l0,0l-0.645132,4.838788l4.486602,2.153527l-3.372283,1.369217l-1.915847,-3.815198l-6.773889,7.470876l-0.830852,17.307973l5.718218,7.125248l4.525701,0.385508l1.8181,7.271475l-2.590304,11.020207l-5.493399,-0.478561l0.16617,8.70716l-11.974047,8.441292l-2.365485,12.708465l0,0l-17.86821,-9.823803l0,0l1.104545,-2.193407l-7.174653,-10.222604l-3.079041,-0.239281l-0.694006,-7.231595l3.000843,-1.794605l1.427111,-6.846087l-4.848267,-6.274472l3.049716,-6.54034l-1.495534,-2.100353l-5.483625,2.605501l-0.977473,6.048485l-4.144486,-0.451975l-1.241391,4.958428l-4.515926,-0.864069l-4.37908,9.371828l-4.046739,-6.46058l-2.551205,10.687872l0,0l-11.221392,-8.587519l-2.776024,-10.967033l-11.934948,-22.771549l-6.519746,-3.762025l-12.7658,0.744429l0,0l-6.128757,-8.640693l-1.46621,-9.81051l-4.799393,-3.044183l4.642998,-3.097356l4.897141,1.568618l1.661704,-3.163823l-3.558002,-10.621406l-4.369305,1.714845l-3.049716,-7.537343l1.896298,-16.124862l-8.083703,-0.864069l-1.984271,3.243583l-6.089658,-6.114952l1.671479,-6.726447l2.111342,2.153527l3.030167,-2.605501l-5.229482,-1.834486l0.781979,-2.804902l15.786192,-2.685261l11.13342,-9.903563l-2.961744,-0.518442l-1.163193,-5.849084l-5.415202,8.800213l-5.669345,-1.555325l5.405427,-17.853001l-0.811303,-2.445981l-4.124937,1.781312l2.619628,-3.030889l-10.185271,-15.566541l-5.835515,-23.21023l-11.50486,5.330643l-4.603899,-4.759028l-3.694849,18.903177l1.016572,-23.542565l6.109208,-20.830717l2.707601,0.093054z"/>
   <path stroke="#505050" id="svg_15" class="amcharts-map-area amcharts-map-area-DE-BE" fill="#818181" stroke-width="2.000607" d="m632.078328,276.370446l0.048067,0.025555l0,0l2.005079,1.571621l-0.638604,3.513786l6.447838,4.1846l-2.011945,3.877942l6.468439,1.903833l-4.841029,6.963685l-0.171668,-2.549092l-7.182576,-1.258574l-0.58367,-1.597175l-2.032545,0.658036l-0.013733,2.267989l-5.356032,-2.702421l-7.422911,1.718561l-1.599943,-1.437458l3.37842,-6.503698l-2.183613,-0.504707l0.508136,-4.638197l3.845356,-0.089442l0.178534,-2.689643l1.881478,0.038332l0.844605,-2.248823l3.350953,2.491594l4.854762,-1.846335l-0.50127,-1.226631l0,0l0.62487,-0.338601l0,0l0.260935,0.070276l0,0l-0.157934,0.34499z"/>
  </g>
  <text font-weight="bold" xml:space="preserve" text-anchor="start" font-family="'Shadows Into Light', serif" font-size="30" id="svg_35" y="600.679037" x="230.398453" stroke-width="0" stroke="#505050" fill="#ffffff">神圣德嘉诺帝国</text>
  <text font-weight="bold" font-style="italic" xml:space="preserve" text-anchor="start" font-family="'Shadows Into Light', serif" font-size="20" id="svg_36" y="574.235891" x="448.032942" stroke-width="0" stroke="#505050" fill="#ffffff">白海</text>
  <text stroke="#505050" transform="matrix(0.5876293182373047,0,0,0.6466541290283203,238.45334672927856,168.38587060570717) " font-weight="bold" xml:space="preserve" text-anchor="start" font-family="'Shadows Into Light', serif" font-size="30" id="svg_37" y="471.709238" x="458.919145" stroke-width="0" fill="#ffffff">伦克顿堡</text>
  <text font-weight="bold" font-style="normal" xml:space="preserve" text-anchor="start" font-family="'Shadows Into Light', serif" font-size="15" id="svg_38" y="559.242292" x="493.69933" stroke-width="0" stroke="#505050" fill="#ffffff">白港</text>
  <text font-weight="bold" xml:space="preserve" text-anchor="start" font-family="'Shadows Into Light', serif" font-size="30" id="svg_40" y="477.799084" x="823.59587" stroke-width="0" stroke="#505050" fill="#ffffff">黑森林</text>
  <text font-weight="bold" xml:space="preserve" text-anchor="start" font-family="'Shadows Into Light', serif" font-size="47" id="svg_41" y="396.355875" x="973.080243" stroke-width="0" stroke="#505050" fill="#ffffff">曼斯特联邦</text>
  <text font-style="normal" font-weight="bold" xml:space="preserve" text-anchor="start" font-family="'Shadows Into Light', serif" font-size="26" id="svg_42" y="430.55268" x="605.920536" stroke-width="0" stroke="#505050" fill="#ffffff">旧城</text>
  <text font-weight="bold" xml:space="preserve" text-anchor="start" font-family="'Shadows Into Light', serif" font-size="20" id="svg_43" y="446.192806" x="763.828546" stroke-width="0" stroke="#505050" fill="#ffffff">黑森堡</text>
  <text stroke="#505050" transform="matrix(0.8714689016342162,0,0,0.9571563005447388,46.001086758449674,24.881794774904847) " font-weight="bold" xml:space="preserve" text-anchor="start" font-family="'Shadows Into Light', serif" font-size="10" id="svg_44" y="284.877202" x="593.665758" stroke-width="0" fill="#ffffff">永夜城</text>
  <text font-weight="bold" xml:space="preserve" text-anchor="start" font-family="'Shadows Into Light', serif" font-size="14" id="svg_45" y="336.612659" x="639.262123" stroke-width="0" stroke="#505050" fill="#ffffff">苍狼城</text>
  <text style="cursor: move;" font-style="italic" font-weight="bold" xml:space="preserve" text-anchor="start" font-family="'Shadows Into Light', serif" font-size="20" id="svg_46" y="223.16019" x="656.585747" stroke-width="0" stroke="#505050" fill="#ffffff">凛冬海</text>
  <text font-style="italic" font-weight="bold" xml:space="preserve" text-anchor="start" font-family="'Shadows Into Light', serif" font-size="20" id="svg_47" y="264.673469" x="496.567269" stroke-width="0" stroke="#505050" fill="#ffffff">哭嚎湾</text>
  <text font-weight="bold" xml:space="preserve" text-anchor="start" font-family="'Shadows Into Light', serif" font-size="15" id="svg_48" y="450.733159" x="642.32476" stroke-width="0" stroke="#505050" fill="#ffffff">紫荆城</text>
  <text style="cursor: move;" font-weight="bold" xml:space="preserve" text-anchor="start" font-family="'Shadows Into Light', serif" font-size="15" id="svg_49" y="406.078349" x="791.643846" stroke-width="0" stroke="#505050" fill="#ffffff">鹰巢城</text>
  <text font-weight="bold" xml:space="preserve" text-anchor="start" font-family="'Shadows Into Light', serif" font-size="15" id="svg_50" y="551.377664" x="685.660818" stroke-width="0" stroke="#505050" fill="#ffffff">前进城</text>
  <text font-weight="bold" xml:space="preserve" text-anchor="start" font-family="'Shadows Into Light', serif" font-size="30" id="svg_51" y="553.941767" x="88.224224" stroke-width="0" stroke="#505050" fill="#ffffff">日落海</text>
  <text font-weight="bold" font-style="normal" xml:space="preserve" text-anchor="start" font-family="'Shadows Into Light', serif" font-size="30" id="svg_52" y="606.933285" x="797.626761" stroke-width="0" stroke="#505050" fill="#ffffff">中央山脉</text>
  <text font-weight="bold" xml:space="preserve" text-anchor="start" font-family="'Shadows Into Light', serif" font-size="20" id="svg_53" y="159.829246" x="519.848657" stroke-width="0" stroke="#505050" fill="#ffffff">绝境之地</text>
  <text stroke="#505050" transform="matrix(0.7787663773188669,0,0,0.7787663773188669,134.04652529840507,63.3504156721448) " font-weight="bold" xml:space="preserve" text-anchor="start" font-family="'Shadows Into Light', serif" font-size="12" id="svg_54" y="272.79937" x="552.76594" stroke-width="0" fill="#ffffff">寡妇望</text>
  <path id="svg_55" d="m1106.419827,572.265943l32.036031,0l9.89938,-30.434098l9.899386,30.434098l32.036026,0l-25.917646,18.809092l9.899892,30.434098l-25.917658,-18.809604l-25.917652,18.809604l9.899895,-30.434098l-25.917655,-18.809092z" stroke-width="2.000607" stroke="#505050" fill="#ffffff"/>
  <text stroke="#505050" transform="matrix(1.7285073995590208,0,0,4.913237001109984,-863.336310124505,-2320.254094479191) " font-weight="bold" xml:space="preserve" text-anchor="start" font-family="'Shadows Into Light', serif" font-size="12" id="svg_56" y="594.827254" x="1186.170285" fill-opacity="null" stroke-opacity="null" stroke-width="0" fill="#ffffff">大陆会议执委会制</text>
 </g>
</svg>