<svg width="1365.9999999999998" height="625" xmlns="http://www.w3.org/2000/svg">
 <desc>JavaScript chart by amCharts 3.21.15</desc>

 <desc>This map was created using Pixel Map Generator by amCharts and is licensed under the Creative Commons Attribution 4.0 International License. You may use this map the way you see fit as long as proper attribution to the name of amCharts is given in the form of link to http://pixelmap.amcharts.com/ To view a copy of this license, visit http://creativecommons.org/licenses/by/4.0/ If you would like to use this map without any attribution, you can acquire a commercial license for the JavaScript Maps - a tool that was used to produce this map. To do so, visit amCharts Online Store: http://www.amcharts.com/online-store/</desc>
 <g>
  <title>background</title>
  <rect x="-1" y="-1" width="1368" height="627" id="canvas_background" fill="none"/>
 </g>
 <g>
  <title>Layer 1</title>
  <g id="svg_1">
   <path d="m0.5,0.5l1365,0l0,624l-1365,0l0,-624z" fill="#444444" stroke="#000000" class="amcharts-bg" id="svg_2"/>
  </g>
  <g id="svg_41" stroke="null">
   <path d="m242.41999,138.87913l24.8455,1.25072l36.92725,-9.90174l5.00945,5.08142l0,0l2.8838,24.52582l0,0l14.80148,2.86662l0,0l24.60961,-6.11242l0,0l55.42696,-48.95365l0,0l99.875,-29.30355l0,0l34.57476,-13.18437l12.0295,7.35934l3.46873,10.90969l-10.91215,12.39018l14.7183,21.52153l-0.96372,22.46867l-11.64765,10.38228l9.06053,-3.55727l2.20003,13.27691l-12.54495,10.83978l13.56392,0.08963l-12.8971,11.88069l19.21952,-2.96209l-8.55817,15.02296l-12.67221,2.39951l-17.39764,20.24568l-4.96807,-20.12287l-15.80626,-0.48229l-15.40002,-19.4142l-28.26525,-5.51946l-18.61226,4.72192l33.12637,5.17882l2.18316,9.18932l11.91964,-3.49394l7.91568,9.31811l-26.93749,14.36477l7.98084,2.53902l10.5175,-7.50689l14.65677,7.18873l-21.13786,39.92268l-30.45506,-0.60773l17.07521,19.16106l13.16919,-7.03118l-3.0417,10.57653l13.75761,-13.48127l4.40614,12.48962l-14.85037,18.3863l17.79973,7.09483l-12.94038,32.95714l27.49655,9.34246l-14.89864,15.21003l-14.98066,2.93519l-14.89014,35.35602l-12.27796,6.59494l0.20967,10.71299l-24.80901,6.00889l-2.18879,-12.70644l-16.21381,-7.33169l0,0l-19.15494,-2.85675l-45.89226,22.46336l-2.60507,-5.69148l0,0l-23.00682,-5.92659l0,0l-36.23538,15.82572l0,0l-81.50413,-13.65317l0,0l-46.85968,-7.67232l-28.30421,11.95271l0,0l-31.69054,15.5119l-28.66455,4.46764l-17.1928,-35.61493l20.57998,-27.30718l0,0l10.98638,-14.94986l-4.02934,-11.42154l-23.62946,-10.57707l0,0l36.82523,-46.20253l0,0l0,0l0,0l18.68854,-10.73847l0,0l0,0l0,0l13.3431,-13.23267l-22.44418,-11.6418l0.03153,-14.22293l74.06924,-69.09545l61.52828,-29.50434z" stroke-width="1.317931" fill="#818181" class="amcharts-map-area amcharts-map-area-KR-31" id="svg_11" stroke="#505050"/>
   <path d="m639.93304,505.40229l1.7321,-3.44065l0.385,2.91682l2.41009,0.45286l-1.41698,4.8062l1.87463,1.79562l-3.64196,0.7714l-2.14013,-4.02514l-3.51215,-0.19026l-0.10526,-2.42861l4.41466,-0.65824zm-22.80992,-13.39841l-0.19352,-4.46479l3.05733,-0.50233l1.04838,-5.39664l-3.50255,2.03979l-2.86096,-4.82839l-5.61334,0.8221l-4.2496,8.60564l-3.93179,-3.78472l-3.63084,3.09764l-4.82488,-0.70986l1.03237,4.0953l-5.36934,-1.40116l-2.89966,8.1574l-2.44694,-3.06823l-3.43658,3.68341l-8.56305,0.1551l-1.56861,5.3864l-2.81942,-5.69628l-3.01194,-0.2767l-6.715,3.40697l-1.41529,4.90609l10.55557,14.03885l8.66084,-5.87305l13.77338,1.53392l5.25898,-3.15385l7.80128,4.18424l-1.24628,-5.07356l8.92618,2.56145l0.63634,-8.99829l5.0598,2.17311l3.74562,-6.2932l-3.06647,-3.66539l-0.22261,-7.08364l2.03261,1.42267l-0.00001,0zm-196.01193,-23.66801l-5.44604,1.69929l-0.65974,8.70183l7.33515,0.00428l-1.22937,-10.4054zm207.18979,9.33148l-2.89474,2.24468l-0.09487,3.77665l1.35058,3.52326l3.68276,-1.83898l-3.27858,9.21592l4.39292,2.7358l-0.7264,-6.89746l3.77735,-19.37902l-2.5056,-0.64771l-1.53068,10.03561l-2.17274,-2.76875zm74.77875,-411.51499l-4.58723,7.93837l-7.35154,0.95672l-7.60683,-4.81136l-8.17571,0.93463l-7.92321,6.69895l1.15084,10.35892l-4.19614,14.03921l6.29021,12.54155l7.75392,8.26539l-5.1617,13.67683l-9.51899,7.80621l-8.9526,2.06385l0.24985,5.76424l21.43865,1.72824l5.91109,3.61219l0.19994,4.61288l-8.07589,3.23736l-2.06996,9.15956l-5.50871,5.60993l-8.99987,0.91254l-4.58458,7.93845l-10.64291,0.86852l-5.14717,6.15949l-3.27486,6.37977l-7.97861,4.26428l-10.68278,-0.78179l-7.4192,0.7959l-10.08883,4.70325l-3.47766,9.8577l-6.44963,6.79021l-5.31161,0.35686l-6.56801,-4.15858l-8.17558,-0.21909l-9.21846,0.25217l-8.84035,0.75781l-6.50301,-2.65922l-8.13242,0.77679l-5.24414,1.85261l-5.15798,3.84066l-4.68473,-1.61578l-3.27676,-10.03871l1.72156,-9.40556l4.02596,-5.36492l3.83428,-9.84815l2.07817,-9.396l-0.92745,-9.0402l-21.36389,-18.99517l0.22449,-13.81284l-5.18689,-5.89654l-9.67167,4.34464l-5.25887,11.37416l0.46135,10.64367l-1.08967,3.95707l-5.28515,-0.73698l-1.19192,2.14609l-1.63008,5.42913l-6.97391,0.65991l-4.60395,10.35262l-6.23363,3.1906l-1.02517,18.77607l-8.39136,11.90775l-3.28024,10.94277l0.63574,9.55378l5.93668,11.26372l5.46385,18.3731l-3.43455,27.77492l6.0297,12.92285l3.52703,16.66456l-1.15054,13.14459l-12.94949,5.17756l-0.85216,4.14094l-9.99594,5.93341l-3.63671,-0.38589l-4.14642,27.60424l-2.01472,1.30311l0.41278,23.4628l-9.61163,24.8434l-0.59777,8.12294l-5.71124,5.56381l-1.57544,7.42004l1.87055,3.3449l3.74045,2.71832l1.38445,-1.90427l6.80632,9.7783l4.8459,-3.55319l1.9268,4.70352l-3.11074,9.80098l-0.40067,14.61794l3.09692,7.83737l-1.25107,2.97282l4.71877,7.39272l-0.83734,2.59564l4.78348,-1.03664l1.3946,-11.59235l-1.4273,-3.04089l3.20658,-1.56331l0.27339,-3.67573l3.80196,6.20703l-2.81866,2.53884l0.39539,9.12208l2.87849,0.84999l-0.66197,-5.35003l2.99008,-0.59288l0.28326,-3.38703l3.56391,0.77591l-2.56569,-3.55583l0.50273,-4.34998l4.68994,-3.07296l-3.8035,-6.30321l0.97551,-3.36478l3.96079,0.01l1.84797,4.8937l2.96473,-1.17782l1.81065,-7.89815l3.11594,12.29379l4.02429,-0.47272l-0.37565,7.16005l2.09152,4.6081l5.76219,-2.07538l3.50411,5.42249l4.76765,-3.16701l-4.49129,7.53418l-4.54729,-1.67126l-0.52019,5.89522l7.24418,4.3579l1.82566,-3.53428l3.14491,1.15295l2.87784,-3.12152l-1.28257,4.13311l2.46321,3.26094l-0.99806,2.78362l2.75402,0.16994l-0.0151,3.48667l2.9899,1.53337l-6.04157,3.42131l-2.01887,-0.92309l-2.89956,-11.31915l-1.83201,-0.62966l-0.86804,7.73112l-3.11385,-0.37557l-9.91434,-6.36713l-2.78068,-6.56794l0.15565,3.59108l-4.19446,0.56431l-3.61549,6.00825l-8.53484,-0.22872l-3.60134,-3.58727l0.42134,3.69434l-2.63011,2.93217l-0.85328,-3.79836l-4.16867,-0.78842l5.11843,8.76054l13.36991,-3.51336l3.58433,3.19485l2.78605,-1.28245l-2.25201,13.60319l-1.88351,-1.69602l0.49444,5.44169l5.37867,8.85996l-1.92118,3.33944l6.02603,2.00301l-0.04725,6.88412l2.97644,-4.86425l1.9526,3.3508l4.37062,-2.40481l-0.33153,-3.69193l7.56752,7.86103l3.90695,-5.12775l0.43539,4.07929l11.18769,-5.70919l-9.42183,6.82149l1.48569,2.56175l-9.82449,-0.45926l-0.00506,3.77906l-2.83226,0.21623l2.0569,1.8005l-0.6732,2.30421l2.6627,-2.05861l0.23432,3.39721l2.97966,-4.66819l3.13054,0.7606l2.87833,4.92501l1.60187,-2.67129l4.19861,1.66191l2.40572,3.94351l-1.30901,1.51432l3.35323,-0.00629l1.23596,6.72253l7.20544,-4.26651l-0.1388,-3.20236l13.20455,5.39402l-7.54909,-11.63604l-9.53323,4.00815l1.98651,-5.66734l-1.25454,-13.11659l3.69046,3.87809l2.53004,-7.00617l-1.743,-4.60246l6.39101,4.82316l-1.88782,-3.92593l1.57667,-3.25253l5.32249,5.8595l-3.46981,13.08244l4.16432,6.89714l8.59434,-1.8072l0.40357,-14.42927l-6.27415,-4.13592l-0.96983,-8.55692l-2.24835,-2.3825l-4.76515,1.03343l-0.07763,-7.75647l-4.34268,-6.99436l1.91529,-1.40563l0.90427,3.02689l5.86122,0.45289l3.79168,4.26539l5.62349,-1.01413l0.42231,-8.03149l5.92979,-3.80888l8.31041,-0.26172l2.14405,3.9328l7.81493,2.24694l4.38739,-3.66163l-16.26489,-25.04872l2.57261,-15.8244l8.55585,-18.27843l7.86232,-2.50353l4.56651,2.54077l7.25849,-8.52131l-3.58922,-5.62077l7.22595,-15.11543l-5.24438,15.36083l5.90029,7.62406l9.03746,1.11118l7.28165,-1.83868l3.22838,-4.46923l3.21206,1.05861l-3.93104,-9.7937l-3.73814,-1.265l-0.29535,-2.91811l-9.06008,-9.54658l2.26897,-8.95084l-2.41529,-8.30352l3.41437,3.77825l-0.76351,9.96002l7.39202,2.71632l-0.01649,5.52414l4.18245,5.73281l0.20171,4.6536l4.752,8.9504l5.20042,3.53028l8.54379,1.77466l-0.20142,-6.59496l7.8862,-17.2314l1.27737,-11.98377l-0.18586,9.59093l8.0957,15.2376l0.46491,4.76049l17.48172,-16.3937l8.56661,6.62314l11.73341,-2.98034l4.50848,5.6454l5.86112,-0.52334l2.68409,2.87859l-0.22108,8.71729l7.25801,0.29435l2.38715,-3.91122l-6.36231,-1.23917l-1.04241,-4.3877l2.05718,-9.63692l4.71858,-3.26447l-3.89464,-5.24068l5.39556,-9.25533l7.54647,-4.73809l-2.0086,-3.06018l1.11298,-3.84551l2.21251,0.15543l-1.03449,-4.38748l5.51037,9.15932l-0.67815,-3.89722l7.37125,-0.86744l-0.42176,-3.88665l6.45349,-8.162l1.40046,2.84789l5.61286,-0.04187l1.84505,-2.66108l-1.80012,-4.21571l2.12524,-15.73654l-5.93143,-5.29896l0.75435,-2.50171l-1.68059,-4.86703l3.3446,-5.37948l-15.01174,-43.00886l-22.25814,-0.60757l-7.81713,-17.5154l1.17715,-13.56543l5.38022,-13.74862l-1.20398,-4.70634l4.95016,-7.96563l9.82138,-0.89053l0.1146,-8.9827l5.24262,-1.82676l0.07485,-9.4127l-6.45598,-21.11391l4.53367,-10.39148l-1.67369,-19.62124l-6.47995,2.1338l0.12452,-16.11926l-5.70232,-9.08311l4.10822,-4.07587l12.97872,-10.59042l18.47349,-7.69567l-4.90063,-18.28405l13.04849,-2.22403l-1.87363,-24.23411l-5.08428,-3.59004l-5.83923,-0.73704l-0.64541,-3.81129l-2.94122,-7.04556l5.80938,-14.98699l-7.85669,-10.57561l-6.55103,-0.17555l-16.13142,7.61422l0.00001,0z" stroke-width="1.317931" fill="#818181" class="amcharts-map-area amcharts-map-area-KR-44" id="svg_17" stroke="#505050"/>
   <path d="m352.45148,309.86819l-6.23912,1.22155l0,0l-2.03204,0.88508l0,0l-0.08872,5.30918l-2.68913,1.33685l0,0l-11.74062,1.93676l0,0l-4.70226,3.91695l0,0l-21.09806,2.55018l-4.28845,1.83086l0,0l-5.7032,3.42574l-1.43714,5.94427l0,0l-1.84645,1.13669l0,0l-5.95675,2.43157l-0.72966,3.63579l-7.17878,3.54239l-2.28064,3.80054l8.2793,11.97683l0,0l1.3537,3.27654l-2.16061,3.47639l-11.07586,3.81415l-10.64971,-0.49661l0,0l-9.34478,-1.55222l-13.2125,3.6925l0,0l-6.09858,4.86497l0,0l-4.79445,2.87268l-7.35482,0.40244l-11.42727,-4.26806l0,0l-4.75298,-0.42726l-7.06651,2.31462l0,0l-4.39941,-1.554l-5.38989,-8.29376l-3.942,-0.13847l0,0l-1.68542,2.71983l2.41585,6.02794l0,0l-3.92698,7.73133l0,0l-12.3857,7.93901l-18.23686,-0.95747l-21.73215,7.118l0,0l-5.65618,1.56721l-18.00658,-6.51493l-2.98308,0.81596l0,0l-16.44358,-7.27111l-6.38388,0.53736l0,0l-8.62707,2.38231l0,0l-10.75121,3.95409l-3.03368,-0.50415l0,0l-2.60049,-1.42473l0,0l-3.67591,5.19243l0.47831,2.95158l3.99126,1.84966l0,0l7.3995,3.31497l0.52907,9.76803l-6.44289,2.58817l-8.34427,0.59058l0,0l-7.23148,0.93541l-8.81782,7.44211l0,0l-15.2989,13.00823l0,0l-9.31797,1.08512l0,0l-3.35003,3.38137l0,0l9.8483,4.81154l2.34878,3.61747l14.98603,0.10213l13.12879,12.56221l5.48107,-1.03145l12.82005,4.13486l13.95984,9.05773l12.66818,-0.60542l12.54239,4.05677l7.06091,0.0847l2.93793,9.97224l21.91754,3.76181l0,0l6.23026,4.08605l2.71896,-1.68516l-0.07242,2.53846l6.64238,-1.83251l3.77964,1.87482l0.8789,-1.55492l2.70056,0.19783l-0.14643,-1.87335l3.74314,-0.32806l2.10445,1.53926l1.91742,-1.63046l-5.26921,-4.10723l1.24692,-3.7905l2.53851,-0.76413l-0.95939,-1.94614l5.36657,1.24728l-1.02104,3.64419l3.90707,1.67234l0.53901,-3.15798l5.18693,-1.85779l-1.31457,-2.63579l5.69402,0.24458l1.83862,3.37866l1.64271,-1.80448l2.64255,0.33429l-2.66931,-2.02061l0.82053,-3.89269l4.27968,-2.51245l-0.41244,-6.53834l-12.7463,-3.90792l13.21168,1.79781l7.54867,4.72993l-3.71387,3.51302l1.30414,2.57137l-3.38519,0.50229l-2.18876,4.44366l6.80291,0.62226l0.62475,1.38333l-7.6797,0.41322l0.94196,6.82058l-6.79303,4.43964l7.0749,0.7985l-2.08262,2.09424l-4.25913,-0.34613l-2.40681,1.59585l18.61954,2.25408l-4.69074,-2.00177l1.2061,-0.54356l5.92432,-0.80623l-1.30778,2.88248l3.72287,0.0603l3.31917,-3.9331l-6.83604,0.16208l0.56116,-2.50789l-6.03054,-1.84584l11.1201,-3.12285l-2.0765,-1.34778l2.62508,-0.24893l-0.22784,-2.9082l3.70968,3.43969l4.91462,0.94937l7.2772,-2.91603l-0.04668,1.68948l3.24889,0.61517l6.65154,-2.28932l0.98332,2.07478l-8.33413,4.87454l3.14629,-1.00672l1.58599,1.83866l6.45347,-0.06983l4.62513,3.63149l3.51258,-0.24862l0.75054,-1.87166l8.92239,3.26217l2.18057,-0.99538l-1.63748,3.35791l3.90648,0.69897l3.74768,4.66293l-8.66074,-1.59044l-0.89182,-3.50676l-4.8394,-1.47399l-12.70754,-1.17776l-0.09459,-4.08248l-2.46293,-0.21464l-0.92712,1.75179l-3.41989,-2.67821l-3.40907,2.90292l0.55352,2.42695l1.08953,1.74143l5.41097,-0.5133l-5.92613,1.78385l0.5363,2.8151l-5.50061,3.43991l3.20155,2.30062l2.37643,-1.26991l2.47063,3.77991l3.74559,-1.30166l0.49088,2.0404l15.54842,-2.72149l0.38865,2.89275l-6.04554,-0.41723l-3.54604,1.03093l-0.37606,2.16692l6.54343,3.48961l-1.6719,0.63559l1.82416,3.3084l-2.74358,2.00866l5.92915,4.69996l-2.14863,1.70588l2.08933,1.40796l0.34527,5.6104l-8.24773,-6.02042l1.36274,-3.07577l-3.78457,0.07236l-2.53393,5.29896l-2.87221,0.72055l3.06181,4.44267l2.76051,-2.91199l0.63263,3.90388l2.59038,-0.444l-0.78043,4.65352l12.42134,1.90263l-8.17366,1.87165l-0.41782,1.90921l0.75566,4.14973l3.08007,0.1058l-2.1938,1.90254l5.84167,0.16692l-4.23683,2.75786l4.23786,4.22707l7.45835,-1.30377l-0.30843,-3.4055l2.59804,0.592l-1.25802,-2.30582l2.16218,-2.61102l2.22444,1.78533l3.1841,-1.78121l-4.8593,-1.5968l-0.25594,-2.56816l8.70262,-3.07598l3.50668,1.69254l1.41284,-2.23419l-2.92836,-0.63379l0.25241,-2.92998l-1.63296,2.37807l-3.2626,-2.16394l-2.8023,3.11045l-2.09241,-0.95158l-2.934,5.32117l-0.00671,-3.55923l-2.93053,0.85501l-3.12176,-1.33286l3.45182,0.40328l2.20757,-1.32313l-1.55336,-1.63733l4.02187,-0.09119l0.74818,-2.38061l-5.71367,-2.38145l-8.82379,0.88315l0.84179,-1.28959l8.54534,-0.60482l0.90753,-4.85802l1.10577,1.34725l2.25945,-1.00301l-0.26499,3.84116l4.6853,-0.9792l0.88785,-3.49628l1.1484,3.09353l1.6633,-2.19082l4.13972,1.13047l-0.32536,-2.50216l3.53129,1.36904l4.54691,-5.82633l-4.45992,-1.10985l-12.32995,1.13335l2.72344,-9.58687l3.17244,0.16239l-0.98636,-2.13158l3.78272,-1.56698l-0.22323,4.09886l6.44185,1.36057l-0.76627,4.2656l4.64289,1.74448l1.91503,-1.62621l0.37756,2.82429l4.4087,-2.19167l-1.12445,-6.4635l4.94652,-0.8694l0.90167,-0.38761l5.05426,0.28986l1.5638,-1.34069l1.54291,1.57289l6.21009,-0.05057l-1.98256,2.73068l1.76479,7.3916l5.69681,-0.727l1.53899,-2.95791l1.02779,2.38728l2.23611,-0.15827l1.68052,-2.57896l5.06097,0.80664l3.14112,2.95453l2.42862,-3.9332l3.27927,0.28923l1.9006,-2.20966l-5.53775,-2.26561l12.9117,-1.04215l9.82862,-4.64635l2.20822,-4.30452l-7.38703,-4.20782l3.40048,-4.45815l-3.87173,-4.45866l1.01677,-1.69298l2.44394,1.12424l0.3119,-1.06066l-5.68916,-10.69187l-3.83492,-1.74058l1.81182,-0.7799l6.65,2.64509l5.1099,9.1139l4.07192,-1.77888l-3.79722,-1.03253l0.49058,-1.46023l2.5106,1.57365l5.92856,-2.30129l3.15095,2.50175l-5.94546,-0.29399l-2.11639,5.85998l-3.35017,0.75641l4.28677,6.50646l2.43261,-3.41419l5.15802,3.91553l2.72668,-4.60393l7.101,2.4808l-1.23383,1.83663l4.37187,-1.41114l-1.38788,-1.58591l2.50012,-1.02004l-2.3884,-0.28712l-0.64556,-2.48153l4.24198,-3.2205l3.08367,7.56299l2.80275,-0.19837l-0.79509,2.58554l3.07877,0.04072l1.3928,2.62414l6.02072,2.29863l9.00337,-0.25031l0.22044,-3.12729l1.88277,0.6467l1.39801,-1.85029l1.95891,4.13992l5.15096,-0.88183l0.40588,0.81233l4.11848,-17.02698l0,0l4.87127,-3.0451l0,0l9.593,-8.40116l0,0l2.9834,-2.33517l0,0l-0.35384,-5.87249l17.85735,-14.39081l-0.24458,-18.71796l7.11274,-6.57406l-3.16986,-4.36782l0,0l-0.7642,-0.36135l0,0l-7.48614,-4.15397l0.73874,-5.88058l-4.54347,-6.07489l-12.41852,-6.37282l0,0l-2.6912,-7.95529l4.82338,-1.21095l1.47128,-4.02225l-3.17459,-6.56481l3.12328,-4.83767l0,0l0.33911,-5.93172l0,0l7.9826,-3.35492l-0.23642,-4.69152l-20.56715,-27.83039l0,0l-2.97411,-1.41051l-1.09602,-3.8161l0,0l-3.94656,-9.52207l-16.55861,-8.45632l-6.36915,-7.83346l0,0l-2.13115,-0.81036l0,0l-5.98659,1.31568l-5.92794,-1.91624l0,0l-4.44468,0.29626l-10.05471,-3.1189l-7.72866,-8.84506l-7.56079,-2.54193l0.24104,3.92142l-3.14099,2.99798l0.00001,0.00001zm-229.65676,202.13491l-1.05232,2.99474l-3.20376,-0.35567l-0.86632,3.62916l6.06275,6.51313l-1.73606,1.74184l4.59348,3.4362l-0.99491,-1.15756l3.04497,-2.16439l-2.8746,-2.26064l5.939,-2.23685l-3.12948,-1.39951l4.45132,-6.41624l-10.23407,-2.32421zm41.2662,5.51422l-2.36473,-1.12984l-3.82752,1.30949l-2.23915,3.1439l3.17517,3.14558l3.16137,-0.41925l-1.17423,2.22341l4.17321,-0.16503l-2.22813,1.19628l1.92755,4.4028l-5.60291,2.2762l-2.00282,6.10446l2.60148,-0.37555l-0.72058,6.01167l3.90793,0.17549l-1.49078,2.76104l6.43942,1.87799l0.50371,2.10058l-4.29969,0.88675l0.61058,1.77125l-6.38965,-4.08088l-2.77182,1.359l0.55566,1.45134l-0.95416,2.59273l2.22622,1.26387l3.578,-0.83363l-2.73139,5.05024l3.52299,0.329l1.43372,-2.10534l5.2166,1.76701l-1.52856,3.02234l-2.96428,-1.8633l-2.0596,1.24749l2.18939,2.0444l-4.8003,8.75026l8.5064,-2.34729l-1.9407,-1.47958l1.86659,-2.91389l4.13748,3.58862l2.01233,-0.53139l-1.04063,-2.44746l6.15796,-1.34207l1.46545,4.55566l-1.87729,1.8781l4.80432,2.24625l3.44997,-1.14836l2.81316,3.42168l-3.44829,5.09487l-8.16043,0.9645l1.89035,2.70908l5.47219,-3.10189l7.91719,1.50867l0.32673,-1.44456l1.68654,1.4324l-4.56381,3.23105l0.78183,1.82023l3.51874,-1.21839l5.0244,2.61555l5.20785,-2.24213l4.15995,1.25531l-3.13971,-4.42902l-6.62691,-1.53279l8.2587,-2.84905l-1.43073,-4.87377l-6.27886,0.12061l2.38016,-1.72227l-1.7937,-1.61827l6.44405,-0.58439l4.20904,2.547l2.2009,-2.3531l-4.76654,-2.50754l2.9824,-0.53488l4.74259,2.83507l-1.06394,-2.05889l1.8708,-0.91033l-13.71503,-1.42414l-0.82537,-4.59893l-3.48667,-3.05226l2.21889,0.22988l2.53335,-3.28692l-3.08927,0.86421l-0.30694,-1.39972l4.12047,-1.97373l3.28558,4.81579l10.04595,-0.77619l0.76589,2.72961l2.23244,-0.67527l-0.81757,1.93343l4.07096,1.20051l2.32306,-3.59583l-2.35425,-1.5786l7.15076,-2.70751l1.5007,-7.68178l-6.77272,-5.93136l-2.49733,0.04846l0.96887,-1.49409l-2.35953,0.87976l1.17855,-1.70239l-4.32797,0.69325l-3.30226,-2.94109l-10.82145,6.46796l-2.84549,-0.1224l1.37137,-1.9767l-4.63618,-1.22771l-10.48838,6.05135l0.83448,-5.82219l3.12488,0.36328l-1.14108,-2.05953l6.608,-5.06803l-6.75619,-5.81034l0.52891,2.75045l-8.02282,-0.14492l-0.12253,-1.28854l-4.60793,2.4644l-0.06472,-3.36573l-3.63232,-2.01151l1.43674,-1.59236l-3.2759,-0.28744l1.25744,-1.71l-3.31639,-0.0239l-0.89486,-0.52113l-2.46884,-1.31593l4.03231,-0.02677l-3.29183,-5.86209l-2.75921,-0.06537l-1.8178,0.70497zm12.46959,1.19257l-1.03543,2.60458l3.65068,7.06874l5.39197,0.39629l1.29213,-1.51493l3.86255,1.93005l-1.09044,-2.77384l-4.4228,-1.37518l2.46481,-1.73233l-4.79916,0.27654l0.35246,-2.29354l-5.66677,-2.58638zm220.03761,1.99873l-6.29331,3.03578l-0.81688,-1.56115l-1.82292,0.71144l1.81631,11.20832l7.05463,1.18687l1.52596,2.9324l-4.07906,5.72805l2.05863,1.73189l-9.19347,3.56484l0.21633,4.32028l-5.10831,0.87881l0.75891,-1.80098l-9.61512,-3.52472l-11.43227,0.22672l-4.01305,3.13098l-4.27943,0.49839l-0.68132,4.77073l3.61234,-0.12738l-1.12396,2.02029l2.71216,2.26602l-1.48543,7.28156l8.08565,5.57166l-7.00321,4.1124l12.08304,0.82282l-2.62404,-3.75683l2.67304,-1.41717l2.49088,0.40612l0.11442,2.18923l4.56864,-0.71028l0.76663,-1.73433l1.90688,2.77308l7.80278,-0.68056l2.35553,-8.89084l-3.06936,-6.96122l13.69042,1.74764l-0.95494,7.56985l6.90223,2.22401l8.89567,-1.92275l-1.51432,-1.37739l3.13749,-1.06108l-0.95435,-2.39044l4.5201,-0.51542l-1.81507,-4.20304l-3.35205,-0.28204l4.22435,-6.31465l-1.18248,-2.82842l5.68251,-6.29158l0.83176,-5.81997l-3.83544,-3.74033l-2.97595,0.0803l-0.93257,-4.27162l-4.05127,-2.56224l-1.0002,1.3008l-5.09976,-0.09521l2.5404,-2.76812l-0.82885,-3.11819l-3.39959,-0.53731l-1.68136,-2.40822l-6.80835,-0.6178zm-38.45356,8.3626l7.90261,12.39041l-3.81803,0.85469l-0.2753,-4.18984l-4.5676,-3.23846l-2.98675,0.47003l-0.12068,3.24852l-1.92326,-0.38317l-2.84613,2.859l0.8552,2.78642l3.69337,1.87482l-2.41265,-0.47479l0.77973,2.33966l-4.39301,0.31093l-2.6396,4.13345l3.87272,-2.01933l2.43013,1.05801l2.64414,-2.12788l2.49795,0.46876l6.44839,-3.56198l1.35072,2.36442l4.33497,0.33874l9.68985,-2.49826l0.62793,-6.58346l-4.2607,-1.38258l-7.29303,-7.12658l-9.59097,-1.91153zm-46.53831,17.79945l-8.75363,4.24443l7.65237,-0.08749l6.81444,3.65981l-0.02332,-2.65387l3.8052,-0.91487l0.44182,-2.74993l-9.93688,-1.49808zm-9.81647,5.15867l-7.45076,6.35157l1.93494,1.48202l6.08273,-0.81744l-0.18675,3.82951l11.33542,-6.30069l-0.73735,-1.56475l-3.54636,1.02892l1.79837,-1.35729l-3.03944,-2.30803l-6.1908,-0.34382zm-70.26356,10.41242l2.06779,1.27508l-2.71744,0.19234l-0.55278,7.02819l-3.75995,-0.25114l-1.40639,1.77961l1.343,2.29777l6.10507,1.83038l5.9237,-1.32344l-2.12769,-2.17707l3.49271,-3.87003l-1.46818,-4.55343l-0.85784,3.68151l-2.43929,-0.6012l0.13909,-2.14608l1.87696,-1.88011l-1.14655,-1.59892l-4.47221,0.31654zm74.88611,33.09687l-8.1937,3.74456l3.26169,1.18854l-2.56559,2.11825l-3.4105,-3.11467l-4.07715,0.22544l3.5351,4.39695l7.30675,-2.25831l5.64639,1.47185l0.78117,1.81621l2.66253,-0.51225l0.61221,-1.2041l-3.66045,-1.15829l2.21127,-1.31931l-1.04646,-1.47567l2.79756,0.83447l1.12088,-1.5639l-3.48119,-0.52746l1.75697,-2.12617l-5.25748,-0.53614z" stroke-width="1.317931" fill="#818181" class="amcharts-map-area amcharts-map-area-KR-48" id="svg_13" stroke="#505050"/>
   <path d="m755.81884,184.62882l13.25967,3.25182l18.59298,-2.75329l3.13113,3.77082l0,0l3.84956,16.10453l0,0l8.10038,3.30575l0,0l12.43711,-1.52109l0,0l24.67682,-26.12379l0,0l50.04825,-9.07409l0,0l17.03761,-5.1023l7.06001,5.93104l2.86857,7.37881l-4.59738,6.91862l9.82429,15.3312l1.6196,14.39891l-5.17669,5.55101l4.45514,-1.40304l2.42186,8.78099l-5.60793,5.75782l7.18265,1.39262l-5.69554,6.39462l9.88476,-0.01936l-3.10282,8.84858l-6.47511,0.30078l-7.2832,11.3477l-4.53472,-13.46946l-8.40585,-1.86658l-9.98516,-14.03892l-15.47297,-6.34197l-9.39679,1.21433l18.01181,6.60062l2.02555,6.14255l5.97335,-1.08083l5.06978,6.78976l-12.88628,6.61531l4.46179,2.42322l4.85144,-3.8074l8.43345,6.07955l-7.39668,23.67256l-16.16572,-3.38907l10.84721,14.04048l6.29903,-3.23961l-0.60647,6.52321l5.99898,-7.34241l3.51411,8.49022l-6.11212,10.39895l10.0869,6.32827l-3.72103,19.98604l15.4287,8.73241l-6.43867,8.34531l-7.64532,0.41914l-4.52495,21.3416l-5.869,3.04591l1.12617,6.93121l-12.55239,1.43469l-2.36186,-8.41186l-9.27055,-6.32501l0,0l-10.40204,-3.72781l-22.14425,9.97412l-1.91723,-3.92773l0,0l-12.73029,-6.08711l0,0l-17.66563,6.64273l0,0l-44.40259,-16.82791l0,0l-25.51186,-9.56055l-13.83776,4.92488l0,0l-15.29153,6.88756l-14.73769,0.06106l-12.46871,-24.66586l8.29717,-15.58965l0,0l4.39406,-8.56247l-3.21358,-7.76416l-13.50034,-9.14824l0,0l15.09882,-26.17969l0,0l0,0l0,0l8.86696,-5.0879l0,0l0,0l0,0l5.80331,-7.22285l-12.97434,-9.71842l-1.3312,-9.17162l32.62816,-37.28197l29.74709,-12.97729l0.00001,0z" stroke-width="1.317931" fill="#818181" class="amcharts-map-area amcharts-map-area-KR-31" id="svg_39" stroke="#505050"/>
   <path d="m903.25948,189.62108l8.49195,2.78697l11.6038,-1.07341l2.13002,2.70359l0,0l3.09516,11.1358l0,0l5.24256,2.60116l0,0l7.77526,-0.49963l0,0l14.46731,-16.73001l0,0l31.16582,-4.02204l0,0l10.52595,-2.74055l4.69593,4.34452l2.11442,5.14988l-2.61008,4.51437l6.82858,10.86677l1.61889,9.87782l-3.03201,3.55782l2.74956,-0.76352l1.89113,6.08572l-3.2952,3.68009l4.5847,1.25842l-3.32397,4.11008l6.22903,0.41319l-1.58797,5.89346l-4.06842,-0.07443l-4.11883,7.41542l-3.41751,-9.37045l-5.3753,-1.63403l-6.8763,-9.99346l-10.01524,-4.98732l-5.87186,0.42181l11.62608,5.27302l1.53176,4.27143l3.7198,-0.47855l3.47726,4.8436l-7.84674,3.95022l2.91269,1.84306l2.89945,-2.38417l5.56769,4.50492l-3.67837,15.80572l-10.32918,-3.00581l7.41967,10.0317l3.83536,-1.93498l-0.11124,4.41719l3.47583,-4.74259l2.56744,5.93478l-3.42017,6.81969l6.62012,4.74566l-1.51495,13.45317l10.08664,6.61368l-3.71129,5.40675l-4.80103,-0.04428l-1.9653,14.34184l-3.5724,1.82159l0.99769,4.76983l-7.85151,0.4358l-1.83798,-5.83169l-6.10547,-4.70823l0,0l-6.71071,-2.98793l-13.54203,5.83876l-1.37148,-2.75811l0,0l-8.27609,-4.69542l0,0l-10.85776,3.76274l0,0l-28.68364,-13.37782l0,0l-16.47591,-7.61272l-8.51663,2.75772l0,0l-9.35133,4.03192l-9.28585,-0.59412l-8.88298,-17.33923l4.58166,-10.26113l0,0l2.41366,-5.64286l-2.34787,-5.42725l-8.88857,-6.81375l0,0l8.42848,-17.18125l0,0l0,0l0,0l5.37702,-3.08318l0,0l0,0l0,0l3.35748,-4.66959l-8.58074,-7.17945l-1.21998,-6.30475l19.01511,-23.98752l18.20893,-7.55644l0,-0.00001z" stroke-width="1.317931" fill="#818181" class="amcharts-map-area amcharts-map-area-KR-31" id="svg_38" stroke="#505050"/>
   <path d="m1229.01231,478.71164l0.23811,3.95235l3.67535,-5.31157l3.01411,2.91406l-1.0671,-5.02425l2.76545,-0.82199l1.52175,4.74634l0.13558,-3.7719l6.32631,-3.00659l-1.60144,-3.1256l2.72205,-0.26982l-6.10194,-3.03999l0.30784,-1.17353l-3.30188,-2.38847l-1.7095,6.28186l-9.69862,0.64783l2.77393,9.39127zm-95.02813,-45.64619l-3.02861,-1.10872l0.09927,-3.87966l4.65461,-7.5081l0.01491,-5.97836l2.74642,0.04128l-2.78307,-2.69712l7.24793,-0.04132l2.00408,-5.87633l-2.68458,-1.23739l0.85248,-3.95241l13.43827,-11.11021l2.83994,7.27004l-2.09313,2.59629l6.89005,7.24503l1.54589,-2.82305l1.42342,3.52587l3.67584,0.01386l-1.70028,4.69084l5.15199,-1.39777l2.02418,2.76187l-1.11132,3.19307l3.5277,0.49397l-0.98236,-7.31091l7.96101,8.32757l16.77423,3.43353l-0.77382,6.04311l1.16412,-2.34655l3.42659,0.21157l7.70016,7.56224l-2.54931,16.30341l-6.9707,-0.05562l0.032,2.65085l3.14936,0.30852l-0.43284,2.19102l3.73709,2.75151l-4.36646,1.63315l-0.38659,-2.30587l-2.23777,0.08869l-0.80083,5.73301l-5.89866,2.41858l-7.99227,-0.31058l0.45746,-4.43497l-2.71602,2.82588l-3.32195,-1.74054l-0.92338,2.58348l-3.57187,-2.71219l-4.16956,1.98758l-2.4839,-6.21337l-3.15582,3.84652l-4.98911,-0.90463l1.16304,-3.73824l-2.74015,-0.2526l-1.44684,2.88711l-0.24113,-3.96132l-2.18988,3.69759l-1.19397,-5.6307l-1.9208,6.58334l1.70181,1.81394l-3.22638,1.31123l-1.6216,-5.04269l-10.60953,-6.68978l0.21445,-5.62493l-5.16076,-3.72233l2.83948,-2.23838l-0.93015,-2.53064l-4.37082,0.24944l-0.66294,3.12649l-1.48926,-4.87983l1.47064,-2.14438l0,0.00001zm83.18447,-121.60447l-2.93272,0.56434l1.40772,-6.9476l-1.61383,-4.3209l-13.98545,2.98601l-2.24788,-3.65569l-3.2116,0.66528l-2.15633,-8.72567l5.6584,-1.0445l4.4867,4.74633l3.0041,-1.97975l0.08738,2.10768l3.92776,0.99151l9.93117,-5.75035l0.10592,4.02876l2.53675,0.33878l-0.19897,-1.74909l1.80957,1.89499l-0.82293,2.6605l5.24154,9.06493l-5.73604,8.2429l-6.22636,0.29629l0.93511,-4.41475l-0.00001,0zm-161.69739,221.6187l4.74567,-4.22208l0.9959,-13.04274l-3.04625,-8.34227l1.63349,-4.6591l7.09951,-8.83039l12.72629,1.84657l5.29862,15.26579l-1.20025,2.69039l2.20948,2.15327l-4.78817,3.17621l-3.85818,13.57736l-4.69639,-0.26583l-5.31553,6.24524l-1.61399,-6.41739l-1.62693,5.60718l-6.83954,4.2603l1.79776,-6.94854l-3.52149,-2.09397zm153.30124,-212.70107l0.16446,-8.09039l2.24105,5.26267l3.1941,-1.40701l2.29405,5.87989l1.99104,-2.66933l-1.30153,-1.5457l5.99455,-0.74552l3.5311,8.6227l0.06845,5.53596l-3.7796,-1.25927l1.2535,3.2692l-1.70527,2.3501l-4.42263,-1.77041l1.84624,4.55081l-2.24458,1.90802l-4.628,-0.51388l-1.15708,-3.20415l-4.97472,-1.56055l-1.47412,-2.97771l-2.55371,1.91914l-2.46544,-3.14287l8.12814,-10.4117zm-116.43161,249.12017l6.71136,-9.7436l3.29,3.98049l2.26472,-1.16726l-2.71695,7.92602l7.60707,4.27022l1.76209,4.76094l-0.22052,5.60697l-4.40174,-1.00973l1.9675,4.68074l-2.15969,2.39872l-3.40318,-2.22925l-2.29082,-7.95741l-2.53501,2.22225l-1.77356,-2.94662l3.43607,-1.39639l0.17341,-8.98359l-5.52668,1.21433l-2.18407,-1.62683zm14.31,-21.72684l6.73946,-4.32737l2.11791,1.65157l-0.15086,-4.62202l3.80811,-1.21197l-1.57126,6.22341l2.4537,-0.59753l1.4595,2.00569l-2.56695,0.9601l3.64848,0.87013l0.23184,4.16367l2.84021,0.31966l-3.81797,2.80997l1.3173,3.44085l-6.2552,4.14624l1.97722,-5.94718l-5.77819,0.459l1.19707,2.63304l-5.02225,1.77394l1.32074,-6.97574l-4.78723,1.79052l-0.15518,-5.79339l0.99354,-3.77259l0.00001,0zm12.72346,15.97063l2.61178,2.42748l0.20439,-3.79763l3.9622,-0.52469l2.46941,-6.34361l11.17919,4.21503l2.6892,7.28259l-0.25048,6.67656l-3.61222,1.5634l-15.04456,-3.40298l-2.18283,-4.39122l-3.58759,-0.68055l-1.01222,7.18392l-1.82562,-4.94953l-1.85872,5.37029l-3.12141,-5.09856l3.2636,-0.05104l6.11588,-5.47946zm95.26548,-186.78116l-2.69139,0.58193l-2.7683,-3.34306l-0.6063,3.53338l-5.29494,0.27487l-2.15429,-3.14802l-0.01073,-3.7374l2.51407,1.20005l-2.63871,-5.74425l4.25855,-0.09622l0.93771,-4.62807l-4.22228,-5.58003l3.02954,-0.27698l-1.21529,-2.21837l5.37102,-0.50894l-0.15383,4.86745l3.94349,7.06964l-2.5993,-0.52438l-1.01718,2.30509l2.34052,1.15371l2.97235,8.82158l0.00529,-0.00198zm-98.32015,-82.07175l3.83981,4.67481l6.52167,-5.44249l3.07665,4.95687l-7.71246,6.31257l-6.05116,-4.05669l-7.96973,4.16057l-0.10583,2.9316l-3.97381,-0.43835l-1.74972,7.08226l5.59499,1.54428l-0.50388,2.44005l-4.10231,3.3545l-1.44549,-2.67158l-4.18119,0.81219l-3.85467,-10.9892l3.29199,0.27203l-1.35073,-3.77889l8.57365,-2.13824l1.73121,-3.43166l-3.18667,-0.41928l2.10752,-3.2522l-3.24285,0.57248l-1.39093,-3.65937l-6.21995,2.86232l-0.92568,-2.97723l2.56171,-5.1411l6.15749,-1.65924l1.80011,-6.25169l5.21643,1.58811l-2.49347,10.90636l3.34968,0.89425l2.50718,-2.97698l2.19004,4.65143l-1.23314,2.60158l3.29991,0.05672l-0.12637,-3.39079zm52.63649,36.63295l-3.87266,1.02038l1.37739,9.6507l-7.92479,1.03939l-2.55708,-5.03323l0.68564,-13.95475l5.38951,0.2358l2.26725,-8.34094l5.11916,-0.0979l3.85729,-4.55044l2.11814,3.2795l1.76828,-0.5535l0.26102,4.71902l4.43437,5.51082l-6.62548,-1.58693l0.74951,3.14424l-2.02445,-0.20682l2.86396,5.2454l-3.2804,0.69102l-1.03726,2.95301l-3.5694,-3.16477zm-4.15037,35.65988l-2.36767,-4.24119l5.67768,-10.03448l2.88668,-0.01119l3.23191,4.02918l1.50411,-2.4872l1.79479,2.54093l3.21484,-0.88558l0.3314,3.30062l-3.27521,-0.91199l-0.79003,2.74932l4.40264,3.80703l-0.24371,5.53811l-5.98138,0.3159l-2.20824,-2.37956l-3.86402,3.36313l-2.71854,-2.50554l-4.1818,1.03152l-1.97851,-3.32499l4.56506,0.10598zm-45.90455,-150.84053l0.36035,2.22804l-2.85377,0.09999l2.22443,1.74657l-4.60471,3.01321l-1.72267,-1.39829l-1.15658,3.9785l-4.8725,1.28986l-1.95674,2.7711l2.7817,4.54137l-2.23505,1.47639l-0.68138,5.62766l-3.61648,1.7807l-4.49174,-4.76129l2.30928,-3.33441l-1.40017,-7.64l2.74808,-4.35805l-4.08145,-7.70902l0.74219,-2.43143l4.57745,1.3013l-0.01939,-3.54204l5.55407,-0.89425l1.38206,-4.70663l2.99665,-0.36578l7.41908,1.84626l-0.20985,6.09846l0.80713,3.34178l0.00001,0zm48.74206,67.71077l4.4485,-0.69983l-4.16579,14.5216l1.10891,6.54562l-6.17861,1.12784l-2.7279,-3.69187l0.7615,-5.84975l-3.23488,-2.64947l-2.4664,2.63813l-5.48115,-2.12616l3.45661,-5.041l-0.73303,-2.40549l-4.7925,2.00485l-2.39493,-1.78391l1.84717,-6.80187l2.017,1.82078l4.92593,-4.84565l1.91121,0.56938l1.38084,5.48666l-1.6216,3.06708l2.2478,2.26701l7.06092,-6.38909l2.6304,2.23514zm-38.40154,-42.58405l-3.56072,-5.00504l8.60651,-7.83343l10.33636,6.11783l-15.38215,6.72064zm61.30188,28.98309l-13.18456,6.75147l-0.9125,6.56012l-1.31304,-5.51538l-2.23412,0.0907l0.21282,2.48883l-4.25956,0.09322l0.09893,-2.71328l-5.10587,2.23328l0.15508,-4.88139l-5.99238,-0.86647l2.30552,-5.90143l-5.43083,-2.68428l3.51865,-2.07107l-3.092,-2.91528l3.54611,-0.36231l-1.5941,-3.80247l4.68199,-4.64991l1.14095,6.8707l2.48914,2.28461l2.8972,-0.43982l-0.01639,-3.74539l2.95438,2.96673l4.43422,-2.83822l10.05769,10.38481l5.64881,-2.00155l-2.77546,4.03796l1.76931,0.62583l0.00001,-0.00001zm-43.32873,-61.16054l-0.83729,-0.86656l-4.4209,0.79062l1.60771,4.77148l-5.2732,5.19463l-1.64688,-4.64897l-3.92826,1.79283l0.60933,-5.38162l-3.48357,0.54791l2.9477,-7.01125l-2.34448,-4.17235l-3.15231,1.07118l-3.95521,-8.95281l-11.79716,-1.17615l12.49966,-3.92011l1.37219,3.14392l10.41184,6.10309l9.03828,-1.44913l4.08928,6.10503l-3.2281,4.32185l1.69834,2.26355l4.18173,-2.4202l-1.71598,4.18435l-2.67272,-0.29129zm197.81694,72.84766l2.8029,-3.50554l-4.45491,-1.8662l8.75838,-1.35119l1.10739,3.75531l8.42366,6.68492l-1.82109,4.10232l3.86584,0.5866l-0.83333,5.8665l-3.58515,3.2622l-1.48639,-5.11012l-5.00229,-0.47501l-0.14415,-5.29192l-5.47373,0.44286l-2.70427,-5.93881l-5.56266,-0.05981l1.64591,-4.14468l4.46389,3.04257zm-308.4849,307.16288l-2.52882,-3.09221l1.18842,-3.42414l-3.08191,-2.88533l4.45568,-3.47319l5.78151,0.70938l1.31234,2.27646l3.43573,-0.23002l2.4769,7.58109l2.98209,0.05089l-2.51063,2.74569l3.52636,1.65735l-0.4757,4.84963l-4.90021,-4.11641l-1.03863,6.65451l-5.41473,-0.31064l-1.47587,2.57102l-3.62542,-1.72141l-3.65286,-9.68273l3.54575,-0.15994zm-299.95093,-157.64224l-3.11786,-10.41202l2.80886,-6.73348l7.07792,-2.86301l-2.42713,-4.88634l1.43956,-2.67879l9.39396,5.16924l1.88198,6.05425l-12.92528,8.90943l-0.61286,2.58531l-1.96411,-8.37623l-2.85052,-0.12031l1.45178,12.63958l-0.1563,0.71237zm33.62249,103.73196l-4.70044,-0.27781l-1.27681,-2.40098l3.67455,-5.54384l-3.00613,-6.13602l-2.56963,-0.21526l-2.42755,-8.82309l-2.67768,-1.45569l2.83165,-0.63439l-2.18812,-1.63881l3.70697,-2.6707l0.82973,-4.47982l-2.65024,-5.3186l3.75091,-0.22319l0.64873,-3.8762l-2.29549,-1.70987l-1.54855,2.82404l-0.12802,1.00852l-3.14963,2.24651l-1.39064,-6.21441l9.97603,-10.26019l0.46757,7.41918l-2.82205,1.59145l3.04675,7.41514l-3.11038,3.51268l5.0355,-0.81488l2.78943,3.87447l7.53747,2.20645l2.96356,3.70147l-0.77518,3.49205l5.07224,3.22964l-5.5429,6.03029l-0.8787,7.58902l-3.90819,1.1449l-5.28476,5.40794zm6.30416,-55.91407l4.26946,-5.87422l-1.57615,-1.66208l3.5597,-4.96496l-0.87388,-2.13371l1.75611,-0.1209l0.54045,3.22244l9.03542,6.89092l-0.42022,5.01426l3.53449,-3.18256l-0.8331,-2.47255l2.42301,3.48568l1.93977,-0.72551l-2.18943,5.09624l2.13518,2.6226l-3.32376,2.41951l4.76398,0.46639l-1.23026,7.94298l2.24572,0.87234l-2.95534,2.81428l4.65937,3.1717l-2.67228,1.10735l0.043,3.83319l4.98305,-2.82777l0.93441,-5.79645l5.38987,-5.3259l3.57476,-0.05619l0.99326,6.89223l3.22636,-14.99266l-4.30413,-2.34729l2.56162,-2.13446l-1.74091,-4.69808l-7.13571,-0.32423l3.33172,-1.45848l-0.8321,-2.46956l3.66576,1.84116l-2.50567,-4.1997l2.24566,-0.51633l-5.16575,-2.34863l-0.30439,-2.99051l-1.18445,2.04743l-3.34826,-0.66894l-2.34268,-3.93707l-4.99992,2.07905l4.1774,-3.59157l-2.49866,-1.85296l0.46035,-4.66525l3.72238,2.24805l-1.53284,-4.77927l3.01626,-2.41237l-4.34323,-0.83611l2.16465,-5.62965l-0.96753,-4.03007l8.02637,-3.75369l-2.12086,-4.6672l-6.41108,-4.88608l4.11192,-2.39745l-1.96043,-12.76957l7.43301,-0.42065l2.58867,9.31898l2.36796,1.68614l4.16949,-3.37625l7.10282,0.44775l-0.13232,-4.55818l2.49022,3.67628l10.21864,0.67445l2.05508,-5.26508l6.07443,-2.59555l-4.70627,5.7275l-0.95577,5.28198l-8.84355,3.41555l10.2017,2.93238l4.10087,5.21084l5.03443,-2.20656l-7.83623,7.10377l2.28966,3.31985l8.19962,3.24302l-0.66603,11.69582l-6.36476,10.08248l-0.80537,4.79091l1.88162,1.64895l-4.82212,1.90807l1.99762,3.85041l-4.01992,-1.27388l0.97134,2.41411l-2.40233,1.21873l0.1618,-3.69407l-4.01027,1.07185l3.0552,5.59184l-3.57623,3.04988l0.9618,2.6334l2.44931,-3.15758l1.73248,2.12606l1.46751,-3.75437l1.69324,0.8599l-1.28972,3.58337l-6.74334,4.55466l2.13205,13.51769l5.94762,2.582l1.12806,2.88806l5.65031,-4.78289l-0.23625,-4.18562l4.9521,3.8105l1.32457,-4.87726l4.51899,0.4468l1.50243,-3.65957l11.04748,-2.20735l0.5321,2.03908l-6.43069,1.76818l0.33463,3.08031l-4.26652,-1.07715l2.41473,3.69103l6.20787,-1.04103l1.57054,3.04277l-5.77496,0.23869l-5.57995,3.3645l2.23946,1.08366l-3.92202,0.40516l1.11833,7.26343l3.7759,0.08092l0.54189,7.16218l4.5833,-4.70401l2.59318,4.68941l3.1374,-3.20259l3.50927,1.13793l-1.54417,5.38408l1.55044,2.51437l1.88043,-2.30776l3.01544,1.53835l2.23,-5.2058l2.8733,4.36218l0.99584,-2.60721l5.19818,0.82645l-1.96072,4.14781l4.62854,-1.09412l-3.48075,4.50061l0.32737,3.28866l3.80984,1.34907l4.9659,-4.73588l-0.70989,-1.8681l-2.88072,1.17857l0.88619,-3.63132l3.0904,-1.26373l-1.76374,-2.21886l6.80026,-6.70282l-5.69218,-4.37972l4.63415,-10.58457l2.59557,-0.86631l0.80306,2.15346l2.73677,-2.30445l-1.35089,-2.16092l4.20354,-8.61687l2.40662,7.85007l4.93714,-7.60703l3.97259,4.3791l0.64817,-2.48054l8.119,-1.86033l3.08338,-3.8228l-1.45204,-3.61965l1.85705,-2.8282l-3.19869,-5.31908l-9.36375,-4.61089l-2.78585,-5.26115l-1.40923,4.15728l-3.64356,0.08192l-3.75041,-10.67092l-9.28379,-5.07225l-7.74641,0.6491l-3.60409,-6.99097l-4.00089,-2.13714l-0.62153,-5.3291l-7.87732,-3.68377l-1.26116,2.28847l-3.36413,-1.41466l1.46687,8.75771l4.37049,6.4886l-1.21038,3.12901l-6.81748,3.40602l-9.466,-13.03298l-3.33279,0.06681l2.50495,-2.75368l-2.53022,-13.07216l5.66265,-1.2618l5.19126,5.44007l3.95506,-5.64877l3.16304,2.66623l1.24512,-11.59557l4.44425,-0.48252l18.5356,17.46066l10.32279,-3.42951l2.24933,-4.90966l11.44637,8.01492l8.85528,0.32486l7.69179,7.05978l8.55897,1.07274l6.22265,-1.68698l1.03163,2.823l-2.91288,3.64779l3.15238,0.31752l4.32242,7.03577l3.80299,1.77971l-1.7925,3.01978l-4.62003,0.65949l1.84747,4.32452l3.74977,-3.00354l2.42609,7.42145l3.70797,-2.6677l4.36039,2.74421l-2.32468,7.70178l3.0085,0.5803l2.53655,4.28253l-1.84767,7.72897l6.2392,0.44045l2.07914,-6.11338l2.35437,1.89345l-0.23708,7.87487l3.27591,2.2937l3.56966,-3.99795l12.29379,-5.23855l-1.53686,8.89019l1.88198,4.19702l1.37135,-6.58681l5.27265,-7.30107l7.07697,-1.47732l2.47301,-4.01585l-2.16977,-3.88377l5.34293,-2.21072l-3.94552,-2.68029l-1.36744,-12.39812l-6.73678,-10.71683l1.22464,-2.16696l-2.83352,-4.704l1.26372,-3.8905l-1.80497,-3.27866l1.77765,-3.7625l-7.42807,-14.6345l6.8417,6.6328l11.08465,27.56514l-0.81603,2.4422l3.44408,0.95332l0.84479,8.53872l8.29133,2.12673l-0.51569,5.42075l9.14289,7.66979l6.52752,-1.4808l7.60914,1.95045l1.16623,2.76255l1.31874,-3.26728l4.08706,0.07578l2.88445,3.92656l2.30913,-1.71644l2.50846,2.58074l0.88424,-2.24862l2.38989,1.76894l-0.74234,2.19218l3.67291,2.56991l-1.48337,3.00864l2.49937,6.94911l5.58894,1.52633l-1.08438,2.1145l3.10236,2.24737l1.00169,7.60704l10.44318,-6.77777l6.18163,5.1337l4.06956,-0.66596l1.92109,2.68583l1.97137,-1.79909l-2.92235,-6.35611l1.19174,-2.25577l-5.36517,-3.63914l-1.4936,-9.76565l3.17493,-3.32111l10.43093,2.91406l0.51149,-3.81476l-1.49965,-1.67384l-1.56535,3.46401l-0.46396,-3.23419l-2.47214,1.24147l1.09808,-7.86656l-6.72606,1.13035l0.38888,-8.35297l-3.51303,4.40482l-4.50296,-3.85713l-0.96459,-9.12422l3.90467,1.63045l3.11145,-2.12101l0.98844,2.93353l4.48175,-9.88716l-3.08163,-1.72594l-1.22739,-0.39707l-2.07827,-4.77076l1.91972,0.13475l0.98789,-3.56823l-3.37165,-1.18939l0.35099,-7.06807l-4.36558,-1.14122l0.70732,-4.852l4.90309,-2.36642l-7.52069,-2.84642l0.00088,-2.77436l6.04592,-0.12432l-1.52616,-4.76828l5.23584,-4.6245l0.66026,3.80794l4.20881,-0.72142l0.89037,2.87247l4.51436,0.65414l1.28221,-3.14576l-4.79085,-6.10892l5.73142,-2.46388l6.11704,-7.09444l5.97349,0.11176l1.34569,-4.34586l-3.3118,-2.17914l7.20744,-6.65288l-3.2502,-8.71765l-4.28138,-1.81988l0.53493,-2.11797l1.81871,1.45339l2.83258,-2.02008l1.97085,-4.58642l-3.04437,-12.97087l-2.71523,-1.33715l-2.04852,-7.46829l-1.07547,1.90218l-2.92435,-2.64764l-7.95795,-14.3588l-4.01399,-0.31882l-1.78091,3.9828l1.56888,1.87042l-3.45983,0.86598l0.63374,10.68048l-3.24161,5.91786l5.40607,2.36322l2.36461,8.41519l2.86607,2.24474l-5.28507,6.78665l3.18502,8.53304l-2.82725,3.19444l1.16148,5.7642l-4.20637,-3.44562l-13.7312,18.81047l-0.41136,-2.83928l-9.09627,-1.50882l-2.32945,-2.97802l1.74545,-2.46962l6.32811,0.94313l-1.72954,-9.07743l4.30678,2.34632l-0.31317,-8.11062l3.03119,-0.28095l-3.17168,-5.00897l1.87786,-0.91808l-0.97135,-2.41411l2.31872,-0.75939l2.07656,3.38607l4.60368,1.37912l1.88665,-3.90776l-6.3408,-4.26184l-0.573,-7.90893l-2.0535,3.87242l-1.66562,-0.76911l0.15113,-6.04279l2.58073,-1.60904l-3.73255,-1.80944l-1.26456,12.23653l-6.28847,-4.06232l-0.7097,2.29794l-2.41567,-2.30533l-2.31069,3.10909l10.41163,8.18959l-1.69987,4.91314l-2.95122,-0.1804l0.96545,2.63541l-3.08229,5.21447l-9.89405,5.4095l-2.78532,5.63596l-3.98186,-3.0004l3.08609,-2.4351l-1.75468,-4.04914l-5.60232,2.84704l0.06733,2.96794l-7.19361,7.39262l-9.51945,3.02791l6.55433,-5.33672l5.73697,-9.62858l-3.3088,-7.74184l6.18078,-2.73982l0.17593,-9.90471l3.87236,-12.14677l6.2644,-3.19917l4.93128,1.90039l0.27823,-5.66563l5.05299,-0.07315l3.07441,-4.78683l8.23451,3.12548l5.30954,-4.87452l-5.86968,-3.04934l-1.01629,-4.86461l-3.49906,-0.18785l-1.13641,-4.07139l5.39796,-1.58751l-0.31202,-7.18749l-12.19318,-9.77146l-5.48959,-0.30287l1.31462,-10.2396l-2.98077,-3.28382l3.04489,-2.31857l-2.75111,-5.61795l-2.21763,0.82945l-2.46056,-3.36716l1.98903,-7.07065l-2.47429,-1.54187l0.86063,-4.39701l-3.63384,-6.15066l2.27964,-3.43117l-0.84457,-10.62524l3.62377,7.97796l2.9951,1.23922l0.56251,2.36814l-3.13436,3.21157l3.8022,3.40465l-1.49682,2.27888l2.73898,1.86758l-0.10908,3.1519l7.64842,0.67851l3.44395,-1.82404l-1.01142,-5.0889l5.31598,-1.13215l-0.25401,-2.3723l-5.01002,-1.66533l3.90986,-9.93954l-6.86656,-6.0168l2.17519,3.90871l-3.16924,-1.06623l-0.44631,5.85658l-5.95786,-0.99397l-4.55103,-5.16719l4.50463,-3.08027l-16.14717,-4.58827l-1.30245,-4.55534l1.23493,-4.22352l7.77118,-0.11569l-1.36219,-6.3599l3.95054,-2.8764l-4.29432,-1.61954l0.86559,-7.62793l3.50424,-1.41515l1.08496,2.0615l2.64274,-4.21077l-0.9413,7.87198l4.66801,1.79998l-2.42841,3.91826l4.6183,2.35114l1.79702,-7.64936l6.47442,0.90863l-1.42602,-9.56509l2.02615,-3.01615l-2.39478,-3.40188l-4.49821,1.25098l3.38239,-9.43553l-4.08092,-4.92169l-1.69855,1.6802l-0.61318,-4.14576l-4.78651,-1.2231l0.05685,6.43015l-3.60949,-1.44424l-3.18675,2.58736l1.04564,3.802l-3.4651,1.08029l-4.06668,-3.95964l0.82215,-2.89279l-2.56696,0.9601l-4.13178,-2.75557l2.43835,7.69663l4.15282,6.29362l2.23614,-0.08471l2.82115,7.22313l-2.96291,1.86322l-3.38767,-2.17437l4.54236,7.21979l-2.83908,2.46069l-2.52134,-0.99171l1.40763,6.02605l-8.66162,-6.00268l4.01782,6.13176l-4.17256,-2.41673l-1.09626,5.56374l6.37635,5.24287l-2.59922,0.86431l1.59069,5.64074l-5.95795,2.01268l-0.24379,-5.81757l-6.96342,-2.12117l-6.12812,-5.44358l4.51472,-4.90757l-6.2225,0.06901l-2.92349,-2.88391l10.01277,-6.21567l3.71323,-20.95879l4.50109,-5.87658l-2.11632,-3.72512l2.15264,-2.41967l-4.84533,-0.01801l-4.38076,-6.97013l11.68663,-1.46892l3.35518,-3.94469l-1.04548,-5.41995l2.47934,-4.69571l-5.00848,-5.12756l-0.66541,9.83163l-4.99442,-2.75989l0.45963,-3.50884l-6.42218,-4.91901l0.05209,-2.39242l4.67924,-1.64227l-3.26367,-3.19487l-8.21901,3.18196l-7.26278,-15.06373l-9.1302,-11.56763l-10.83085,9.33278l6.76267,-10.51108l-0.40841,-7.93342l-3.53472,-6.55514l-5.30594,-2.7647l-12.0969,3.73577l0,0l-4.31602,3.71081l0,0l-3.37561,6.51066l3.17988,17.70649l-2.74461,8.37454l0.78547,13.35059l-4.51994,1.69056l0.71921,5.45098l0,0l-11.72338,3.60618l-5.38515,-3.17663l-5.6544,1.73735l0,0l-2.12039,2.23234l-6.19201,-0.07048l0,0l-5.5468,-2.95775l-9.2639,0.22234l0,0l-7.60086,-1.26257l-4.63917,-8.25881l0,0l-0.08857,-2.56227l0,0l-5.87778,-3.28563l0,0l-4.95484,-10.84063l0,0l-4.09797,-5.158l-6.97344,-0.69165l0,0l-3.67597,2.5681l0,0l-2.6465,1.71453l-6.01953,-4.0247l-7.37645,4.79819l-7.66831,12.92612l0,0l-3.69088,20.44145l0,0l-4.63611,3.64516l-3.39986,-1.06086l0,0l-4.89403,-8.60841l-3.28492,-0.93196l0,0l-4.39174,-4.36725l-6.56566,2.71186l-2.52034,4.44139l3.23616,13.6373l0,0l5.13195,5.85662l-4.82006,4.05439l0,0l0.22819,9.59178l4.74381,10.37352l0,0l-4.85448,8.46259l-5.00246,3.68106l0,0l-9.10479,-0.25176l0,0l-3.45151,-1.73591l0,0l-4.27611,-1.21176l-6.96605,7.16593l0,0l-6.22812,-1.4423l-2.421,5.52329l0,0l-2.31751,3.0712l-16.27032,6.0214l0,0l-6.996,0.26731l-8.07142,4.23906l0,0l-5.08912,0.3462l-11.61303,-8.42111l-5.62583,-1.20242l0,0l-5.38144,1.64537l0,0l-9.90565,10.69902l0,0l-12.35001,19.62864l0,0l4.38881,5.95929l-4.01674,11.55025l6.88418,28.4351l-10.84002,25.78157l2.41016,8.85995l0,0l-1.83519,4.20198l0,0l-5.58312,14.86969l0,0l-3.26987,5.69248l0,0l2.38205,26.80902l7.25936,-3.032l0.61685,-10.21456l9.50604,2.02633l-2.78165,-8.72436l1.68904,-7.50111l2.2512,16.64827l6.83485,4.52535l6.11088,0.28957l0.67952,4.57261l9.99947,1.4036l3.87526,3.16161l1.27875,-4.55339l-1.75719,-1.27079l5.70184,-1.38432l1.74766,-8.26458l-2.8892,-7.17746l1.19987,-2.70037l3.36238,8.82062l5.74836,-0.32648l-4.55863,8.03173l2.12336,1.88884l1.23064,0.17677l5.8663,0.49229l-3.26773,3.04571l-0.37678,12.78422l-6.95666,4.85016l3.81071,2.97003l-1.60792,5.42479l-1.19137,-3.30592l-5.30164,4.6592l-8.52129,-2.80923l-3.9648,-3.65731l-0.56633,-0.75219l-9.3511,0.28192l3.36454,1.63698l-3.94196,3.83046l-0.42655,-2.41564l-6.93556,-0.19011l-2.19168,5.31955l2.41293,-0.25869l6.69434,17.31219l2.29334,-1.07347l6.16556,6.47448l2.01209,14.55016l5.27151,-1.97166l1.81389,3.06635l8.39383,-1.22157l-0.00001,0zm123.9215,-222.28346l-1.876,-14.57073l2.77088,-8.90682l3.95675,-4.40564l6.35079,-2.66857l13.74741,1.59609l7.39296,4.26267l3.99904,-1.20247l7.32396,-9.77386l-0.5817,-7.10347l5.66274,-2.41124l10.86786,13.80635l6.12056,-2.58246l6.70328,4.52399l7.81147,13.19004l2.96999,12.66161l-18.0381,10.25547l-3.75468,21.91471l-9.88937,3.69884l-10.98728,-2.62845l-10.1196,3.78494l-4.96326,-1.65922l-7.66452,4.91606l-11.33827,-3.67016l-5.52074,-4.08317l-10.73667,-16.49464l-1.40296,-4.16383l4.55604,-4.92639l6.63942,-3.35965zm-48.02022,297.60278l1.44962,-8.22052l1.28477,3.362l1.39292,-1.90632l2.19832,2.58888l2.39543,-1.00043l-2.56243,-1.81227l4.59627,-1.18991l3.46691,-5.24036l1.54402,8.0581l2.62891,0.62116l-6.33595,0.66087l-2.02858,2.78785l1.19153,1.68796l4.69829,-2.50554l-1.9146,4.98334l-4.43527,1.65888l3.20945,4.66116l-0.61854,2.57731l-8.86617,-2.4443l-2.15402,2.40671l-2.97001,-2.08452l-1.79683,-6.26137l3.62596,-3.38868zm-67.98709,3.77896l-4.18713,-0.14285l2.58605,-8.54444l-0.71603,-6.98919l4.54063,-1.5938l8.48398,2.69848l3.61748,-1.77772l-3.96488,7.45911l-3.74729,0.01285l3.12449,2.78177l-3.25164,3.56216l2.48936,2.05531l-5.04401,1.24952l0.7046,1.87008l-4.079,2.48627l2.86398,0.85007l-6.63312,4.18311l-3.19129,-2.75005l6.40382,-7.41068zm-34.12856,-134.18858l1.66138,-3.40892l5.32173,0.26453l2.99193,2.8482l-1.76086,3.12254l1.6979,0.86489l-5.38529,3.94222l-4.35273,-4.7998l-4.54634,0.40947l0.32649,-2.04676l4.04579,-1.19637zm295.46468,85.70193l6.07999,6.45929l-2.84405,3.83441l-1.98377,-5.64877l-4.30867,-3.28939l-6.82381,2.22868l-3.43499,-5.32171l-4.85886,5.97332l-4.18806,1.24284l-1.03447,-2.38038l1.87361,-0.70077l-0.95522,-4.22344l2.27692,-0.42355l-1.7977,-3.48699l3.74105,1.3748l2.72387,-4.42987l-4.8126,1.47643l-1.74956,-2.64548l2.69232,-1.96763l-1.19226,-4.246l12.47731,-0.51077l8.48007,5.46385l0.46929,4.40856l6.77166,5.02762l-7.60207,1.78495zm-184.21588,28.70907l-3.49365,2.3752l-1.74301,-1.69742l-0.82393,2.65751l-3.81087,-1.35207l1.6979,-7.24489l7.40448,-3.52108l-1.21328,-2.21238l-2.80822,2.33117l2.23419,-6.81178l-5.65219,-0.55552l0.32052,-3.21413l3.86472,-1.98142l8.80019,6.42275l-4.35513,5.15123l1.64879,1.19672l-1.28655,1.97439l5.4909,1.46525l-0.93015,5.57913l-2.5452,1.48453l-2.79951,-2.04719zm-79.32458,42.6764l-1.85064,-2.71553l3.41505,0.63721l0.13247,2.94022l5.28427,5.48617l-4.20716,0.71744l5.54133,3.47213l-0.15072,1.86978l-2.76817,-0.56571l0.5502,2.56151l-1.83869,0.79558l-7.63718,-14.08777l2.35168,0.71811l1.17756,-1.82914zm221.01268,-39.07762l4.42091,2.92382l1.43984,6.59038l-1.83774,-0.59012l-0.87396,4.58738l-13.22409,-3.78388l-0.57985,-2.87063l3.30236,-4.11032l7.35152,-2.74963l0.00101,0.003zm28.48881,-0.96819l-0.81489,-2.88721l0.07781,4.86507l-2.87508,0.97422l-1.73356,-7.23218l-4.11299,1.00579l-1.80426,-4.43507l5.36078,1.0791l0.40912,-5.0472l4.2259,-0.20198l-0.32103,-2.1113l2.66149,1.87634l2.32977,-6.29813l4.91411,2.53038l0.70329,3.2458l3.768,0.29623l2.79726,-5.83929l4.94899,2.41284l5.62871,-2.52996l-6.22385,5.62771l-1.78954,5.35452l-5.21532,-2.73456l-4.79675,2.22217l-0.03595,10.55008l-4.67967,-2.29448l-3.42234,-0.42889zm-59.67817,5.49801l1.87881,-2.30376l8.97407,0.90737l-2.11711,-5.81463l2.62575,-5.87962l1.44834,2.4413l4.30029,-1.6084l-1.0271,2.51441l2.42143,-0.69332l1.14779,3.4065l5.30046,-3.04424l-4.37558,5.7892l-2.60889,-1.48143l-2.67415,3.87873l-0.10296,2.70131l4.06126,-0.46061l-2.38151,3.12884l-6.36427,-0.81163l0.38924,2.30488l5.27454,1.75177l0.73793,5.89566l-7.171,-6.68156l-5.85066,0.48273l4.22027,-2.53573l-2.34708,-2.10179l-7.59245,6.66878l3.24272,-7.06428l-1.41014,-1.39048zm39.20699,-27.55358l0.25733,-4.5691l2.33851,1.14773l0.54809,-2.54759l1.34036,2.58956l1.35988,-4.77249l2.81066,1.61156l-0.75664,-2.69665l1.87455,-2.08645l1.46737,1.57804l-1.1238,5.00441l4.47041,6.3164l-1.22928,2.3743l-4.14067,-0.47369l0.79126,5.13416l-4.0148,3.84421l-5.09608,-0.75339l-2.22007,-3.1133l-4.43725,2.82924l-0.23985,-6.51338l-4.83977,-5.32549l0.33897,-3.85808l5.77977,6.25812l4.72105,-1.97812zm-65.94178,79.37929l1.24686,3.47057l2.52251,-0.62326l4.67348,7.60893l-4.55252,-0.52863l-3.57758,4.21326l0.94116,-4.39679l-3.19905,0.24262l-2.18858,-9.50234l4.13372,-0.48436zm-21.47301,-86.67027l4.53912,1.18754l5.05185,-2.85351l11.26491,2.61225l2.89606,-3.22018l-0.32743,-4.67733l2.1462,-0.59038l2.04336,4.67596l5.94223,0.01897l-1.57514,6.45068l3.14098,3.52052l-4.93875,-0.28643l1.29331,3.13973l-4.51832,8.83234l-2.77054,-3.11976l-3.59737,2.30612l-1.31963,-2.06812l-10.04054,5.88563l-11.848,-13.37235l2.6177,-8.44168zm52.72616,-4.35731l-2.24391,3.07738l2.31907,9.89846l-1.35204,3.1685l-1.91345,-0.34608l-0.58254,-4.04599l-2.51919,1.79164l2.46027,8.46032l-6.27695,-8.20241l-0.12343,-8.48495l1.73523,-3.41967l1.80554,1.883l0.63593,-3.43659l6.05547,-0.34361z" stroke-width="1.31793" fill="#818181" class="amcharts-map-area amcharts-map-area-KR-46" id="svg_21" stroke="#505050"/>
   <path d="m773.36131,257.09229l6.37643,-41.23558l5.61883,-2.62016l0,0l37.89851,8.65322l0,0l14.59642,1.36855l0,0l27.29868,-7.87917l-11.12885,-7.13151l0,0l-3.6326,-3.91503l0,0l66.21515,2.1302l0,0l41.50889,-28.62424l0,0l-4.48004,-18.59648l44.8529,-19.39097l-12.1591,-9.28073l32.24818,-25.65893l-63.26963,1.09303l0,0l-38.74398,-32.82731l0,0l-47.25581,-35.47053l10.294,-30.5399l0,0l-75.29379,1.64767l-53.97332,-8.13631l-67.76116,32.56596l-30.78418,35.42434l-0.43523,25.83204l-31.45186,7.52052l-34.99298,-52.4307l-26.60152,-10.01775l-25.16956,6.01834l-7.82396,25.25577l-47.02336,18.26534l-23.70077,22.03812l5.82333,24.32804l-37.38845,22.97551l8.04931,28.46677l52.87753,6.07786l24.63773,59.58525l146.12311,-18.56878l40.96369,36.14148l0,0l77.68747,-13.06393l-0.00001,0z" stroke-width="1.317931" fill="#818181" class="amcharts-map-area amcharts-map-area-KR-30" id="svg_9" stroke="#505050"/>
   <path d="m1005.73027,233.21113l-0.69854,-31.77836l2.01133,-1.59743l0,0l15.61739,9.84305l0,0l5.86193,2.25271l0,0l10.14986,-3.96211l-4.94368,-6.48553l0,0l-1.73735,-3.36l0,0l26.27428,7.02537l0,0l14.1366,-19.05924l0,0l-3.21535,-14.92655l16.1745,-11.55753l-5.51735,-8.25207l10.71617,-17.48614l-24.86175,-4.26275l0,0l-17.83419,-28.84373l0,0l-21.39631,-31.60244l1.67946,-23.08494l0,0l-29.55961,-4.80118l-21.91533,-10.73873l-24.18063,20.02236l-9.37808,25.2525l1.84101,20.19553l-11.81538,3.34521l-17.88253,-43.89292l-11.26935,-9.99773l-9.45534,2.67703l-1.11723,19.14644l-17.118,10.50039l-7.62807,15.34197l4.19155,19.52399l-12.95202,14.96872l5.39169,22.94538l21.32289,9.03797l14.35693,48.65834l56.16891,-2.72045l18.96763,31.61884l0,0l29.61396,-3.94597z" stroke-width="1.317931" fill="#818181" class="amcharts-map-area amcharts-map-area-KR-30" id="svg_40" stroke="#505050"/>
  </g>
  <path fill="#ffffff" stroke-width="1.317931" d="m1137.88659,588.63246l21.8268,0l6.74465,-20.73537l6.74466,20.73537l21.82679,0l-17.65822,12.81503l6.745,20.73537l-17.65823,-12.81537l-17.65822,12.81537l6.745,-20.73537l-17.65823,-12.81503z" id="svg_42" stroke="#505050"/>
  <text fill="#ffffff" stroke-width="0" x="1205.572689" y="621.556892" id="svg_43" font-size="24" font-family="'Shadows Into Light', serif" text-anchor="start" xml:space="preserve" font-weight="bold" transform="matrix(0.8383431237138552,0,0,2.3536019100637504,182.4265802440629,-846.9572102635328) " stroke="#505050"></text>
  <text fill="#ffffff" stroke-width="0" stroke-opacity="null" fill-opacity="null" x="571.530501" y="610.342791" id="svg_44" font-size="30" font-family="'Shadows Into Light', serif" text-anchor="start" xml:space="preserve" font-weight="bold" transform="matrix(1.9837640523910522,0,0,1.9837640523910522,-567.2014614567161,-596.6375264618546) " stroke="#505050"></text>
  <text fill="#ffffff" stroke="#505050" stroke-width="0" stroke-opacity="null" fill-opacity="null" x="193.714275" y="63.779762" id="svg_45" font-size="50" font-family="'Shadows Into Light', serif" text-anchor="start" xml:space="preserve" font-weight="bold"></text>
  <text fill="#ffffff" stroke="#505050" stroke-width="0" stroke-opacity="null" fill-opacity="null" x="1043.714284" y="65.208333" id="svg_46" font-size="50" font-family="'Shadows Into Light', serif" text-anchor="start" xml:space="preserve" font-weight="bold"></text>
 </g>
</svg>