<svg width="1366" height="625" xmlns="http://www.w3.org/2000/svg" style="vector-effect: non-scaling-stroke;" stroke="null" xml:space="preserve" version="1.1">
 <desc stroke="null">JavaScript chart by amCharts 3.21.15</desc>

 <desc stroke="null">This map was created using Pixel Map Generator by amCharts and is licensed under the Creative Commons Attribution 4.0 International License. You may use this map the way you see fit as long as proper attribution to the name of amCharts is given in the form of link to http://pixelmap.amcharts.com/ To view a copy of this license, visit http://creativecommons.org/licenses/by/4.0/ If you would like to use this map without any attribution, you can acquire a commercial license for the JavaScript Maps - a tool that was used to produce this map. To do so, visit amCharts Online Store: http://www.amcharts.com/online-store/</desc>
 <g stroke="null">
  <title style="vector-effect: non-scaling-stroke;" stroke="null">background</title>
  <rect stroke="null" fill="none" id="canvas_background" height="507" width="1108" y="-1" x="-1"/>
 </g>
 <g stroke="null">
  <title stroke="null">Layer 1</title>
  <g stroke="null" id="svg_1">
   <path stroke="#000000" id="svg_2" class="amcharts-bg" fill="#505050" d="m-1.666675,-1.166681l1365,0l0,624l-1365,0l0,-624z" cs="100,100"/>
   <text stroke="#000000" font-weight="bold" xml:space="preserve" text-anchor="start" font-family="'Shadows Into Light', serif" font-size="24" id="svg_50" y="-233.185814" x="704.791294" stroke-width="0" fill="#ffffff">曼斯特联邦</text>
  </g>
  <path stroke="#505050" transform="rotate(107.04847717285156 290.36361694335943,201.6457061767578) " id="svg_29" cursor="pointer" countryId="VE-K" aria-label="Lara  " role="menuitem" class="amcharts-map-area amcharts-map-area-VE-K" fill="#818181" stroke-width="1.175129" d="m400.631448,215.810303l-0.523962,22.389926l-6.470933,18.458871l0,0l-2.593613,4.785633l0,0l-10.007677,12.134998l-10.033875,3.674683l-6.470933,-5.255651l0.314377,-22.689028l-3.87732,-5.811126l-13.911195,34.268551l3.87732,11.622252l-4.191697,1.580968l-3.87732,-10.041284l-2.934188,1.580968l2.934188,16.365156l-9.378923,-9.998555l-3.562943,1.580968l2.90799,12.134998l-4.84665,-5.811126l-6.156555,2.093714l-5.161027,31.149344l-11.972535,-3.161936l-2.90799,4.187429l-8.095215,-9.485809l6.78531,-14.784188l0.314377,-11.579523l-7.440263,6.836619l-8.069017,-0.512746l-7.780838,11.622252l0,0l-1.93866,8.973062l0,0l-11.317583,-22.689028l0,-8.460316l4.217895,-12.134998l11.972535,-3.161936l-1.93866,-6.323872l-22.320788,-19.527092l-12.313111,-1.068222l-10.007677,-12.647745l-8.750168,4.230158l-8.409593,-4.742904l0,-12.134998l-11.003205,-15.85241l-4.191697,3.161936l-1.93866,17.946124l-2.960386,1.281866l0,0l0.078594,-0.854577l0,0l-18.443468,-11.066777l-7.099687,-13.20322l1.93866,-6.879348l21.980213,-22.133553l2.279235,-17.946124l-7.440263,-5.255651l-3.379556,-22.859944l0,0l7.152083,0.982764l0,0l24.914401,-12.134998l17.788515,-1.580968l61.775139,-39.011456l-1.283707,5.811126l8.409593,1.580968l11.317583,-13.20322l22.320788,16.365156l23.604495,-4.230158l21.037081,9.998555l19.072223,-8.417587l6.968697,11.622252l0,0l-0.654953,0.299102l0,0l-6.78531,12.134998l-10.348253,3.674683l-6.811508,10.041284l-0.96933,10.041284l5.501603,14.228713l2.90799,24.782743l-12.915667,0.555475l-3.562943,12.134998l-8.409593,9.485809l10.007677,18.458871l-1.598085,18.971617l6.470933,7.392094l2.90799,1.580968l2.90799,-15.809681l5.81598,-10.041284l5.501603,0.555475l0,0l1.074122,-0.256373z" cs="100,100"/>
  <path stroke="#505050" id="svg_25" cursor="pointer" countryId="VE-B" aria-label="Anzoátegui  " role="menuitem" class="amcharts-map-area amcharts-map-area-VE-B" fill="#818181" stroke-width="1.175129" d="m826.189577,341.71194l-10.796627,2.221702l-16.124387,14.328391l-35.706497,-9.144399l-11.325868,2.769069l-6.103966,-2.769069l-49.219952,29.397333l-18.311924,-1.996309l-21.346264,6.375318l-17.853267,19.866565l-13.090022,7.566669l-19.158715,-1.996309l-20.040817,-16.678894l-7.409439,-0.418578l-21.769684,9.949369l-15.700979,-2.769069l-14.360221,11.108511l2.187549,11.527112l8.714936,5.570372l-2.646243,7.953061l-14.783616,0.80497l-31.366685,15.10114l-12.631341,-0.80497l-27.02686,-18.288799l-50.102017,-11.913504l0,0l-5.221889,-3.574051l0,0l-7.832847,-7.148103l3.91643,-14.328367l43.57463,-50.873838l7.374165,-23.859171l-3.457748,-10.754351l3.457748,-11.108534l4.798506,-3.992629l27.026847,-0.38638l6.527374,7.148103l8.714923,0l10.902473,-23.440605l-3.069626,-6.375318l-26.14477,-13.909801l0,-7.953061l-7.832859,-7.148103l-24.380617,-7.953061l-11.78455,-10.754351l-8.714923,-12.718451l2.187537,-5.570348l14.395519,-7.148103l-0.882077,-4.765402l-18.311936,-7.534471l-17.853242,-14.714783l-6.527374,5.151782l-27.450255,0l0,-8.725822l-5.680583,-2.414886l1.764154,-21.862874l-6.703792,-17.870245l0,0l1.305472,-4.37901l0,0l8.256242,0.38638l12.207958,-6.76171l22.651761,-20.44613l0,0l55.041642,11.752506l39.940464,-3.123264l14.395507,-4.475602l2.787363,-9.498594l12.984189,-7.373496l23.886662,-2.028518l0,0l9.632286,14.038603l22.651749,9.563001l15.700979,0l16.971165,-6.375342l18.311949,3.574063l0,0l1.164341,0l0,0l-16.477223,8.371639l-1.728868,5.151782l0.882077,6.375318l11.749264,6.76171l8.714936,13.491235l-4.798506,8.371639l1.72888,6.343121l10.020396,9.144411l4.798494,14.328391l0,4.765402l-19.158727,15.90611l12.631366,29.010976l17.853255,-4.379021l15.242298,6.375318l50.560686,36.964025l14.360208,27.433234l45.303523,-3.96042l1.764154,3.96042l-6.56266,5.570348l-9.138331,-0.386369l2.610945,14.714771l55.323919,20.252934l0,0l-0.388122,7.405682z" cs="100,100"/>
  <path stroke="#505050" id="svg_27" cursor="pointer" countryId="VE-Z" aria-label="Amazonas  " role="menuitem" class="amcharts-map-area amcharts-map-area-VE-Z" fill="#818181" stroke-width="1.175129" d="m581.455636,255.384156l-7.50828,-4.598629l-5.05075,0.980493l-0.13569,3.30051l2.48768,3.397186l3.42245,0.662867l5.75936,10.840609l12.01626,10.840609l15.80056,8.990107l2.78922,4.474337l-0.40708,4.861013l-1.95999,1.657169l0.42215,20.976917l7.34244,7.429615l8.20181,14.154937l0.18092,8.68629l-2.78922,4.778154l1.67353,4.432912l12.84549,3.410995l13.4938,-1.767643l14.3984,0.883826l4.31199,9.072966l-3.90491,6.31103l-12.39318,2.209552l-12.55903,8.189139l-8.56366,0.165717l-6.89013,2.734319l-3.52799,6.476747l-1.67353,14.320654l-11.7298,9.211057l-4.28183,0l-0.55784,-2.389068l-4.47783,0l-21.03223,14.969704l-9.54365,-2.112885l-11.11165,8.078674l-10.6895,2.94146l-2.15599,11.047751l-9.87535,1.353351l-4.52306,4.515771l-2.17107,9.128208l-3.54306,1.187634l-5.18644,-1.07716l5.00552,-7.277706l0.18092,-7.31914l-2.78922,-3.410995l-5.39752,-0.856201l-8.18674,0.510959l-9.3175,4.267195l-6.89013,7.332948l-8.74458,3.065753l-13.96118,-0.510959l-37.58662,-29.732267l0.16585,-6.766747l-2.4123,-0.842393l-1.31169,-13.98922l-2.97014,-2.720511l-8.03597,-19.706424l-0.81415,-8.051048l-2.4123,-1.367159l-2.78922,-6.145314l-0.75384,-3.742428l2.60829,-3.921953l-2.41229,-3.480045l-5.92521,-2.817177l-2.63845,-4.281004l-10.96089,-8.727724l-4.64367,-0.138101l-0.55784,-4.087661l-3.72399,-3.921953l-16.38855,-2.043835l27.36451,-21.998844l4.83967,-0.690484l-0.55784,-4.08767l8.75966,-6.642455l-0.37692,-4.101478l-9.86027,-5.289113l-0.75385,-8.865824l-2.6083,-2.554794l-9.10642,-1.574301l-2.98522,-9.501076l-1.86953,-0.925242l0.196,-3.245278l3.16614,-2.375269l-1.49261,-3.079561l-9.4532,-6.739131l-1.25138,-6.462939l1.58308,-7.25008l-1.11569,-3.921953l-3.16614,-1.878118l-0.85939,-4.474346l0.10554,-4.060045l2.42738,-3.23147l0.18092,-18.933091l2.78922,-5.965779l-2.93999,-0.179534l-0.61815,-2.306219l0.588,-11.158225l11.35288,-7.664382l2.42737,-3.410995l0.55785,-15.591138l11.5338,-13.63017l3.34706,-0.510959l-0.36184,-4.44672l-2.42738,-0.331434l-1.34184,-5.606729l0,0l18.30332,4.778154l1.47753,9.086774l-1.97507,0.911443l0.24123,13.188252l6.4529,-0.455717l2.48768,2.499552l3.46768,0.455717l7.70428,-2.499552l17.36855,-0.911443l7.19166,-3.410995l9.93565,-8.631057l3.96522,-0.455717l2.98522,10.90966l7.44797,-2.955278l4.96029,0.220959l4.71906,-2.043835l7.44797,-8.410108l3.96521,-8.410098l9.67935,-2.499552l4.71906,1.132392l1.49261,2.734319l-2.98522,12.042052l0.25631,6.60103l3.46768,4.08767l3.72398,0l6.21167,-5.689597l13.14703,1.601927l0.75384,1.809068l-3.22645,4.101478l8.68428,8.410108l-0.49754,3.176228l-2.48768,0.911443l0.2563,2.955269l4.46276,2.955278l-1.49261,4.322428l-9.18181,1.822886l4.71905,14.776371l18.70106,19.107691l7.8493,8.401216l2.1588,-0.337149l8.01809,1.013824l0.75384,7.042939l1.97507,2.278602l-0.61815,12.014426z" cs="100,100"/>
  <path stroke="#505050" transform="rotate(-9.180757522583008 517.7175903320303,459.299499511719) " id="svg_32" cursor="pointer" countryId="VE-F" aria-label="Bolívar  " role="menuitem" class="amcharts-map-area amcharts-map-area-VE-F" fill="#818181" stroke-width="1.175129" d="m472.222923,516.818462l0.554318,-6.189047l-1.771115,-1.173785l-0.675998,-3.628062l-6.66534,-1.052849l-2.460632,0.704271l-10.004769,-2.809969l-13.803878,-11.360813l-4.231747,-7.611816l8.233655,-0.939028l1.338476,-2.226634l-4.001908,-1.522363l-0.229839,-1.522363l2.230793,-0.469514l0.446159,-1.636185l-7.787496,-4.332333l2.893271,-2.112812l-0.675998,-0.931914l-11.789404,-0.825206l-5.570223,2.930905l-3.33943,0l-3.109591,-2.105699l-0.229839,-3.400419l2.676952,-6.203274l-1.338476,-1.408542l-4.231747,-0.583335l-8.679814,1.287606l-3.555749,4.332333l-6.67886,4.332333l-4.231747,1.052849l-4.448066,-0.113822l-6.67886,1.522363l-2.676952,-5.619939l-3.555749,0.234757l-8.909653,4.446154l-6.44902,1.75712l-15.574992,0.469514l-6.908699,1.287606l-3.109591,-0.234757l-2.230793,-1.287606l-5.786542,0.234757l-0.216319,-6.793723l1.771115,-0.469514l-1.324956,-4.680911l-16.41323,-2.461391l0,0l0.202799,-1.024394l0,0l9.193572,-3.471557l1.108637,-1.643299l4.015428,-1.052849l1.771115,-1.636185l0.229839,-3.279483l3.109591,-4.688025l3.12311,-1.991877l0.662478,-5.73376l-5.110544,-2.112812l2.893271,-3.97664l6.232701,-1.408542l4.001908,0.113822l10.234609,-3.507126l9.125972,-1.287606l10.464448,-8.550844l6.178621,-1.700209l0,0l1.081597,0.618905l0,0l4.218227,0.234757l5.786542,-2.689034l9.125972,1.401428l6.46254,-0.939028l8.003816,-5.02949l8.909653,-1.643299l7.571177,1.75712l2.501192,-0.569108l0,0l0.01352,0.007114l0,0l19.198341,2.632123l10.356288,4.040665l4.840145,0.177846l12.019243,-3.336394l5.664863,-0.177846l1.013997,-1.75712l-3.33943,-1.230695l-0.838237,-2.546757l5.502623,-2.454277l6.016382,0.611791l8.341815,-2.198179l2.839191,0.09248l7.679337,3.684973l7.341338,0.441058l5.015905,-1.671754l6.841099,-4.389243l8.179575,-1.408542l7.016859,0.441058l18.860342,-6.494942l2.338953,0.611791l4.339907,-0.611791l13.682198,2.020332l6.178621,-3.165662l4.137107,-0.490855l0,0l-0.01352,0.206302l0,0l2.000954,0l4.001908,-2.105699l0,0l1.176236,-0.220529l0.594878,2.95936l0,0l7.016859,4.65957l10.018289,0l8.679814,2.632123l4.164147,4.040665l5.854142,1.230695l4.502146,-1.671754l9.180052,-0.085366l7.016859,6.238843l0,0l6.67886,1.579274l0,0l8.842053,1.316062l2.501192,-1.493908l8.679814,-1.493908l6.67886,-2.632123l4.177667,0.348578l1.838714,2.724603l3.501669,1.230695l4.677906,-0.704271l4.840145,-2.105699l3.33943,0.611791l4.502146,-1.316062l18.414184,-0.177846l0,0l-4.312867,1.878056l-8.977253,0.206302l-2.217273,1.166671l-2.230793,5.285588l-7.233178,1.721551l-0.405599,1.408542l1.703515,2.724603l5.786542,3.684973l-2.636392,2.155496l4.731986,2.183951l12.735801,-0.199188l5.245744,2.888222l-1.216796,1.337403l-13.06028,5.67685l-9.69381,1.216468l-3.25831,2.347569l-11.086366,-1.138215l-2.163193,1.579274l-4.975345,0.73984l-12.005723,-1.465452l5.340384,8.501047l0.189279,7.313034l1.595355,-0.049797l0,2.077243l-9.382851,4.097576l-1.230316,1.778462l-7.030379,1.750006l46.995377,27.850709l1.351996,3.855705l-6.854619,4.062006l-11.221566,3.905502l-1.324956,2.802856l-2.758072,1.707323l-6.66534,0.690043l-13.330679,-0.690043l-0.567838,3.407533l-10.234609,0.590449l-1.500715,0.839434l0.09464,2.667692l-2.257833,1.287606l-9.382851,0l-7.517097,3.407533l-11.491965,0.049797l-8.030855,1.821145l-16.751229,-2.511188l-8.084935,4.93701l-10.207569,0.007114l-2.933831,1.934966l4.502146,6.97157l-3.15015,3.393305l-4.258787,1.650412l-5.489103,-0.433945l-23.119129,-12.442118l-5.299824,0.128049l-2.149673,3.158548l-2.541752,0.248985l-6.895179,-2.923791l-4.731986,0l-1.987434,0.896345l-8.544614,-0.839434l-8.328295,2.781514l-2.744552,-0.981711l-1.635915,-3.891274l-5.002385,-2.304886l-11.694764,-0.967483l-12.222043,0.704271l-4.245267,-2.312z" cs="100,100"/>
  <path stroke="#505050" id="svg_14" countryId="VE-P" aria-label="Portuguesa  " role="menuitem" class="amcharts-map-area amcharts-map-area-VE-P" fill="#818181" stroke-width="1.175129" d="m396.627719,273.454077l15.44436,35.355325l0.417415,7.404139l18.19439,11.47754l1.203138,8.169308l7.685349,6.27889l-5.671935,8.169308l5.671935,14.065613l-17.384113,8.889468l8.078211,3.330737l4.444244,8.169308l8.495626,4.816066l0,0l0.417415,6.301395l0,0l-7.685349,17.036271l-10.116179,3.690817l-6.875073,6.301395l-1.203138,19.264264l-4.861659,0.742664l-5.25452,-2.205488l-11.319317,-13.728038l-16.573837,-10.734876l4.051382,-5.91881l-1.620553,-2.970658l-4.837105,-1.845408l-0.810276,-4.455986l-12.129593,-12.962869l-6.875073,-2.227993l-6.875073,1.485329l-18.19439,-8.889468l-17.384113,0l-16.966698,-6.683979l-27.573954,-19.106729l0,0l0.122769,0.022505l0,0l10.901902,-15.843507l0,-6.954039l-6.678642,-2.205488l-1.203138,-4.726046l11.221101,-10.014717l2.381722,-6.796504l0,0l1.546891,-4.028392l0,0l7.292488,-6.121355l7.56258,0.27006l6.973288,-3.600797l-0.294646,6.09885l-6.359443,7.786723l7.587134,4.996106l2.725475,-2.205488l11.221101,1.665369l4.837105,-16.406131l5.770151,-1.102744l4.542459,3.060677l-2.725475,-6.391415l3.339321,-0.832684l8.790272,5.266166l0.589292,-2.498053l-3.339321,-1.395309l0,-4.726046l2.750029,-0.832684l3.633967,5.288671l3.928613,-0.832684l-3.633967,-6.121355l13.038085,-18.048995l3.633967,3.060677l-0.294646,11.950145l6.064797,2.768113l9.404118,-1.935428l9.379564,-6.391415l0,0l1.399568,-1.440319z" cs="100,100"/>
  <text style="cursor: move;" stroke="#505050" font-weight="bold" xml:space="preserve" text-anchor="start" font-family="'Shadows Into Light', serif" font-size="30" id="svg_48" y="270.566397" x="436.125013" stroke-width="0" fill="#ffffff">中央山脉</text>
  <text style="cursor: move;" stroke="#505050" font-weight="bold" xml:space="preserve" text-anchor="start" font-family="'Shadows Into Light', serif" font-size="30" id="svg_49" y="118.483085" x="536.958321" stroke-width="0" fill="#ffffff">黑森林</text>
  <text stroke="#505050" transform="matrix(1.578855037689209,0,0,1.578855037689209,-516.4291397184134,-108.97850545495749) " font-weight="bold" xml:space="preserve" text-anchor="start" font-family="'Shadows Into Light', serif" font-size="25" id="svg_59" y="239.813633" x="733.379781" stroke-width="0" fill="#ffffff">曼斯特联邦</text>
  <text font-weight="bold" xml:space="preserve" text-anchor="start" font-family="'Shadows Into Light', serif" font-size="35" id="svg_60" y="373.255518" x="105.497205" stroke-width="0" stroke="#505050" fill="#ffffff">神圣德嘉诺帝国</text>
  <text stroke="#505050" transform="matrix(1.3672901391983032,0,0,1.3672901391983032,-193.00522924028337,-149.33213612623513) " font-style="italic" font-weight="bold" xml:space="preserve" text-anchor="start" font-family="'Shadows Into Light', serif" font-size="20" id="svg_62" y="435.246022" x="484.054547" stroke-width="0" fill="#ffffff">萨文思地区</text>
  <text font-weight="bold" xml:space="preserve" text-anchor="start" font-family="'Shadows Into Light', serif" font-size="45" id="svg_63" y="109.920898" x="172.164197" stroke-width="0" stroke="#505050" fill="#ffffff">北海</text>
  <text font-style="italic" font-weight="bold" xml:space="preserve" text-anchor="start" font-family="'Shadows Into Light', serif" font-size="28" id="svg_64" y="429.922462" x="748.833683" stroke-width="0" stroke="#505050" fill="#ffffff">维恩纳斯地区</text>
  <path stroke="#505050" id="svg_66" d="m1032.154221,562.43897l32.467499,0l10.032707,-33.549609l10.032713,33.549609l32.467493,0l-26.26671,20.734562l10.033226,33.549609l-26.266722,-20.735126l-26.266716,20.735126l10.033229,-33.549609l-26.266719,-20.734562z" stroke-width="1.175129" fill="#f7f4f4"/>
  <text stroke="#505050" transform="matrix(1.5338061375728098,0,0,4.611883834468352,-596.5317532584418,-2020.1038248922193) " font-weight="bold" xml:space="preserve" text-anchor="start" font-family="'Shadows Into Light', serif" font-size="18" id="svg_67" y="568.875115" x="1122.168836" stroke-opacity="null" stroke-width="0" fill="#ffffff">大陆会议执委会制</text>
 </g>
</svg>